<svg xmlns="http://www.w3.org/2000/svg" width="1080" height="1080" viewBox="0 0 1080 1080"><title>warningg</title><path d="M817.61,707.67c-34.92-60.91-70.24-121.58-105.36-182.37C671.49,454.74,631,384,590,313.64c-23.14-39.65-75.68-39.83-99.54-.79-5.88,9.62-11.29,19.53-16.94,29.29Q367.81,525,262.25,708c-24.66,43,2,88,51.47,88.16,75.27.2,150.54.05,225.8.05v-.06q115.43,0,230.83,0c17.35,0,31.73-6.44,42.91-19.68C829.87,756.82,831.74,732.3,817.61,707.67ZM749.5,748q-104.76.1-209.52,0t-209.51,0c-21.75,0-28.46-11.84-17.62-30.6q104.67-181.3,209.28-362.62c4-7,7.85-14.09,17.28-14.38,10.11-.31,14.18,7,18.47,14.47Q662.45,536.17,767.17,717.4C778,736.08,771.23,748,749.5,748Z" fill="#e92127"/><path d="M514.65,592.72c1,14.25,11.9,24.36,25.38,24.49,13.05.13,24.38-10.51,25.3-24.62,2.35-35.87,4.36-71.77,6.52-107.65.36-19.11-12.82-33.21-31.31-33.49-19.08-.28-33.32,14-32.34,33.62C510,521,512.25,556.85,514.65,592.72Z" fill="#e92127"/><path d="M540.24,640.39c-18.88-.09-33.3,14.51-32.95,33.34a32.23,32.23,0,0,0,33.08,32c18.28-.19,32.25-14.36,32.32-32.75A32.18,32.18,0,0,0,540.24,640.39Z" fill="#e92127"/></svg>