<svg xmlns="http://www.w3.org/2000/svg" width="1080" height="463.12" viewBox="0 0 1080 463.12"><title>kata-strofiF</title><path d="M165.3,200.86l-22-24.77-7.8,7v17.78H112.31V133.24h23.23v24.2l27.58-24.2h27.59l-32.49,29.3,35.39,38.32Z" fill="#fa4343"/><path d="M275.47,133.24v7c-6-5-15.06-8.16-25.05-8.16-17.14,0-31.25,7.8-37.8,19.62a31.85,31.85,0,0,0-1.43,27.78c5.73,13.46,20.72,22.55,39.23,22.55,10,0,19.06-3.35,25.05-8.45v7.28H298.7V133.24ZM269,179.47a16.75,16.75,0,0,1-14.15,14.87c-.24,0-.58.2-.71-.14s.19-.56.37-.8a21.66,21.66,0,0,0,4.51-9.3s0-.06,0-.09a26.52,26.52,0,0,1-5.32.54,25.79,25.79,0,0,1-10.41-2.15,42.33,42.33,0,0,0-5.34,6.64c-.31.49-.55,1-1.19.3-3.53-3.66-6-7.81-5.91-13.05a14.66,14.66,0,0,1,1.45-6,13.24,13.24,0,0,1-.38-3.21c0-5.42,3.11-10.28,8-13.51a6.39,6.39,0,0,0-.45-.91c-.14-.25-.47-.56-.19-.83s.63.09.89.25a6.23,6.23,0,0,1,1,.74,23.67,23.67,0,0,1,5.9-2.38,14.18,14.18,0,0,0-.73-1.92,21.07,21.07,0,0,0-4.69-6.57c-.23-.22-.69-.42-.47-.83s.57-.13.85-.07c6.53,1.33,12,4.07,15.89,8.87,10,1.58,17.59,8.7,17.59,17.16C275.47,171.9,273,176.3,269,179.47Z" fill="#fa4343"/><path d="M399.43,133.24v17.49H376.19v50.13H353V150.73H329.73V133.24Z" fill="#fa4343"/><path d="M452.75,179.34a5.51,5.51,0,0,0,2.09,4.91,6.66,6.66,0,0,0,8.75-.11A23.68,23.68,0,0,1,452.75,179.34Zm0,0a5.51,5.51,0,0,0,2.09,4.91,6.66,6.66,0,0,0,8.75-.11A23.68,23.68,0,0,1,452.75,179.34Zm0,0a5.51,5.51,0,0,0,2.09,4.91,6.66,6.66,0,0,0,8.75-.11A23.68,23.68,0,0,1,452.75,179.34Zm0,0a5.51,5.51,0,0,0,2.09,4.91,6.66,6.66,0,0,0,8.75-.11A23.68,23.68,0,0,1,452.75,179.34ZM490,133.24v7c-6-5-15.06-8.16-25-8.16-23.78,0-41.75,15-41.75,35s18,35,41.75,35c10,0,19.05-3.35,25-8.45v7.28h23.23V133.24Zm-13.6,50,0,.14c-1.4,5.9-7,9.51-11.71,10.23a.94.94,0,0,1-.93-.29,22.13,22.13,0,0,0,4.28-2.62,13.1,13.1,0,0,0,4.33-6.5,22.65,22.65,0,0,1-2.88.3,11.22,11.22,0,0,1-2.55,3.85c-3.14,3.07-6.86,4.38-11.18,3.17s-6.59-4.33-7.67-8.45a11.06,11.06,0,0,1,.86-8,14.61,14.61,0,0,1-2.48-8c0-7.82,6.5-14.49,15.36-16.71a34.12,34.12,0,0,1,2.47-9.07,4.9,4.9,0,0,1,.24-.52c.1-.15.19-.37.42-.25s.19.29.16.5c-.12.82-.28,1.64-.37,2.47a27.08,27.08,0,0,0,.11,6.31,25.18,25.18,0,0,1,3.39-.22c12,0,21.78,7.88,21.78,17.49C490,174.35,484.35,180.65,476.39,183.26Zm-21.55,1a6.66,6.66,0,0,0,8.75-.11,23.68,23.68,0,0,1-10.84-4.8A5.51,5.51,0,0,0,454.84,184.25Zm-2.09-4.91a5.51,5.51,0,0,0,2.09,4.91,6.66,6.66,0,0,0,8.75-.11A23.68,23.68,0,0,1,452.75,179.34Zm0,0a5.51,5.51,0,0,0,2.09,4.91,6.66,6.66,0,0,0,8.75-.11A23.68,23.68,0,0,1,452.75,179.34Zm0,0a5.51,5.51,0,0,0,2.09,4.91,6.66,6.66,0,0,0,8.75-.11A23.68,23.68,0,0,1,452.75,179.34Z" fill="#fa4343"/><path d="M250.9,274.52V240.75c-17.19,0-29.46-.21-39.63-.73-5.37-.29-10.17-.66-14.78-1.14-5.17-.48-15-1.88-20.65-1.88-30.65,0-53.16,17.19-60.88,41.17a69.07,69.07,0,0,0-1.24,9.58l.24,9.68a60.27,60.27,0,0,0,5.4,19.86c13.38,29.28,47.87,43.54,78,32.23a62.3,62.3,0,0,0,40.23-65.22,35,35,0,0,0-4.27-9.78Zm-49.54,32.55c.37,13.57-8.89,23.34-21.41,23.43a19.6,19.6,0,0,1-17.53-10.85,26.69,26.69,0,0,1-5.95-4.83,23,23,0,0,0,9.09,15.11c.58.44,1.9.83,1.45,1.55s-1.5-.16-2.17-.49a25.09,25.09,0,0,1-13.59-24.68,26.29,26.29,0,0,1,18.52-34.82c1.35-5.28.41-10.31-2.09-15.19-.7-1.37-1.43-2.72-2.13-4.1-.14-.28-.32-.63,0-1s.74-.28,1.1-.13a9.47,9.47,0,0,1,2.55,1.7,111,111,0,0,1,15.61,17.45c.74,1,1.46,2,2.17,3a26.32,26.32,0,0,1,14.14,31.13C201.22,305.29,201.31,306.2,201.36,307.07Z" fill="#fa4343"/><path d="M363.49,240.75v33.78h-30v78.81H295.93V274.53h-30V240.75Z" fill="#fa4343"/><path d="M481.94,245a67.1,67.1,0,0,0-32.14-8,71.5,71.5,0,0,0-26.09,4.7l-.07,0C400.36,250.82,386,272.09,386,297.05V413.38h37.53v-64c7,4.45,16,7.74,28.14,7.74,34.25,0,61.93-26.74,61.93-60C513.6,274.75,501,255.39,481.94,245Zm-40.71,27.18a75.61,75.61,0,0,1,12.88-15c.37-.34.75-1.07,1.29-.79.74.38.13,1.1,0,1.6a24.92,24.92,0,0,0,.12,13.34,26.28,26.28,0,0,1,10.65,46.21,40.26,40.26,0,0,1-9.89,14.83c-2.32,2.25-2.31,2.24-3.22-.89-.78-2.73-1.49-5.49-2.1-8.26-.38,0-.76,0-1.15,0a25,25,0,0,1-2.6-.13c.43,3.21,1.11,6.39,1.77,9.58.09.46.49,1-.06,1.34s-.78-.26-1.08-.52a49.45,49.45,0,0,1-12-14.28,26.29,26.29,0,0,1,5.4-47.1Zm8.2-1.44h0Z" fill="#fa4343"/><path d="M656.21,295.17c0,34.24-25.8,61.92-63.8,61.92-39.64,0-63.8-27.68-63.8-61.92s23.69-61.92,63.8-61.92C629.94,233.25,656.21,260.92,656.21,295.17Zm-37.53,0c0-15.48-11.73-28.15-26.27-28.15s-26.27,12.67-26.27,28.15,11.73,28.14,26.27,28.14S618.68,310.65,618.68,295.17Z" fill="#fa4343"/><path d="M967.69,289.54V413.38H930.17V293.29c0-18.76-10.56-22.52-18.77-22.52-7.74,0-18.76,7-18.76,26.27v56.3H855.11V240.75h37.53V252c5.63-8.68,16.42-15,30-15C946.35,237,967.69,254.36,967.69,289.54Z" fill="#fa4343"/><path d="M871.73,131.2c-7.89-32.59-46.33-57.15-89.11-49v28.22c74.58-18.67,87.46,72.64,24.79,75-16.58-.75-38.77-7.27-69.25.61-92.68,18.17-95,166.07-4.39,171,3.48-5.59.15,55.58,1.24,56.42h37.54c1.89-1-3.88-59.24,2.42-56.55,48.25-4.58,72.84-43.86,56.22-82.53-14.1-33.14-74.76-42.85-96.18-35.1v84.12c-65.9-15.85-41-99,5.56-110.81,25.67-7.51,43.78,3.77,69.47,1C851.69,210.22,880.18,168.69,871.73,131.2ZM772.55,270.77c36.73,4.78,33.45,49.15,0,52.55Z" fill="#fa4343"/><path d="M793.67,140.23c-23-11.86-48.84-25.52-72.48-38.53C830,14.28,774.32,46.13,800,130.78,801.32,133.32,800.61,142,793.67,140.23Z" fill="#fa4343"/><path d="M503.2,158.93a43,43,0,0,0-3.28-9.85A41.88,41.88,0,0,0,490,135.81v4.43c-6-5-15.06-8.16-25-8.16-23.78,0-41.75,15-41.75,35s18,35,41.75,35c10,0,19.05-3.35,25-8.45v4.58c5.59-5,9.64-11.77,12.22-20,.67-2.18.84-4.47,1.38-6.67v-8.69C503.32,161.5,503.46,160.19,503.2,158.93ZM476.36,183.4c-1.4,5.9-7,9.51-11.71,10.23a.94.94,0,0,1-.93-.29,22.13,22.13,0,0,0,4.28-2.62,13.1,13.1,0,0,0,4.33-6.5,14,14,0,0,0-.51-8.81,25.5,25.5,0,0,0-2.51-4.73,41,41,0,0,1-4.74-11.32,22.26,22.26,0,0,0,1,5.49,50.94,50.94,0,0,0,3.59,8.88,13.48,13.48,0,0,1,.33,10.79,11.22,11.22,0,0,1-2.55,3.85c-3.14,3.07-6.86,4.38-11.18,3.17s-6.59-4.33-7.67-8.45a11.06,11.06,0,0,1,.86-8,9.15,9.15,0,0,1,3.76-3.86c4-2.13,8-1.1,9.84,2.48a6.53,6.53,0,0,1-2.73,8.2c-.25.12-.56.39-.84.08s0-.56.19-.78c.84-1.31,1.62-2.59,1-4.26a3.1,3.1,0,0,0-4.69-1.77,5.25,5.25,0,0,0-2.68,4.15,5.51,5.51,0,0,0,2.09,4.91,6.66,6.66,0,0,0,8.75-.11,7.5,7.5,0,0,0,2.25-4.22,12.07,12.07,0,0,0-.53-6.38c-2.3-6.46-3.93-13.06-3.76-20,0-1.09.11-2.17.24-3.23a34.12,34.12,0,0,1,2.47-9.07,4.9,4.9,0,0,1,.24-.52c.1-.15.19-.37.42-.25s.19.29.16.5c-.12.82-.28,1.64-.37,2.47a27.08,27.08,0,0,0,.11,6.31,42.12,42.12,0,0,0,4.84,13.9c1.65,3.17,3.89,6,5.38,9.27a16,16,0,0,1,1.35,10.31Z" fill="#fa4343"/><path d="M449.42,270.78h0Zm0,0h0Zm59.24,15.09A59.18,59.18,0,0,0,481.94,245a67.1,67.1,0,0,0-32.14-8,71.5,71.5,0,0,0-26.09,4.7l-.07,0a59.41,59.41,0,0,0-32.52,63.06c5,31.68,35.09,54,66.72,49.45a59.6,59.6,0,0,0,50.29-46.84c.41-1.94.75-3.92,1.12-5.89V289A9.08,9.08,0,0,1,508.66,285.87Zm-52.39,46.57c-2.32,2.25-2.31,2.24-3.22-.89-.78-2.73-1.49-5.49-2.1-8.26-.31-1.38-.6-2.77-.87-4.16a3.18,3.18,0,0,1,.62-2.72,30.07,30.07,0,0,1,9.36-8.57,29.23,29.23,0,0,0-10.75,6.45,119.5,119.5,0,0,1-1.4-14.48,2.2,2.2,0,0,1,.83-1.54,19.73,19.73,0,0,1,8.71-5.55,13.35,13.35,0,0,0-9.3,3.59c-.51-.22-.29-.67-.29-1,0-3.67-.06-7.33.28-11a1.88,1.88,0,0,1,1-1.55c1.73-1.14,3.72-1.5,5.65-2.13a17,17,0,0,0-5.32.61c-1,.25-1.09,0-1-.91q.6-4.77,1-9.58h0a47.51,47.51,0,0,0-1.88,8.24c-.37,2.22-.34,2.23-2.52,2.09a12.66,12.66,0,0,0-4.19.34c1.55.41,3.13.51,4.63,1.06a1.67,1.67,0,0,1,1.3,2.15,91.17,91.17,0,0,0-.91,10.95c0,1-.19,1.49-1.42,1a13.08,13.08,0,0,0-6.82-.93,18,18,0,0,1,7,3.23c.5.39,1.08.74,1.06,1.53a140.77,140.77,0,0,0,.57,14.57c-2.31-.83-4.43-1.83-6.82-1.92a42.94,42.94,0,0,1,5.18,3.37,5.62,5.62,0,0,1,2.33,4.24c.08.85.18,1.68.29,2.52.43,3.21,1.11,6.39,1.77,9.58.09.46.49,1-.06,1.34s-.78-.26-1.08-.52a49.45,49.45,0,0,1-12-14.28A38.91,38.91,0,0,1,431.67,307a39.43,39.43,0,0,1,1.93-19,67.47,67.47,0,0,1,7.63-15.77,75.61,75.61,0,0,1,12.88-15c.37-.34.75-1.07,1.29-.79.74.38.13,1.1,0,1.6a24.92,24.92,0,0,0,.12,13.34,27.79,27.79,0,0,0,3.33,7.2c2.57,4,5.32,7.88,7,12.36a37.14,37.14,0,0,1,.29,26.65A40.26,40.26,0,0,1,456.27,332.44Zm-6.85-61.66h0Zm0,0h0Z" fill="#fa4343"/><path d="M237.58,284.3a35,35,0,0,0-4.27-9.78h2.41a.29.29,0,0,0,0-.09A62.21,62.21,0,0,0,211.27,240c-5.37-.29-10.17-.66-14.78-1.14-5.17-.48-15-1.88-20.65-1.88-30.65,0-53.16,17.19-60.88,41.17a69.07,69.07,0,0,0-1.24,9.58l.24,9.68a60.27,60.27,0,0,0,5.4,19.86c13.38,29.28,47.87,43.54,78,32.23A62.3,62.3,0,0,0,237.58,284.3ZM180,330.5a19.6,19.6,0,0,1-17.53-10.85,19.2,19.2,0,0,1-1.89-6.55c-.89-8.94,6.53-17.47,15.16-17.4a12.63,12.63,0,0,1,12.1,9.77c1.26,6.4-4.51,12.54-10.47,11.07a6.8,6.8,0,0,1-5.18-4.75,5.39,5.39,0,0,1,1.4-5.54A4.34,4.34,0,0,1,177.6,305c2.32.4,3.26,2.06,2.44,4.26-.08.22-.2.42-.29.62a2,2,0,0,0,1,2.88c1.26.63,2.18,0,2.83-1.11a7.2,7.2,0,0,0-5.9-10.9,8.79,8.79,0,0,0-9,5.16,10.14,10.14,0,0,0,1.88,11.42c6.4,6.66,17.26,4,20.65-5.06,2.88-7.69-1.22-16.28-9.31-19.49-9.37-3.7-19.81,1-23.89,10.81a21.52,21.52,0,0,0-1.54,11.26,23,23,0,0,0,9.09,15.11c.58.44,1.9.83,1.45,1.55s-1.5-.16-2.17-.49a25.15,25.15,0,0,1-10.37-34.89,99.61,99.61,0,0,1,8-11.49c2.78-3.63,5.44-7.34,6.89-11.76.15-.46.28-.92.39-1.36,1.35-5.28.41-10.31-2.09-15.19-.7-1.37-1.43-2.72-2.13-4.1-.14-.28-.32-.63,0-1s.74-.28,1.1-.13a9.47,9.47,0,0,1,2.55,1.7,111,111,0,0,1,15.61,17.45c.74,1,1.46,2,2.17,3A89.32,89.32,0,0,1,198.79,295a46,46,0,0,1,2.29,9.32c.14.94.23,1.85.28,2.72C201.73,320.64,192.47,330.41,180,330.5Z" fill="#fa4343"/><path d="M209.48,164.44v6.5a.69.69,0,0,0,.2,0v-6.56Z" fill="#fa4343"/><path d="M283.85,140.45a44.78,44.78,0,0,0-7.75-7.21h-.63v7c-6-5-15.06-8.16-25.05-8.16-17.14,0-31.25,7.8-37.8,19.62a42.46,42.46,0,0,0-2.93,12.71.93.93,0,0,1,.34.7,49.53,49.53,0,0,1,0,5.17.93.93,0,0,1-.34.7,39.92,39.92,0,0,0,1.5,8.5c5.73,13.46,20.72,22.55,39.23,22.55,10,0,19.06-3.35,25.05-8.45v7.28h2.22a42.18,42.18,0,0,0,16.11-32.75A41.16,41.16,0,0,0,283.85,140.45Zm-29,53.89c-.24,0-.58.2-.71-.14s.19-.56.37-.8a21.66,21.66,0,0,0,4.51-9.3s0-.06,0-.09c1.61-8.08-1-14.77-6.89-20.33-.19-.2-.43-.6-.74-.34s0,.56.11.83c1.41,3.16,1.92,6.35.35,9.62a12,12,0,0,1-3.74,4.38A43.17,43.17,0,0,0,237.94,189c-.31.49-.55,1-1.19.3-3.53-3.66-6-7.81-5.91-13.05a14.66,14.66,0,0,1,1.45-6,21.16,21.16,0,0,1,2.35-3.87c1.7-2.24,3.66-4.29,4.88-6.89a7.1,7.1,0,0,0,.37-6,6.39,6.39,0,0,0-.45-.91c-.14-.25-.47-.56-.19-.83s.63.09.89.25a6.23,6.23,0,0,1,1,.74c1.59,1.47,2.14,3.52,2.48,5.66a15.49,15.49,0,0,1,.1,4.51c0,.25-.19.59.13.73s.54-.22.7-.45c2.93-4,3.91-8.29,2.49-12.83a14.18,14.18,0,0,0-.73-1.92,21.07,21.07,0,0,0-4.69-6.57c-.23-.22-.69-.42-.47-.83s.57-.13.85-.07c6.53,1.33,12,4.07,15.89,8.87a24.62,24.62,0,0,1,3.5,5.94,21,21,0,0,1,1.55,8.71,34.57,34.57,0,0,1-.41,5.21c0,.38-.39,1,.12,1.12s.54-.55.74-.89c1.66-2.91,3.7-5.44,6.89-6.79.49-.21,1-.36,1.53-.53.21-.06.47-.16.63.07s0,.44-.17.62c-3.45,3.8-3.69,8.4-3.27,13.18a15.18,15.18,0,0,1,0,2.94A16.75,16.75,0,0,1,254.82,194.34Z" fill="#fa4343"/><rect x="536.14" y="186.65" width="54.59" height="14.31" rx="2.78" fill="#fa4343"/></svg>