<?xml version="1.0" encoding="UTF-8"?>
<svg id="Layer_1" data-name="Layer 1" xmlns="http://www.w3.org/2000/svg" viewBox="0 0 1080 1080">
    <defs>
        <style>
            .cls-1{fill:gray;}
            .cls-2{fill:#cfcfcf;}
            .cls-3{fill:#818181;}
            .cls-4{fill:#d0d0d0;}
            .cls-5{fill:#828282;}
            .cls-6{fill:#d2d2d2;}
            .cls-7{fill:#cecece;}
            .cls-8{fill:#858585;}
            .cls-9{fill:#cdcdcd;}
            .cls-10{fill:#878787;}
            .cls-11{fill:#939393;}
            .cls-12{fill:#d1d1d1;}
            .cls-13{fill:#8f8f8f;}
            .cls-14{fill:#8b8b8b;}
            .cls-15{fill:#969696;}
            .cls-16{fill:#8e8e8e;}
            .cls-17{fill:#8c8c8c;}
            .cls-18{fill:#909090;}
            .cls-19{fill:#989898;}
            .cls-20{fill:#929292;}
            .cls-21{fill:#a1a1a1;}
            .cls-22{fill:#fdfdfd;}
        </style>
    </defs>
    <title>thess</title>
    <path id="thessaloniki" class="cls-1" d="M500.77,239.59c-3.54.95-6.91,2.29-9.57,4.95-4.32,4.32-3.62,9.67,1.78,12.46,2.58,1.33,3.68,3.64,4.72,6,1.71,3.91,4.38,6.44,8.83,6.41,2.16,0,3,1.27,4,3.09a15.5,15.5,0,0,1-5,1.25c-3.66.51-5.15,2.43-4.12,6,2.08,7.28,6.44,11.85,14.08,13.12,4.38.73,4.4.62,3.73,5.65-1.09.27-1.59-.61-2.11-1.21-2.22-2.59-4.76-4.24-8.38-3.42a3.67,3.67,0,0,1-2.14-.25c-2.27-1-4.24-.29-6.21.83s-4,2-6.22,1c-1.2-.49-1.82.06-2.59.85a9.34,9.34,0,0,0,.81,14.18c1.37,1.1,2.76,2,3.43,3.81A4,4,0,0,0,498.6,317c3.31.59,5.86,3.34,9.42,3.16a3,3,0,0,1,2.23,1.26,13.61,13.61,0,0,0,6.1,4c1.69.54,2.33,1.7,1,3.32a1.54,1.54,0,0,0-.15,2c1.42,1.53,2.65,2.87.58,4.92-.51.51.26,1.66,1.17,2,1.35.51,2.07,1.83,1.28,2.65-1.83,1.91-2,4.65-3.78,6.53-1.22,1.29-3.51,1.82-3.74.58-.37-2-2.47-2-3-3.75-.47-1.49-2.94-1.69-3.94-3.25a4.19,4.19,0,0,0-2.36-1.79c-3.4-1.08-4.76-2.84-4.37-6.14.21-1.76-.52-2.82-1.29-4.27-2.35-4.42-5.65-8.11-8.43-12.18-2.47-3.6-5.68-5.71-10.2-5.64a16.17,16.17,0,0,1-9.09-2.6,14.52,14.52,0,0,0-8.26-2.39,9,9,0,0,0-8.07,12c.52,1.36,1,2.72,1.48,4.1.29.87.66,1.86,1.6,1.86,2.93,0,3.74,2.37,5,4.22.58.84,1.21,1.65,1.72,2.53,4.37,7.59,11.59,11.1,19.49,13.65,1.34.43,3.07.33,3.37,2.21.57,3.55,3.09,5,6.35,5.81a4.07,4.07,0,0,1-4.11,1.32c-4-.66-8.07-1.12-11.74-3.12-1.14-.62-2.41-1-3.58-1.61-4.77-2.44-9.66-4-15.07-2.24-.2.06-.52-.19-.84-.32,1.59-5.32-1.37-9.44-4.07-13.36-1.6-2.31-2.95-4.06-1.69-7a12.37,12.37,0,0,0,.79-5.57c-.47-6.13-.63-8.42-7.21-11.08-3.32-1.34-6.64-2.91-10.26-3.42a6,6,0,0,1-3-1.67c-2.5-2.14-5.94-2.55-8.45-4.34s-3.7-4.76-6.37-6.38a11.12,11.12,0,0,1-2.21-1.37c-1.47-1.56-5,1.51-5.36-2.52-.22-2.22-2.6-3.51-3-5.75-.23-1.42-1.31-2.22-2.11-3.24s-2-1.71-1.48-2.95c.55-1.42,2.14-1.21,3.38-1.34,1.59-.17,3.2-.19,4.8-.3a6.67,6.67,0,0,0,4.85-2.55c2.74-3.23,2.8-4-.48-7-.9-.82-.83-1.57-.91-2.62-.3-4-3.37-6.63-6.92-6.18-1.92.25-3,.89-2.92,3.35.22,4.47-2,6.29-6.72,6.06A4.7,4.7,0,0,0,393.7,270c-.29.81-.14,1.89-.62,2.49-.93,1.14-1.74,2.56-3.88,1.25-2.49-1.5-4-.44-4.27,2.4s-.26,2.93-3.26,2.84a4.73,4.73,0,0,0-3,.47c-1,.69-2,1.45-.7,2.73a5.72,5.72,0,0,1,1.81,3.88A7.09,7.09,0,0,0,383,292c2.43,1.65,2,3.33.77,5.15a32.87,32.87,0,0,0-4.63,10.77A58.33,58.33,0,0,1,375,319.3a7.65,7.65,0,0,0,0,6.73,8.53,8.53,0,0,1,1.13,3.73c-.16,8.27,4.53,13.27,11.34,16.83,1.64.86,3.08,1.78,2.35,4a4.27,4.27,0,0,1-4.79,1.29c-3.13-1.1-5.94-.55-8.93.35-4.3,1.28-7.87-.22-10.2-3.91a21.94,21.94,0,0,0-7-7.05c-4.14-2.6-6.38-6.26-6-11.32.2-2.45-.17-4.87-2.79-5.82s-4.71.67-6.5,2.51c-.51.52-.86,1.17-1.35,1.71-1,1.1-2.07,2.26-3.71,1.7-1.81-.62-2.07-2.26-2.13-3.93-.15-4.89-.15-4.92-5.52-5-1,0-1.71-.32-2-1.28a3.85,3.85,0,0,1,1.92-4.86c3.07-1.5,3.88-4.06,4.18-7.08.08-.87.46-1.78-.34-2.44-4.73-4-6.89-9.36-8.65-15-.49-1.58-1.76-1.17-2.91-1-1.87.3-3.54-.06-4.61-1.73-1.23-1.93-3.28-2.8-4.94-4.17-3.93-3.23-7.85-6.61-6.79-12.58a3.58,3.58,0,0,0-.53-2.51,9.47,9.47,0,0,1-.68-8.41c.77-2.11-.15-3-2.05-3.34a33.14,33.14,0,0,1-3.83-.86c-4.82-1.48-5.09-1.74-4.14-6.62a2.83,2.83,0,0,0-1.37-3.28,7.56,7.56,0,0,1-2.91-3.73c-.85-2.32-2.33-4.82-1.85-7.07.61-2.83,4.07-1.26,6-2.32.5-.27,1.11-.33,1.64-.57,3.4-1.49,3.6-2.65.65-5-2.09-1.67-3.16-3.42-1.45-5.93.53-.69,1.53-1.39,1.51-2.06-.07-3.22,2-4.78,4.14-6.66,2.49-2.14,4.43-4.94,6.59-7.47a3.73,3.73,0,0,0,1-2.81c-.32-3,1.65-4.41,3.69-5.92,3.24-2.39,7.49-2.27,10.8-4.5.52-.35.94.43,1.39.76,3.72,2.77,5.17,3.59,9.3-.57a7.45,7.45,0,0,1,7.66-1.85c1.82.49,3.56,1.29,5.48,1.37.59,0,1.4.15,1.48.71.52,3.49,3,2,4.74,1.76a7.31,7.31,0,0,1,5.73,1.08c2.19,1.55,4.82,1.21,7.18.63a22.93,22.93,0,0,1,6.9-.49c4.69.28,7.16-1.47,8.85-6,.8-2.14,1.34-2.27,2.76-.65.19.22.3.51.48.73,1.2,1.42,2.25,3.47,4.41,2.89,1.89-.5,2.11-2.65,2.49-4.31a65.48,65.48,0,0,0,1.18-11.26,34.48,34.48,0,0,1,.36-4.78c.67-3.5,2.64-5.28,6.23-5.63a44.55,44.55,0,0,1,10.45.36c6,.85,12,1.89,18.06,2.87a17.54,17.54,0,0,0,6.49-.42c2.87-.6,4.65-1.94,5-5.12.29-2.65,4.46-5.69,6.95-5.5a4,4,0,0,1,2.51,1.55c2.45,2.43,3.4,2.75,6,1,6.25-4.35,12.52-3.61,18.8-.37a11.88,11.88,0,0,0,5.86,1.33,4.44,4.44,0,0,1,1.37,2.63,8.49,8.49,0,0,0,5.58,6.58c3.09,1.17,4.6,3,3.27,6.63-1.56,4.28,2,6.47,4.51,9a40.19,40.19,0,0,1,4.64,5.2c3.45,5.28,9.8,5.86,14.55,9a.49.49,0,0,0,.43,0c5.28-2.27,7.67,1.25,10.07,4.91a15.78,15.78,0,0,0,2.76,2.78c5,4.6,5.19,11.66,0,16.25a79.61,79.61,0,0,0-7,7.07c-4.5,5.17-10.59,6.84-17.17,7.23A7.68,7.68,0,0,0,500.77,239.59Z"/>
    </defs>
    <title>thess</title>
    <path id="thessaloniki" class="cls-1" d="M500.77,239.59c-3.54.95-6.91,2.29-9.57,4.95-4.32,4.32-3.62,9.67,1.78,12.46,2.58,1.33,3.68,3.64,4.72,6,1.71,3.91,4.38,6.44,8.83,6.41,2.16,0,3,1.27,4,3.09a15.5,15.5,0,0,1-5,1.25c-3.66.51-5.15,2.43-4.12,6,2.08,7.28,6.44,11.85,14.08,13.12,4.38.73,4.4.62,3.73,5.65-1.09.27-1.59-.61-2.11-1.21-2.22-2.59-4.76-4.24-8.38-3.42a3.67,3.67,0,0,1-2.14-.25c-2.27-1-4.24-.29-6.21.83s-4,2-6.22,1c-1.2-.49-1.82.06-2.59.85a9.34,9.34,0,0,0,.81,14.18c1.37,1.1,2.76,2,3.43,3.81A4,4,0,0,0,498.6,317c3.31.59,5.86,3.34,9.42,3.16a3,3,0,0,1,2.23,1.26,13.61,13.61,0,0,0,6.1,4c1.69.54,2.33,1.7,1,3.32a1.54,1.54,0,0,0-.15,2c1.42,1.53,2.65,2.87.58,4.92-.51.51.26,1.66,1.17,2,1.35.51,2.07,1.83,1.28,2.65-1.83,1.91-2,4.65-3.78,6.53-1.22,1.29-3.51,1.82-3.74.58-.37-2-2.47-2-3-3.75-.47-1.49-2.94-1.69-3.94-3.25a4.19,4.19,0,0,0-2.36-1.79c-3.4-1.08-4.76-2.84-4.37-6.14.21-1.76-.52-2.82-1.29-4.27-2.35-4.42-5.65-8.11-8.43-12.18-2.47-3.6-5.68-5.71-10.2-5.64a16.17,16.17,0,0,1-9.09-2.6,14.52,14.52,0,0,0-8.26-2.39,9,9,0,0,0-8.07,12c.52,1.36,1,2.72,1.48,4.1.29.87.66,1.86,1.6,1.86,2.93,0,3.74,2.37,5,4.22.58.84,1.21,1.65,1.72,2.53,4.37,7.59,11.59,11.1,19.49,13.65,1.34.43,3.07.33,3.37,2.21.57,3.55,3.09,5,6.35,5.81a4.07,4.07,0,0,1-4.11,1.32c-4-.66-8.07-1.12-11.74-3.12-1.14-.62-2.41-1-3.58-1.61-4.77-2.44-9.66-4-15.07-2.24-.2.06-.52-.19-.84-.32,1.59-5.32-1.37-9.44-4.07-13.36-1.6-2.31-2.95-4.06-1.69-7a12.37,12.37,0,0,0,.79-5.57c-.47-6.13-.63-8.42-7.21-11.08-3.32-1.34-6.64-2.91-10.26-3.42a6,6,0,0,1-3-1.67c-2.5-2.14-5.94-2.55-8.45-4.34s-3.7-4.76-6.37-6.38a11.12,11.12,0,0,1-2.21-1.37c-1.47-1.56-5,1.51-5.36-2.52-.22-2.22-2.6-3.51-3-5.75-.23-1.42-1.31-2.22-2.11-3.24s-2-1.71-1.48-2.95c.55-1.42,2.14-1.21,3.38-1.34,1.59-.17,3.2-.19,4.8-.3a6.67,6.67,0,0,0,4.85-2.55c2.74-3.23,2.8-4-.48-7-.9-.82-.83-1.57-.91-2.62-.3-4-3.37-6.63-6.92-6.18-1.92.25-3,.89-2.92,3.35.22,4.47-2,6.29-6.72,6.06A4.7,4.7,0,0,0,393.7,270c-.29.81-.14,1.89-.62,2.49-.93,1.14-1.74,2.56-3.88,1.25-2.49-1.5-4-.44-4.27,2.4s-.26,2.93-3.26,2.84a4.73,4.73,0,0,0-3,.47c-1,.69-2,1.45-.7,2.73a5.72,5.72,0,0,1,1.81,3.88A7.09,7.09,0,0,0,383,292c2.43,1.65,2,3.33.77,5.15a32.87,32.87,0,0,0-4.63,10.77A58.33,58.33,0,0,1,375,319.3a7.65,7.65,0,0,0,0,6.73,8.53,8.53,0,0,1,1.13,3.73c-.16,8.27,4.53,13.27,11.34,16.83,1.64.86,3.08,1.78,2.35,4a4.27,4.27,0,0,1-4.79,1.29c-3.13-1.1-5.94-.55-8.93.35-4.3,1.28-7.87-.22-10.2-3.91a21.94,21.94,0,0,0-7-7.05c-4.14-2.6-6.38-6.26-6-11.32.2-2.45-.17-4.87-2.79-5.82s-4.71.67-6.5,2.51c-.51.52-.86,1.17-1.35,1.71-1,1.1-2.07,2.26-3.71,1.7-1.81-.62-2.07-2.26-2.13-3.93-.15-4.89-.15-4.92-5.52-5-1,0-1.71-.32-2-1.28a3.85,3.85,0,0,1,1.92-4.86c3.07-1.5,3.88-4.06,4.18-7.08.08-.87.46-1.78-.34-2.44-4.73-4-6.89-9.36-8.65-15-.49-1.58-1.76-1.17-2.91-1-1.87.3-3.54-.06-4.61-1.73-1.23-1.93-3.28-2.8-4.94-4.17-3.93-3.23-7.85-6.61-6.79-12.58a3.58,3.58,0,0,0-.53-2.51,9.47,9.47,0,0,1-.68-8.41c.77-2.11-.15-3-2.05-3.34a33.14,33.14,0,0,1-3.83-.86c-4.82-1.48-5.09-1.74-4.14-6.62a2.83,2.83,0,0,0-1.37-3.28,7.56,7.56,0,0,1-2.91-3.73c-.85-2.32-2.33-4.82-1.85-7.07.61-2.83,4.07-1.26,6-2.32.5-.27,1.11-.33,1.64-.57,3.4-1.49,3.6-2.65.65-5-2.09-1.67-3.16-3.42-1.45-5.93.53-.69,1.53-1.39,1.51-2.06-.07-3.22,2-4.78,4.14-6.66,2.49-2.14,4.43-4.94,6.59-7.47a3.73,3.73,0,0,0,1-2.81c-.32-3,1.65-4.41,3.69-5.92,3.24-2.39,7.49-2.27,10.8-4.5.52-.35.94.43,1.39.76,3.72,2.77,5.17,3.59,9.3-.57a7.45,7.45,0,0,1,7.66-1.85c1.82.49,3.56,1.29,5.48,1.37.59,0,1.4.15,1.48.71.52,3.49,3,2,4.74,1.76a7.31,7.31,0,0,1,5.73,1.08c2.19,1.55,4.82,1.21,7.18.63a22.93,22.93,0,0,1,6.9-.49c4.69.28,7.16-1.47,8.85-6,.8-2.14,1.34-2.27,2.76-.65.19.22.3.51.48.73,1.2,1.42,2.25,3.47,4.41,2.89,1.89-.5,2.11-2.65,2.49-4.31a65.48,65.48,0,0,0,1.18-11.26,34.48,34.48,0,0,1,.36-4.78c.67-3.5,2.64-5.28,6.23-5.63a44.55,44.55,0,0,1,10.45.36c6,.85,12,1.89,18.06,2.87a17.54,17.54,0,0,0,6.49-.42c2.87-.6,4.65-1.94,5-5.12.29-2.65,4.46-5.69,6.95-5.5a4,4,0,0,1,2.51,1.55c2.45,2.43,3.4,2.75,6,1,6.25-4.35,12.52-3.61,18.8-.37a11.88,11.88,0,0,0,5.86,1.33,4.44,4.44,0,0,1,1.37,2.63,8.49,8.49,0,0,0,5.58,6.58c3.09,1.17,4.6,3,3.27,6.63-1.56,4.28,2,6.47,4.51,9a40.19,40.19,0,0,1,4.64,5.2c3.45,5.28,9.8,5.86,14.55,9a.49.49,0,0,0,.43,0c5.28-2.27,7.67,1.25,10.07,4.91a15.78,15.78,0,0,0,2.76,2.78c5,4.6,5.19,11.66,0,16.25a79.61,79.61,0,0,0-7,7.07c-4.5,5.17-10.59,6.84-17.17,7.23A7.68,7.68,0,0,0,500.77,239.59Z"/>
    <path id="thessaly" class="cls-2" d="M389.89,351.66a5.26,5.26,0,0,1,.82,1.47c.68,4.22,3.31,7,6.68,9.27,5,3.35,7.95,7.93,8.35,14a17.2,17.2,0,0,0,1.53,5.43,45.8,45.8,0,0,1,3.08,8.61c1.16,6.24,5.31,9.76,10.73,12.22a27.18,27.18,0,0,1,5.41,2.79c1.67,1.26,3.13,2.6,3.59,4.74a7,7,0,0,0,1.53,3.1q6.54,7.85,13.1,15.68c.74.88,1.71,1.55,2,2.8,1.1,5,3.56,9.51,6,14,.92,1.69.71,2.8-.73,4.14-1.89,1.74-3.82,3-6.48,3.18a14.54,14.54,0,0,0-3.36.85c-.4.12-1.08.49-1.05.65.78,4.54-2.93,2.57-4.75,3.3a23.36,23.36,0,0,0-3.24,1.25c-2.4,1.39-4.66,1.1-7.41-.27,2-1.67.46-5.34,4.09-5.8,1.05,1.93-.65,3.51-.14,5.6,3.13-1.38,6.46-2.14,8.42-5.29.08-.12.07-.37.15-.39,1.85-.56,3.27-1.44,3.37-3.65s-1.25-3.5-2.14-5.14a11.49,11.49,0,0,1-1.53-3.1c-1.35-6.28-5.11-9.72-11.24-10-2.71-.11-4.81-.53-5.69-3.49a3.24,3.24,0,0,0-3.7-2.37,37.28,37.28,0,0,1-3.91-.21c.37,2.56-2.14,4.55-.74,7.59-2.34.41-4.46.72-6.54,1.17-3.12.67-4.14,1.87-4.48,5-.4,3.61.7,7.71,3.42,12.79.27,0,.62.05.79-.09,3-2.63,3.81-2.42,4.77,1.26.32,1.25.17,2.65,1.09,3.71.44.51.91,1.58,1.63,1.09,2.33-1.57,2.6.46,3.32,1.72.5.88.91,1.82,1.39,2.71.95,1.75.91,3.15-.86,4.52s-1.79,1.62-1.33,4.36c1.88,0,3.09-1.47,4.61-2.21a11,11,0,0,1,5-1.29c-3.47,1.77-4.67,5-5.87,8.22-2.89.87-5.91,1.07-8.81,1.93-1.51.45-3.45.55-4.69-.39-3.95-3-8.9-2.24-13.21-3.79-1.08-.39-2.45-.33-3.28-1.1-4.15-3.84-9.11-3.6-14.26-3.37s-7.17-1.56-7.37-6.88c-.11-2.86-.35-4.74-3.9-4.58-2.34.1-3.78-1.51-4-3.83-.32-3.17-2.36-4.92-4.91-6.18-3.13-1.54-6.44-2.7-9.51-4.38-1.7-.93-3-.51-4.19.92s-2.68,2.68-3.89,4.13c-1.18,1.64-2.72,3.05-3.42,5-1.57,4.33-4.2,7.39-8.79,8.9-3.14,1-5.07,4.21-8.29,5.43-4.65,1.75-5.74,1.2-6.24-3.74-.55-5.4-7.82-9.08-12.47-6.29-.87.52-1.69,1.12-2.55,1.67-4.72,1.54-6.16.7-6.61-4.09-.43-4.58-4.22-7.79-4.86-12.32-.17-1.23-1.65-1.42-2.93-1-1.81.55-3.77.74-5.43,1.59-3.11,1.6-5.7,3.87-9.88,2.73-1.84-.5-3.83,2.24-5.56,3.81-1.41,1.28-2.77,3.61-5.1,2a5.73,5.73,0,0,1-2.35-6.91,68.25,68.25,0,0,1,3-6.31c2-4.33.49-7.54-4.13-8.26-4.8-.76-8.28-2.69-10.29-7.51-1.26-3-4.43-4.74-5.34-8.6-1.06-4.49-.85-8.82-.95-13.24,0-1.19.25-2.43-.88-3.16-2.68-1.73-2.91-4.5-3.34-7.23-.84-5.27,1.35-7.37,6.61-6.29.68.14,1.31.67,2.25.22.77-2.35-.16-4.71-.45-7.1-.82-6.82,3.43-10.6,10.07-9.21,3,.63,5.67-.68,8-2.55,1.24-1,2.25-2.27,3.45-3.33,3-2.49,6.49-2.52,10-2,3,.44,6.13.41,9,1.42,8.29,2.9,16.77,2.29,25.28,1.63,1.95-.16,3.15-1,2.72-3-.48-2.24-.28-4.65-1.78-6.67a2.68,2.68,0,0,1,.71-4.18c7.59-4.67,10.46-13.26,16.31-19.36,2.17-3.41,2.83-7.86,7.71-9.37a8.73,8.73,0,0,1,4.88-.31c1.56.36,2.46.89,1.67,2.63a2.72,2.72,0,0,0-.41,1.24c.18,2-1.16,4.8,1.53,5.79,2.26.82,3-1.68,4.05-3.13a9.37,9.37,0,0,1,4-3.27c3.38-1.38,6.66.29,6.39,3.9-.54,7.25,2.65,11.87,8.77,15.08,1.85,1,2.84,2.79,3.86,4.59,2.61,4.6,5.88,5.77,10.95,4.28,2.6-.77,5.15-1.85,7.88.06C386.08,352.7,388.08,350.28,389.89,351.66Z"/>
    <path id="attica" class="cls-3" d="M433.52,602.05c0-1.17-.75-2-1.22-3-1.08-.62-1.43-1.84-2.21-2.71l.06.08c-.66-.87-1.12-1.86-1.81-2.7l.05.07c.46-1.59,1.91-1.56,3.13-1.89a21.68,21.68,0,0,0,8.14-3.76c2.15-1.69,2.34-2,.54-3.89a20.3,20.3,0,0,0-2-1.62c.1-1.32,1.22-1.09,1.95-1.2,2.53-.41,2.12-1.8,1.26-3.4,4.15-.14,6.5-1.8,6.44-6.44,0-2.19,4.55-4.87,6.69-4.42a2.64,2.64,0,0,1,2.19,3.58c-.76,2.89.38,4.28,3.2,4.18,2.55-.09,3.44,1.8,4.66,3.38,1.7,4.17,6,4.2,9.34,5.57,2.27.94,7.12-3.82,7.25-6.79.07-1.74.46-3.46.43-5.18-.16-8.46,6.05-12.73,13.19-13.93a5.09,5.09,0,0,1,4.87-.3c4.41,1.84,8.64,4.21,13.4,5.17a4,4,0,0,1,2.54,1.6c2.53,3.63,6.25,6.05,9.31,9.13a4.57,4.57,0,0,1-1.45,7.64c-6,2.77-6,2.77-4.39,9.15.61,2.38.93,4.86,2.38,7a3.29,3.29,0,0,1,.11,3.72c-1.32,2.13-1.31,4.34-.94,6.7.13.88,0,1.41,1,2,2.29,1.42,2.2,1.55-.24,3.14-.24.16-.45.36-.67.54a1.75,1.75,0,0,0,1.13,1.69c2.78,1.17,4.32,2.87,3,6.07-.52,1.24.56,1.74,1.27,2.46,2.11,2.17,2.68,5.2.86,7.44s-1.63,4.49-1.53,6.88c.17,3.66-1.78,5.25-5.17,4.07a18.22,18.22,0,0,0-2.89-1c-2.27-.39-3.22-1.69-3.18-3.93,0-1.41.33-3-1.84-3.31-1-.16-1-1.32-1.14-2.16-1-4.87-4.21-7.72-8.61-9.67-1.32-.59-1.75-.86-2.62.55-1,1.67-2.18.93-2.81-.55a138.74,138.74,0,0,0-7.31-13.73c-.74-1.32-1.71-2.19-3.09-1.7-2,.7-3.59-.35-4.75-1.23a11.1,11.1,0,0,0-5.5-2.18c-.5-2,1.26-2.57,2.06-3.63a3.74,3.74,0,0,0,.48-4.43c-.79-1.46-2-1.34-3.35-1.29a22.81,22.81,0,0,0-16.16,7.13c-1,1.11-1.76,1.65-2.94,1.38-4.23-1-8.39.29-12.58.24-3.11,0-5.29,2.16-7.8,3.37C434.55,605.08,434.88,603,433.52,602.05Z"/>
    <path id="crete" class="cls-4" d="M747.09,939.11c-2.1,3.54-.1,6.54,1,9.49.69,1.79,1.84,3.27.19,5,.71,5-2.61,8.7-4.37,12.9a4,4,0,0,1-2.27,2.43c-1.87.78-3.67,1.75-5.5,2.64-2.62,1.28-5.15,2.17-7.45-.65a3.28,3.28,0,0,0-2.88-.76c-2.38.17-4.63.09-6.51-1.68a1.5,1.5,0,0,0-1.19-.4c-4.68,1.42-9.84.18-14.35,2.67-2.5,1.38-5.29,1.37-8.08,1.17-3.77-.28-7.57-.32-11.33-.69a21.45,21.45,0,0,0-11.8,2.36,7.5,7.5,0,0,1-5,.67,47.62,47.62,0,0,0-12.62-.43,17.16,17.16,0,0,0-7.47,2.11,16.58,16.58,0,0,1-10.88,2.37,6.18,6.18,0,0,0-5.36,1.2,1.93,1.93,0,0,1-2,.49c-2.22-.88-4.28-.33-6.36.45a2.55,2.55,0,0,1-1.26.29c-8.42-1.47-16.82.64-25.23.14a9.59,9.59,0,0,1-1.23-.25c.78-3.44.1-6.94.77-10.52.94-5.07-3.36-9.95-7.85-9.3a18.07,18.07,0,0,1-6.52-.13c-2.85-.65-5.9-1-7.91-3.83a6.8,6.8,0,0,0-6.45-3,6.65,6.65,0,0,1-6.19-2.52c-1.56-2.33-3.28-1.94-5.21-1.64-3.91.62-7.94,1.32-11.65-.15s-7.16-1.13-10.8-1c-2.49.06-5-1.18-7.51.51-1.36.9-2.83-.32-3.64-1.6-1.8-2.85-4.37-3.38-7.52-3.24-3.87.17-7.85.69-11.4-1.79-1.32-.92-3,0-4.1.65-1.65,1-3.3.83-5,1-4,.35-8,0-12,0-1.61,0-3.28.06-3.85-2-.26-1-1-1.28-1.94-1.51-1.69-.42-2.45-2-3.47-3.16-.38-.45-.65-1.29-.08-1.53,3.61-1.54,1.4-4.57,1.53-6.78a11.23,11.23,0,0,1,.91-4.52c1.15-2.3,3-4.46,1.17-7.24,1.65-5.13.15-10.79,2.7-15.76.05-.1.26-.12.47-.2.66,1.18.32,2.47.37,3.7.12,3.09,2,5.1,4.3,6.67,3.31,2.27,8.06,0,8.68-4,.22-1.43.48-3-.27-4.29-1.75-2.95,0-6.24-1.22-9.26-.56-1.43.67-2.73,1.75-3.76a1.72,1.72,0,0,1,2.37,0c.62.41,1.23.87.9,1.74-1.29,3.35.69,6.48.72,9.79,0,4,2.89,6.1,6.84,6.5,4.73.49,9.45,1.07,14.19,1.46,2.9.24,6,.65,7.27-3.08.58-1.68,2.35-.72,3.38-1.42.1-.25.33-.51.3-.75-.45-4.08.45-4.87,4.85-4.25,2.85.4,5.53,3.74,5.22,6.49s-2.73,4.13-6.35,3.5a14.23,14.23,0,0,0-5.19-.35c-1.47.28-1.88,1.55-.82,2.55a7.69,7.69,0,0,0,2.55,1.62,28.57,28.57,0,0,1,6.64,3.24c1.54,1.08,3.31.85,5,.16,1.06-.43,1.94-1.3,3.24-1.27,1.78,2.76,1.31,5.89,1.23,8.9-.08,2.43.82,3.35,3.19,4.24a13.9,13.9,0,0,0,10.49,0c1.74-.66,3.53-1.22,5.51-.48s3.53-1.07,5.4-1.24A34.65,34.65,0,0,0,584.51,923a12.79,12.79,0,0,1,8.89-1.39,69.91,69.91,0,0,1,8.5,1.85,4,4,0,0,0,3.67-.28,6.38,6.38,0,0,1,7-.1,3.58,3.58,0,0,0,4.36-.12c2.6-1.83,6.77.58,7.16,3.75.41,3.35,1.61,4.66,4.94,5a18.22,18.22,0,0,0,4.78-.13c2.6-.42,5.1-1.12,7.49.8a3.27,3.27,0,0,0,2.53.29c3.85-1.14,7.75-.3,11.63-.47a4.17,4.17,0,0,1,3.75,1.67c3.18,3.84,5.64,4.48,10.29,2.82,4.24-1.52,8.45-3.15,12.64-4.81,2-.79,3.87-1.18,5.85,0s4.53.54,6.67,1.14c.27,1.44-.73,2-1.46,2.63a3.44,3.44,0,0,0-1.23,3.53c1.46,4-.58,7.55-1.1,11.26-.33,2.34,1,4.15,1.45,6.23a1.26,1.26,0,0,0,1,.67c1.9-.06,3.23,1.19,4.81,1.87,2.32,1,3.9.18,5.62-1.84,2.92-3.41,5.76-7.05,11-7.05,2.56,0,4.67-1.42,6.73-2.85,3.8-2.64,5.52-2.48,8.91.73,2.56,2.42,7.2,1.49,9.22-2,1.32-2.29,3.28-4,4.85-6.08A2.34,2.34,0,0,1,747.09,939.11Z"/>
    <path id="patras" class="cls-1" d="M287.66,676.74c-2.22-4.42-4.51-8.81-6.66-13.26-3.19-6.59-8.66-10.83-14.68-14.51a12,12,0,0,1-3.72-3A9.69,9.69,0,0,0,252,642c-1.65.35-1.86-.66-1.48-1.66a12.57,12.57,0,0,0,.56-6.38c-.71-6-4.26-9.29-9.71-11-2.5-.78-5-1.59-7.51-2.28-2.17-.59-2.93-1.84-3-4.12,0-3,1.39-5.59,2.11-8.8,4.09,2.2,6.82-.05,9.66-2.38,2.29-1.9,4-4.43,7.06-5.57,1.55-.58,4.31-2.24,1.7-5a1,1,0,0,1,0-1.2c.24-.37.43-.76.67-1.13,3.36-5.31,6.6-10.66,5.36-17.23,1.59-.33,2.09,1.24,3.78-.12,1.92-1.56,5-.42,7.16,1.45a14.26,14.26,0,0,0,6.91,3.43c7,1.35,11.74-.61,15.22-6.86a57,57,0,0,0,3.11-6.26c2-5.1,7-6.73,11-9.5a2.85,2.85,0,0,1,2.1,0c2.42.67,5,.28,7.33.79,3.16.69,6.93.87,8.46,4.87a5.92,5.92,0,0,0,5.95,3.69c3.09-.06,5,.94,5.79,4,.49,1.83,1.95,2.61,3.54,3.53,4.65,2.68,9.74,3.29,14.89,3.85a4.84,4.84,0,0,1,1.51.78c.52,3.35,2,7,1.78,9.85-.32,3.62-1.13,8-3.94,11.19a5.9,5.9,0,0,1-2.57,1.56c-6.06,1.27-7.62,5.82-8.34,11.08a5.14,5.14,0,0,0,.74,3.7c1.9,3,.95,4.79-2.39,5.72a7.18,7.18,0,0,0-4.31,2.73c-1.51,1.74-3,2.67-5,.43a3.27,3.27,0,0,0-5.3.17c-2.72,3.33-5.35,2.38-8.33.63-1.61-1-3.31-1.74-4.88-2.77-1.79-1.32-4.18-1.58-5.27-4.17s-3.19-1-4.1.3c-3.85,5.44-7.82,10.88-4.46,18.23,1.68,3.67.51,7.74.65,11.62.09,2.4.23,3.55,3.36,4.14,6.14,1.15,10.39,5.77,14.32,10.41.55.66,1.06,1.53.48,2.39a2.25,2.25,0,0,1-2.33.74c-3.43-.33-6.07,1.69-6.45,4.88-.6,5-2.86,6.4-8.06,6.78C295.54,678.73,291.57,678.47,287.66,676.74Z"/>
    <path class="cls-1" d="M302.51,549.13c-2.69,2.16-5.94,3.84-6.35,7.67a2.21,2.21,0,0,1-2.52-.85c-1.79-2.2-4.18-2.6-6.69-2.19-5.26.87-10.52,1.75-14.29,6.19-1.49,1.75-3,1.43-3.8-.63a9.68,9.68,0,0,1-.29-2.12c-.56-3.86-.56-3.86-4.27-4.72-.54-.12-1.34,0-1.45-.68-.38-2.46-2.28-2.7-4.17-3.06-1.17-.21-1.61-1.07-1.75-2.19-.2-1.59-.57-3.16-.69-4.74-.18-2.48-1.92-3.82-3.59-5.21a1.49,1.49,0,0,0-2,0c-.71.64-.31,1.32,0,2,.64,1.14,1.36,2.24,2,3.4,1.85,3.59,1,6.17-2.28,8.35-1.93,1.27-4.16,2.15-5,4.92a3.23,3.23,0,0,1-4.77,1.65c-2.08-1.07-2.87-.52-3.22,1.61a2.07,2.07,0,0,1-1.83,1.91c-1.32-1.85-1.5-5.22-5.14-4.46.37-1.7.45-3.13,1.77-4.16,1-.79,1.95-1.92,1.07-3.38-.76-1.23-1.86-1.19-3-.54a1,1,0,0,1-.81,0,1.58,1.58,0,0,1-.94-1.35c-.07-.59.39-.74.8-.72,3,.14,2.12-1.31,1.79-3.31-.5-3.13-2.6-6-1.54-9.46.38-1.26-1-1.91-2.36-1.23s-2.11,2-3.63,2.37c-2-2-1.93-4.57-1.36-6.92,1.22-5-2.51-8.39-3.8-12.55-.38-1.23-1.87-1.25-3.06-1.18-2.84.17-4.27-1.3-4.82-4-.5-2.42-1.05-4.83-1.69-7.21a15.44,15.44,0,0,0-1.38-3.65c-1.16-2.07-2.35-2.21-4.21-.63a6,6,0,0,0-1.41,1.64c-.78,1.41-2.23,1.15-3.41,1.58-1.71.64-1.68-1.17-2.55-1.7-2.54-1.56-2.78-3.53-1.89-6.27.74-2.28,1.74-3.57,4.21-3.49.69,0,1.57.12,1.85-.73a1.7,1.7,0,0,0-1.16-2.09c-3.43-1.47-3.72-4.08-2.83-7.5,1.9,1,3.16,3.27,5.55,2.84a5.15,5.15,0,0,0,3.25-2.62c1.78-.25.76,2.55,2.65,2.22,1.13-.2,2.41.12,3.26-.87,2.51-2.91,5.36-1.85,8.23-.81,1.84.65,3.49,1.34,2.95,3.88a2,2,0,0,0,1.5,2.35c1.67.64,2.87,2,4.4,3.24.88-1.41,2.17-2.41,1.93-4.22s.84-1.58,1.89-1.19c1.59.58,2.42,2,3.47,3.22.59.65,1.29,1.4,2.2.71s.65-1.53.11-2.34c-.71-1.05-.81-2.34-1.89-3.33-2.14-2-1.62-4.64-.34-6.7,1-1.65,1.08-3,.23-4.37a27.72,27.72,0,0,0-7-7.64c-.33-.25-.83,0-1.12.38-1.09-1.83-.39-3.43,2.15-3.95a30.22,30.22,0,0,1,8.59-.71,15.55,15.55,0,0,0,10.3-2.4c2.52-.83,3.69-4.85,6.23-4.06,2.05.64,1.58,4.46,3.34,6.39,2,2.22.74,4.72,0,6.94-1.81,5.33-1.91,5.28,3,8.26a29.9,29.9,0,0,1,2.63,1.52c2.63,1.42,4.28,3.28,3.48,6.62-.52,2.17.85,3.45,2.72,4.36a48.74,48.74,0,0,0,8.19,2.77c1.15.33,2.25.89,2.35,2.23s-1.22,1.43-2,2c-.48.33.15,0-.39.19-5.54,2.13-7.6,6.23-1.73,12.4,4.57,3.5,9.14,6.94,15.45,4.5.92-.36,1.61.31,2.28.92,2.61,2.37,5.32,1.69,5.9-1.92.48-3,1.54-3.9,4.51-3.6,2.58.27,4.72-1.36,6.63-2.92,3-2.43,5.33-1.14,7.7.85.86.73,1.39,1.73.65,2.68-1.79,2.3-1,5-1.42,7.53-.19,4.17-2.81,8.15.5,12.58,2.18,2.93-1.46,9.82-5,10.7a9.93,9.93,0,0,0-7.78,8.28C305,548.67,303.74,548.52,302.51,549.13Z"/>
    <path class="cls-1" d="M403.16,493.35c.72-3.35,3.26-4.27,5.58-5.3,4.24-1.87,8.53-3.63,12.81-5.42,1.23-.52,2-2.07,2.8-2.39,3.43-1.38,5.28-3.82,6.74-7a3.86,3.86,0,0,1,4.16-1.85c3.85.54,7.11-.92,10.25-2.92,2.11-1.35,4.22-2.15,6.1.45.55.76,1.56.68,2.37,1,1.84.66,3.45,1.32,2.85,4-.37,1.67,1,3.13,2.57,3.64,2,.66,2.51,2.18,3,3.9s1.15,3.3,1.51,5a11.34,11.34,0,0,0,6.78,8.42c3,1.43,5.38,4,8,6.12a12.1,12.1,0,0,0,10.15,2.52c3.18-.7,3.35-.73,4.5,2.24a8.41,8.41,0,0,0,4.73,4.82c3.33,1.5,6.66,2.85,10.42,3a18.72,18.72,0,0,1,4.66,1,5,5,0,0,0,3,.27c6.26-1.88,10.89-1.6,16.5,1a4.73,4.73,0,0,1,.76.65c-.4.64-.83,1.21-1.15,1.84-1.49,2.94-1.16,4.66,1.32,6.92,2.78,2.52,6.06,4.52,8.4,7.82a12.57,12.57,0,0,0-3.78,6.28c-.51,1.83-.91,3.74.13,5.5.65,1.09,1.24,1.93-.08,2.94a1.05,1.05,0,0,0,.06,1.57c1.86,1.92,2.28,4.27,2.29,6.81a5,5,0,0,0,1.36,2.69c2.07,2.92,3.43,5.94,2.21,9.72-.69,2.11,1.1,3.42,2.48,4.71,2.18,2,5.64,2.58,6.63,6a1.24,1.24,0,0,0,1.09.54c3.08-.81,5.54,1,8.27,1.74s5.61,1.21,8.49,0a19.64,19.64,0,0,1,4.7-.88c1.22-.19,2.11.27,1.86,1.64a20.09,20.09,0,0,0,.5,9.38c1.33,4.72-2.59,10.85-6.85,12.23-2.59.85-3,.68-4.28-1.84a25.48,25.48,0,0,0-1.34-2.24c-1-1.63-2.17-3.41-4.47-2.42-1.79.77-3.85,1.59-2.32,4.45.48.89-.8,1.38-1.71,1.1-2.09-.67-5.15-5.32-5.08-7.57.13-4-3.31-8.05-7.1-7.92-2.41.08-4.06,0-4-3a1.31,1.31,0,0,0-1-1.25c-1.76-.52-1-1.37-.26-2.14,1.74-1.75,1.78-3.53.21-5.41a2.93,2.93,0,0,1-.59-1.15c-.74-3.07-2.36-4.93-5.89-4a6.25,6.25,0,0,1,1.77-3.36c.73-.87,1.15-1.75.28-2.7s-1.54-.43-2.3.14c-.53.39-1,1.21-1.8.31a1.79,1.79,0,0,1-.4-1.59c.66-3.78.65-3.79-2.8-5.08-.66-.25-1.36-.42-2.14-.65-.12-1.29.35-2.49.14-3.8-.73-4.54-.64-4.4-5.18-4.83a32.08,32.08,0,0,0-6.93.19,15.09,15.09,0,0,1-7.73-.71,5.11,5.11,0,0,0-3-.52c-4.13,1.11-8.08.34-12-.78-1.5-.43-2.9.15-4.28.51a2.71,2.71,0,0,1-3.53-1.65c-.86-1.65-1.07-3.62-2.56-5-.77-.72.22-1.21.58-1.75,3.93-5.89,1.18-12.51-5.74-13.66-3-.5-5.89-1-5.7-5.1a1.1,1.1,0,0,0-.29-.8c-3.42-2.62-5-7.07-9.1-9a18.92,18.92,0,0,1-7.61-6.91,4.86,4.86,0,0,0-1-1.39c-4.6-3.31-9.17-6.68-13.9-9.8a9.42,9.42,0,0,0-8.33-1.47c-2.3.76-3.8-.12-5.3-1.84-2-2.33-6.19-3.23-9.22-2.31.06.26,0,.63.19.77.94.79,2.81.93,2.43,2.62-.44,2-2.36,1.8-3.91,2C410.6,492.61,407.15,493,403.16,493.35Z"/>
    <path id="attica" class="cls-3" d="M433.52,602.05c0-1.17-.75-2-1.22-3-1.08-.62-1.43-1.84-2.21-2.71l.06.08c-.66-.87-1.12-1.86-1.81-2.7l.05.07c.46-1.59,1.91-1.56,3.13-1.89a21.68,21.68,0,0,0,8.14-3.76c2.15-1.69,2.34-2,.54-3.89a20.3,20.3,0,0,0-2-1.62c.1-1.32,1.22-1.09,1.95-1.2,2.53-.41,2.12-1.8,1.26-3.4,4.15-.14,6.5-1.8,6.44-6.44,0-2.19,4.55-4.87,6.69-4.42a2.64,2.64,0,0,1,2.19,3.58c-.76,2.89.38,4.28,3.2,4.18,2.55-.09,3.44,1.8,4.66,3.38,1.7,4.17,6,4.2,9.34,5.57,2.27.94,7.12-3.82,7.25-6.79.07-1.74.46-3.46.43-5.18-.16-8.46,6.05-12.73,13.19-13.93a5.09,5.09,0,0,1,4.87-.3c4.41,1.84,8.64,4.21,13.4,5.17a4,4,0,0,1,2.54,1.6c2.53,3.63,6.25,6.05,9.31,9.13a4.57,4.57,0,0,1-1.45,7.64c-6,2.77-6,2.77-4.39,9.15.61,2.38.93,4.86,2.38,7a3.29,3.29,0,0,1,.11,3.72c-1.32,2.13-1.31,4.34-.94,6.7.13.88,0,1.41,1,2,2.29,1.42,2.2,1.55-.24,3.14-.24.16-.45.36-.67.54a1.75,1.75,0,0,0,1.13,1.69c2.78,1.17,4.32,2.87,3,6.07-.52,1.24.56,1.74,1.27,2.46,2.11,2.17,2.68,5.2.86,7.44s-1.63,4.49-1.53,6.88c.17,3.66-1.78,5.25-5.17,4.07a18.22,18.22,0,0,0-2.89-1c-2.27-.39-3.22-1.69-3.18-3.93,0-1.41.33-3-1.84-3.31-1-.16-1-1.32-1.14-2.16-1-4.87-4.21-7.72-8.61-9.67-1.32-.59-1.75-.86-2.62.55-1,1.67-2.18.93-2.81-.55a138.74,138.74,0,0,0-7.31-13.73c-.74-1.32-1.71-2.19-3.09-1.7-2,.7-3.59-.35-4.75-1.23a11.1,11.1,0,0,0-5.5-2.18c-.5-2,1.26-2.57,2.06-3.63a3.74,3.74,0,0,0,.48-4.43c-.79-1.46-2-1.34-3.35-1.29a22.81,22.81,0,0,0-16.16,7.13c-1,1.11-1.76,1.65-2.94,1.38-4.23-1-8.39.29-12.58.24-3.11,0-5.29,2.16-7.8,3.37C434.55,605.08,434.88,603,433.52,602.05Z"/>
    <path class="cls-1" d="M168.34,577.59c.76.09,1.51.74,2.12.24.77-.63.11-1.28-.35-1.81-2.18-2.48-2.75-5.72-4.06-8.61-.57-1.26-1-3.34-2.62-3-1.77.39-1.59,2.48-1.5,4.06.06.85.36,1.7.5,2.55.78,4.66.1,5.93-4.34,8.17a15.75,15.75,0,0,0-2.2-2c-1.83-1.13-1.64-2.39-1.3-4.39.85-5.17,5-9.08,5.16-14.41.05-1.51,1.21-2.22,2.35-2.92.66,0,.94.56,1.18,1.06,1,2,2.72,4.18,4.67,3.75,2.17-.48,4.72-2.16,5.38-4.6s2-5.08,1-7.9c-.74-2-.2-4-.1-6.05,0-.78.21-1.45,1.16-1.48a1.27,1.27,0,0,1,1.35.87c1.7,4.94,3.44,9.86,5,14.83a3.45,3.45,0,0,1-1.25,3.52c-.72.71-1.63,1.51-.92,2.62,1.14,1.81,1.45,4.18,3.47,5.4.69.42,1.36-.08,2-.36,2.95-1.25,2.95-1.23,4.19,1.83.32.8.52,1.86,1.13,2.3,3.86,2.76,4.82,7.52,7.69,10.94a7.14,7.14,0,0,1,1.55,4.44c.12,3.15-.49,3.19-3.72,4s-5.22-.21-7.05-2.6-4.49-3.14-7.19-3.77a5.1,5.1,0,0,0-4.53,1c-.79.65-.93,2.33-2.61,1.34s-4.43-.92-5-3.62C169.1,581.25,168.73,579.42,168.34,577.59Z"/>
    <path class="cls-1" d="M131,423.94a9.91,9.91,0,0,1-5.38-1.87,8.31,8.31,0,0,0-3.53-1.62,9,9,0,0,1-5.33-2.7,3.67,3.67,0,0,0-2.67-1.33c-1.2,0-1.68-.34-1.68-1.76s-1.73-1.41-2.71-1.67c-2.61-.69-3.81-2.45-4.37-4.86a23.49,23.49,0,0,1-.94-4.69,10.68,10.68,0,0,0-6.27-9.74,10.59,10.59,0,0,1-5.15-6.13c-.59-1.49-1-2.95-3.13-3-1.46-.06-2.24-1.28-2.23-2.77a4.93,4.93,0,0,0-1.92-4.32c-2.7-2.34-.9-7.12,2.74-7.87a23.17,23.17,0,0,1,5.2-.33,16,16,0,0,0,9.56-2.45c1.46-1,2.64-1,3.82.32s2.78,1.53,4.14,2.32c3.37,2,3.48,5,.19,7.14a32.79,32.79,0,0,1-5.12,2.4c-1.66.72-3.68,1.7-3.24,3.57.53,2.26-.14,5.3,2.86,6.59,1.33.57,2.6,1.3,3.93,1.88,1.77.76,3.38,1.45.35,2.82-.91.41-.45,1.17-.26,1.86A104,104,0,0,1,112,408.11c.18,1.16.12,2.72,1.19,3.13,3.93,1.53,7.44,4.77,12,4,2.14-.35,2.92.15,3.46,1.94A29,29,0,0,0,131,423.94Z"/>
    <path class="cls-1" d="M597,260.43c-4,2.71-9.15,2.25-12.2,6a6.34,6.34,0,0,1-3.36-2.85,10.16,10.16,0,0,0-7.91-4.55c-1.77-.13-1.86-1.5-2-2.86-.49-5.44,2.61-9.32,5.75-13.17.45-.55,1.2-.88,1.6-1.46,3.3-4.68,7.67-3.3,12-2.16.69.18,1.48.42,1.71,1.2.62,2.13,2.32,3.17,4.61,3.89-1.89,2-2.86,3.67-.25,5.2a1.44,1.44,0,0,1,.53,1.9C595.82,256.1,595.83,256.1,597,260.43Z"/>
    <path class="cls-1" d="M217.66,635.28c-1.82-.58-3.2-1-4.53-1.46-3.08-1.16-5.41-.59-7.7,2.06-1.42,1.65-2.19,2.92-1.35,4.92a1.78,1.78,0,0,1-.47,2.34,2,2,0,0,1-2.8-.26c-3-4.62-8.73-6.66-11-12.12-1.14-2.69-3.48-5-5.7-7.09-2.56-2.35-1.84-5.17-1.16-7.53a12.78,12.78,0,0,1,4.34-5.9c1.29-1.06,2.4-1,3.17.57.85,1.69,1.65,3.41,2.43,5.13,1.4,3.08,2.75,4.12,6,3.87a9.06,9.06,0,0,1,9.15,4.73,24.27,24.27,0,0,0,9.19,9.52C217.37,634.17,217.39,634.55,217.66,635.28Z"/>
<svg id="Layer_1" data-name="Layer 1" xmlns="http://www.w3.org/2000/svg" viewBox="0 0 1080 1080"><defs><style>.cls-1{fill:gray;}.cls-2{fill:#cfcfcf;}.cls-3{fill:#818181;}.cls-4{fill:#d0d0d0;}.cls-5{fill:#828282;}.cls-6{fill:#d2d2d2;}.cls-7{fill:#cecece;}.cls-8{fill:#858585;}.cls-9{fill:#cdcdcd;}.cls-10{fill:#878787;}.cls-11{fill:#939393;}.cls-12{fill:#d1d1d1;}.cls-13{fill:#8f8f8f;}.cls-14{fill:#8b8b8b;}.cls-15{fill:#969696;}.cls-16{fill:#8e8e8e;}.cls-17{fill:#8c8c8c;}.cls-18{fill:#909090;}.cls-19{fill:#989898;}.cls-20{fill:#929292;}.cls-21{fill:#a1a1a1;}.cls-22{fill:#fdfdfd;}</style></defs><title>thess</title><path id="thessaloniki" class="cls-1" d="M500.77,239.59c-3.54.95-6.91,2.29-9.57,4.95-4.32,4.32-3.62,9.67,1.78,12.46,2.58,1.33,3.68,3.64,4.72,6,1.71,3.91,4.38,6.44,8.83,6.41,2.16,0,3,1.27,4,3.09a15.5,15.5,0,0,1-5,1.25c-3.66.51-5.15,2.43-4.12,6,2.08,7.28,6.44,11.85,14.08,13.12,4.38.73,4.4.62,3.73,5.65-1.09.27-1.59-.61-2.11-1.21-2.22-2.59-4.76-4.24-8.38-3.42a3.67,3.67,0,0,1-2.14-.25c-2.27-1-4.24-.29-6.21.83s-4,2-6.22,1c-1.2-.49-1.82.06-2.59.85a9.34,9.34,0,0,0,.81,14.18c1.37,1.1,2.76,2,3.43,3.81A4,4,0,0,0,498.6,317c3.31.59,5.86,3.34,9.42,3.16a3,3,0,0,1,2.23,1.26,13.61,13.61,0,0,0,6.1,4c1.69.54,2.33,1.7,1,3.32a1.54,1.54,0,0,0-.15,2c1.42,1.53,2.65,2.87.58,4.92-.51.51.26,1.66,1.17,2,1.35.51,2.07,1.83,1.28,2.65-1.83,1.91-2,4.65-3.78,6.53-1.22,1.29-3.51,1.82-3.74.58-.37-2-2.47-2-3-3.75-.47-1.49-2.94-1.69-3.94-3.25a4.19,4.19,0,0,0-2.36-1.79c-3.4-1.08-4.76-2.84-4.37-6.14.21-1.76-.52-2.82-1.29-4.27-2.35-4.42-5.65-8.11-8.43-12.18-2.47-3.6-5.68-5.71-10.2-5.64a16.17,16.17,0,0,1-9.09-2.6,14.52,14.52,0,0,0-8.26-2.39,9,9,0,0,0-8.07,12c.52,1.36,1,2.72,1.48,4.1.29.87.66,1.86,1.6,1.86,2.93,0,3.74,2.37,5,4.22.58.84,1.21,1.65,1.72,2.53,4.37,7.59,11.59,11.1,19.49,13.65,1.34.43,3.07.33,3.37,2.21.57,3.55,3.09,5,6.35,5.81a4.07,4.07,0,0,1-4.11,1.32c-4-.66-8.07-1.12-11.74-3.12-1.14-.62-2.41-1-3.58-1.61-4.77-2.44-9.66-4-15.07-2.24-.2.06-.52-.19-.84-.32,1.59-5.32-1.37-9.44-4.07-13.36-1.6-2.31-2.95-4.06-1.69-7a12.37,12.37,0,0,0,.79-5.57c-.47-6.13-.63-8.42-7.21-11.08-3.32-1.34-6.64-2.91-10.26-3.42a6,6,0,0,1-3-1.67c-2.5-2.14-5.94-2.55-8.45-4.34s-3.7-4.76-6.37-6.38a11.12,11.12,0,0,1-2.21-1.37c-1.47-1.56-5,1.51-5.36-2.52-.22-2.22-2.6-3.51-3-5.75-.23-1.42-1.31-2.22-2.11-3.24s-2-1.71-1.48-2.95c.55-1.42,2.14-1.21,3.38-1.34,1.59-.17,3.2-.19,4.8-.3a6.67,6.67,0,0,0,4.85-2.55c2.74-3.23,2.8-4-.48-7-.9-.82-.83-1.57-.91-2.62-.3-4-3.37-6.63-6.92-6.18-1.92.25-3,.89-2.92,3.35.22,4.47-2,6.29-6.72,6.06A4.7,4.7,0,0,0,393.7,270c-.29.81-.14,1.89-.62,2.49-.93,1.14-1.74,2.56-3.88,1.25-2.49-1.5-4-.44-4.27,2.4s-.26,2.93-3.26,2.84a4.73,4.73,0,0,0-3,.47c-1,.69-2,1.45-.7,2.73a5.72,5.72,0,0,1,1.81,3.88A7.09,7.09,0,0,0,383,292c2.43,1.65,2,3.33.77,5.15a32.87,32.87,0,0,0-4.63,10.77A58.33,58.33,0,0,1,375,319.3a7.65,7.65,0,0,0,0,6.73,8.53,8.53,0,0,1,1.13,3.73c-.16,8.27,4.53,13.27,11.34,16.83,1.64.86,3.08,1.78,2.35,4a4.27,4.27,0,0,1-4.79,1.29c-3.13-1.1-5.94-.55-8.93.35-4.3,1.28-7.87-.22-10.2-3.91a21.94,21.94,0,0,0-7-7.05c-4.14-2.6-6.38-6.26-6-11.32.2-2.45-.17-4.87-2.79-5.82s-4.71.67-6.5,2.51c-.51.52-.86,1.17-1.35,1.71-1,1.1-2.07,2.26-3.71,1.7-1.81-.62-2.07-2.26-2.13-3.93-.15-4.89-.15-4.92-5.52-5-1,0-1.71-.32-2-1.28a3.85,3.85,0,0,1,1.92-4.86c3.07-1.5,3.88-4.06,4.18-7.08.08-.87.46-1.78-.34-2.44-4.73-4-6.89-9.36-8.65-15-.49-1.58-1.76-1.17-2.91-1-1.87.3-3.54-.06-4.61-1.73-1.23-1.93-3.28-2.8-4.94-4.17-3.93-3.23-7.85-6.61-6.79-12.58a3.58,3.58,0,0,0-.53-2.51,9.47,9.47,0,0,1-.68-8.41c.77-2.11-.15-3-2.05-3.34a33.14,33.14,0,0,1-3.83-.86c-4.82-1.48-5.09-1.74-4.14-6.62a2.83,2.83,0,0,0-1.37-3.28,7.56,7.56,0,0,1-2.91-3.73c-.85-2.32-2.33-4.82-1.85-7.07.61-2.83,4.07-1.26,6-2.32.5-.27,1.11-.33,1.64-.57,3.4-1.49,3.6-2.65.65-5-2.09-1.67-3.16-3.42-1.45-5.93.53-.69,1.53-1.39,1.51-2.06-.07-3.22,2-4.78,4.14-6.66,2.49-2.14,4.43-4.94,6.59-7.47a3.73,3.73,0,0,0,1-2.81c-.32-3,1.65-4.41,3.69-5.92,3.24-2.39,7.49-2.27,10.8-4.5.52-.35.94.43,1.39.76,3.72,2.77,5.17,3.59,9.3-.57a7.45,7.45,0,0,1,7.66-1.85c1.82.49,3.56,1.29,5.48,1.37.59,0,1.4.15,1.48.71.52,3.49,3,2,4.74,1.76a7.31,7.31,0,0,1,5.73,1.08c2.19,1.55,4.82,1.21,7.18.63a22.93,22.93,0,0,1,6.9-.49c4.69.28,7.16-1.47,8.85-6,.8-2.14,1.34-2.27,2.76-.65.19.22.3.51.48.73,1.2,1.42,2.25,3.47,4.41,2.89,1.89-.5,2.11-2.65,2.49-4.31a65.48,65.48,0,0,0,1.18-11.26,34.48,34.48,0,0,1,.36-4.78c.67-3.5,2.64-5.28,6.23-5.63a44.55,44.55,0,0,1,10.45.36c6,.85,12,1.89,18.06,2.87a17.54,17.54,0,0,0,6.49-.42c2.87-.6,4.65-1.94,5-5.12.29-2.65,4.46-5.69,6.95-5.5a4,4,0,0,1,2.51,1.55c2.45,2.43,3.4,2.75,6,1,6.25-4.35,12.52-3.61,18.8-.37a11.88,11.88,0,0,0,5.86,1.33,4.44,4.44,0,0,1,1.37,2.63,8.49,8.49,0,0,0,5.58,6.58c3.09,1.17,4.6,3,3.27,6.63-1.56,4.28,2,6.47,4.51,9a40.19,40.19,0,0,1,4.64,5.2c3.45,5.28,9.8,5.86,14.55,9a.49.49,0,0,0,.43,0c5.28-2.27,7.67,1.25,10.07,4.91a15.78,15.78,0,0,0,2.76,2.78c5,4.6,5.19,11.66,0,16.25a79.61,79.61,0,0,0-7,7.07c-4.5,5.17-10.59,6.84-17.17,7.23A7.68,7.68,0,0,0,500.77,239.59Z"/><path class="cls-1" d="M463.21,673.16c-3.18.28-6.37.63-9.56.82a22.19,22.19,0,0,0-9.71,2.74c-1.76,1-2.32,1.69-.59,3.09a2.34,2.34,0,0,1,1.09,1.83c-.71,1.05-1.81.57-2.74.6-1.18,0-2.44,0-3.31.81-1.11,1-.05,2.13.29,3.18.26.83,0,1.45-.87,1.62a1.69,1.69,0,0,1-2.12-1c-1.18-2.73-3.94-5.26-6.58-5.71-1-.17-1.66-.31-1.71-1.41,0-.83-.4-2.32.34-2.34,2.2-.06,2.72-2.62,3.8-2.83,2.86-.55,2.43-2,2-3.82a4.1,4.1,0,0,0-4.27-3c-2.14.1-3.5,0-4.25-2.21-.36-1.06-1.29-1-2.16-.45s-1.52.81-2.7,1.44c-.56-4.5-4.09-6.08-7-8.24-1.91-1.41-3.56-.45-5.26.38-3.35,1.63-3.34,1.62-5.52-1.77-.69-1.08-2.27-1.37-2.56-2.85-.32-1.64-.95-3.4-2.88-3.2a6.11,6.11,0,0,0-4.58,3,3,3,0,0,0-.61,2.47c1.34,3.37.06,7.08,1.79,10.53,1.07,2.13,2.14,4.72,1.64,7.41a3.67,3.67,0,0,0,1.26,3.53c4.17,3.88,5.26,9.52,8.08,14.18,1,1.57,1.5,3.46,2.5,5.06,1.85,3,3.06,5.74,2.14,9.58-1,4.26.28,5.06,5.71,4.87a28.13,28.13,0,0,0,3.31,9.19c1.14,1.88,2.52,4.37.8,6.86a1.15,1.15,0,0,0-.06,1.22c2.2,4.67,3.43,9.71,5.43,14.45a11.65,11.65,0,0,0,2.36,3.1c1.35,1.45,2.62,2.85,1.13,4.93a1.17,1.17,0,0,0-.19.81c1,4.28,1,4.28.29,6.45-1.39.67-2.28-2.05-3.9-.46a4.86,4.86,0,0,0-1.45,5.43c.31,1,1.31,2.22.21,3.61-.58.73-.25,2,.17,3,1.88,4.2,3.28,8.82,8,10.85,2.31,1,3.17,2.94,2.51,4.91-1,2.83.55,4,2.37,5.31a18.93,18.93,0,0,1,1.8,1.22c.72.65,1.86,1.25,1.42,2.44-.6,1.58-1.68.39-2.54.21-.64-.13-1.1.25-1.64.38-4.64,1.12-7.45-1-7.8-5.77-.26-3.61-2.45-5.29-6.1-4.68s-3.67.6-5.28-3.12c-1.37-3.2-2.63-6.51-6-8.34-.71-.39-1.47-.91-1.22-2,.8-3.63-2.56-4.44-4.41-6.2-.74-.7-1.43.75-2.59.82,1.49-4.32-1-8.11-1.57-12.2-.24-1.91-2-3.29-3.93-3.74-5.64-1.28-11.22-1.17-16.59,1.29-1.76.81-2.84,2-2.49,4.07a4,4,0,0,1-2.09,4.39,5.94,5.94,0,0,0-2.67,3.85,2.59,2.59,0,0,0-.16,1.67c.33.82,2,.24,1.65,1.37-.17.51-1.64-.32-2.33.42A2.68,2.68,0,0,0,371,771c1.28,1.82,1.12,1.92-1,1.93-2,0-2.39,1.53-2.49,3-.27,3.93-.29,7.91,1,11.67,1,2.93,2.08,5.69.37,8.73-.51.91.52,2.16-.19,3.2-.21-.07-.47-.12-.47-.17-.14-4.65-3-7.15-6.87-9-.65-.31-1.14-.85-1.93-.49-2,.93-2.55-.8-3.24-2-.82-1.39-.78-3.19.48-4,2.21-1.41,2.05-2.95,1.58-5.16-.36-1.7-.16-3.41-1.25-5s1.92-2.81,1.3-4.06c-.75-1.5-1.56-2.63-.53-4.27a3.35,3.35,0,0,0,.54-2.76c-2.62.4-3.84-1.36-4.59-3.52-1-2.84-2.58-5.37-3.5-8.31-1.47-4.71-5.12-8.39-8.23-12.22a2.83,2.83,0,0,0-3.51-.71c-2.91,1.11-5.11-1-4.3-4a62.33,62.33,0,0,0,1.44-8.13c.26-2-.63-2.94-2.5-3.39-4.88-1.17-9.71-2.25-14.14,1.35a4.85,4.85,0,0,1-2,.8c-2.69.55-3.71,2.24-4.1,4.89-.62,4.17-.78,8.39-1.23,12.57-.28,2.59-.19,5.81,2.09,8,.83.8.35,1.3.11,2.18-.94,3.36-3.54,5.13-6.39,7.53-1.42-2.75-2.84-5.21-4-7.79-.92-2.06-2.23-3.27-4.34-2.07-2.78,1.56-4.52-.21-6.67-1.35-2.36-1.24-3.12-2.93-3.23-5.54-.11-2.23-.16-4.15,1-6.21,1.73-3,1.13-5.2-1.92-7a8.48,8.48,0,0,1-3.23-3.73,24.29,24.29,0,0,0-3.55-4.4c-5.39-6-5.19-12.94-3.68-20.11a7.15,7.15,0,0,1,2.94-4.23c.47-.35.88-.78,1.37-1.09,6.68-4.2,8.79-10.08,6.5-17.6,1.26-1.48,2.89-1.14,4.44-.76,3,.75,6.1.3,9.1.17s4.66-2.65,5.27-5.53c.8-3.71,2.16-6.45,6.74-6.41,2.86,0,1.86-2.23.82-3.25-3.71-3.64-7.37-7.68-12.56-9-3.61-.92-4.69-2.78-4.58-6.13a47.69,47.69,0,0,0-1.37-13.79c-1.6-6.23,2.34-10.78,6-15.13,1.23-1.47,3.2-1.69,4.41.31,1.06,1.76,2.81,2.44,4.42,3.39,1.68,1.14,3.57,1.93,5.31,3,2.83,1.67,5.39,2.57,8.12-.39,1.5-1.63,3.6-1.68,5.55-.25,1.78,1.31,3.46,1.38,4.85-.63,4.91-2.38,7.7-5.09,6.05-11.67-1.87-7.45,4.55-10.21,10.18-12.7,2.48-4.64,5.61-9,3.18-14.83-.77-1.84-1.06-4.19,2.18-4.39a16.74,16.74,0,0,0,7,1.93,20.28,20.28,0,0,1,9.14,2.57,119.56,119.56,0,0,0,12.95,6.24c5,2,8.65,5.88,11.92,10,2.25,2.83,5.35,4.47,8.2,6.23s6.39.06,9.15-1.19c3.14-1.42,2.89-4.82-.09-7-1.17-.85-2.52-1.43-3.75-2.19s-2.4-1.57-4-2.59c2.1-1.72,4.78-2.31,6.36-4.39a1.72,1.72,0,0,1,2.05-.32c4,2.12,8.85,1.48,12.73,4l.47.25a11.54,11.54,0,0,1,1.41,1.63,7.62,7.62,0,0,1,.62.87,8.83,8.83,0,0,0,1.8,2c.78,1.06,2,2,.83,3.54.06.43.13.86.16,1.3.12,1.59,2.12,3.37,0,4.7-2,1.23-4,3.22-6.74,1.65-1.19-.67-2.58-.28-3.83-.53-1.85-.38-2.81,0-2.74,2.05a3.26,3.26,0,0,1-.29,1.25c-2,5.07-1.44,6.21,3.67,7.28,1.13.23,2.43.72,3.41.38,4.24-1.48,6.36,1.82,9,3.8,1.54,1.16,1.08,3.64-.6,4.73a3.78,3.78,0,0,1-1.16.6c-1.51.32-2.78.85-2.89,2.67-.1,1.65,1.23,2.3,2.32,2.83,1.81.87,2.51,1.74,2,4-.6,2.58.52,5.33-.24,8-.32,1.15.64,2.16,1.69,2.81,1.22,2.09,0,3.91-.63,5.79-1.05,3.31,0,5.65,3.24,6.9a22.88,22.88,0,0,1,5,2.55c4.48,3.14,9.18,5.07,14.91,4.09C462.94,668.37,463.89,669.92,463.21,673.16Z"/><path class="cls-1" d="M482.4,161.88c1.75-3.79,4.82-4.95,8.63-3.89,2.7.74,4.52.24,5.73-2.35a4,4,0,0,1,4-2.18c2.87,0,5.48-.65,7.5-2.89.87-1,1.77-.74,2.69,0,.69.54,1.42,1,2.11,1.56,1.43,1.15,2.81,1.41,4.24-.06a3.83,3.83,0,0,1,4.68-1.1c1.9.78,3.11-.48,3.26-2.33a20.27,20.27,0,0,0-.23-5.22c-.38-2.2.79-3,2.56-3.2a10.06,10.06,0,0,1,8.76,3.12c1.73-1.59,1.71-4.07,3.78-5.31,3.58-2.14,6.51-1.46,7.74,2.55.48,1.59.85,2,2.57,1.91,3.91-.17,7.68-1.47,11.62-1.28a2.66,2.66,0,0,0,2.32-1,9.79,9.79,0,0,1,1.42-1.64c3.56-2.78,7.13-2,7.3,2.31.17,4.61,3.67,7.43,4.44,11.52a2.08,2.08,0,0,0,1.88,1.64c2.31-.17,3.92,1.78,6.12,1.79,2.92,0,4.81,1.75,6.52,3.84a36.67,36.67,0,0,0,4,4.56c1.9,1.68,3.54,1,4.23-1.3.37-1.27-.78-3.33,1.3-3.69,2.48-.42,4.93-2.06,7.59-.49,5.16,3,10.9,4.81,16.3,7.34,2.26,1.06,4.69,1.51,6.92,3a24.23,24.23,0,0,1,7,6.39c3,4.33,5.36,5.08,10.5,3.54,4.18-1.24,8.31-2.67,12.47-4a13.71,13.71,0,0,1,4.2-1c3.06.09,5.79,0,7-3.52.13-.38,1-.74,1.48-.72,3.32.15,6.78-.55,9.89,1,2.2,1.07,4,1.43,5.93-.44a4.3,4.3,0,0,1,3.21-1.17,6.3,6.3,0,0,0,4.39-1.65c2-1.57,3.72-1.43,5.3.52,2,2.54,4.36,3.85,7.51,1.77a3,3,0,0,1,2.53-.17,3,3,0,0,0,2.52-.37c4.42-3.05,9.45-4.36,14.63-5.27,1.52-.26,1.92-1.61,2.6-2.71,1.51-2.46,1.68-5.56,3.89-7.73.8-.79.17-1.91-.57-2.72-1.63-1.75-2-3.4-.92-5.87s1.53-5.74-1.92-7.58c-.9-.48-.65-1.51-.74-2.36-.42-3.84-1.09-7.17-5.62-8.82-3.81-1.39-3.58-7.3-.25-9.53,2.86-1.93,5.76-3.25,9.27-3.11a3.53,3.53,0,0,0,2.48-.6c2.24-2.31,3.75-1.25,5.26.8a6.87,6.87,0,0,0,6.87,2.85c3.06-.39,6-.47,8.45,2.18,1,1.12,3.21,1.19,4.85,1.76,1.31.46,2.57,1,1.69,2.78-.73,1.44.18,2.15,1.15,2.84,3.39,2.39,6.45,5.38,10.82,5.95.87.11.84.75.83,1.24-.12,8,2.11,15.71,3.6,23.49a13.61,13.61,0,0,1-.24,6c-.95,3.75-3.08,4.67-6.46,2.84-2.86-1.56-2.86-1.56-5.05.83-3.06,3.34-6.87,5.79-10.33,8.64-1.91,1.57-4.48,1-6.72,1.56-1.79.42-2.74,1.08-1.73,3a3.43,3.43,0,0,1-.06,2.92,9.84,9.84,0,0,0-.21,6c.48,1.49.7,2.78-.35,4.07a2.81,2.81,0,0,0-.37.78c-.68,1.65,2.43,2.25,1.1,4.19a4.2,4.2,0,0,0-.2,4.2c.79,1.69,1.44,3.41,3.1,4.64,2,1.49,2,2.51-.4,3.63-2.13,1-2.72,2.27-1.34,4,1.69,2.14.45,3-1.23,3.95-2.83,1.66-2.8,1.71-3.41,4.65-1.57-.57-3.69-2.8-4.26.94-.11.7-.89.75-1.58,1a4.56,4.56,0,0,0-3,4.23c.16,2.39-1.15,3.44-2.55,4.62a12,12,0,0,0-4.44,6.78,6.37,6.37,0,0,1-4.72,4.72c-2.47.76-4-.09-4.46-2.63-.36-2-.6-4-1.88-5.68,1.25-.85,3.8-.2,3.66-2.38-.15-2.48-2.46-1.12-3.83-1.47-2.42-.63-5.11-.11-7.28-2a3.87,3.87,0,0,0-3.34-.68c-3.48.88-6.85.15-10.24-.51a7.17,7.17,0,0,0-3-.08c-4,1-7.78.06-11.53-1.24-3-1-6-1.87-9.29-.55-2,.79-4.1-.09-5.61-1.55a11.6,11.6,0,0,0-7.08-3,17.31,17.31,0,0,1-8-3.3,19.43,19.43,0,0,0-4.19-2.31c-1.64-.64-3.09-.83-4.32.7-1.08,1.35-2.35,1.27-3.91.87-2.8-.72-5.77-.74-8.3-2.44s-2.53-2.27-.48-4.26a11.06,11.06,0,0,1,1.54-1,5.23,5.23,0,0,0-4.86-2.28c-1.31,0-2.62.06-3.93,0-2.38-.07-4.65-.22-5.23,3-.14.76-1.43,1.35-2.23,2-.44.35-1.4.6-1.39.87,0,3.18-2.41,2.64-4.33,3.4-4.13,1.63-8.48,3.05-11.08,7.26-1.56,2.51-3.58,4.77-7.1,2.79a1,1,0,0,0-.84,0c-3.19,2.17-5.73,1-8.26-1.33-1.86-1.74-3,1-4.56,1.17-2.54-2.65-2.95-6.52-5.67-9-.72-.66-.38-2.36-1.88-2.61-2.11-.35-4.22-1.48-6.35-.54a15.32,15.32,0,0,1-6.58,1.36,5.37,5.37,0,0,0-4.76,2.66,18.48,18.48,0,0,1-4.27,4.33c-1.26,1.1-3.79,1.78-1.46,4.22.48.51-.07,1-.67,1.29-2.56,1.07-1,2.5-.15,4.15-6.71,4-13.29,8.23-20.21,11.83-4.52,2.36-9.41,1.23-13.88-.91-3.4-1.64-6.68-3.55-10-5.33.12-2.11,2.17-1.86,3.19-2,5.5-.74,9.1-4.09,12.21-8.23a16,16,0,0,1,3.75-3.54,11.92,11.92,0,0,0,4.9-13.31,3.21,3.21,0,0,0-1.37-2.12,20.29,20.29,0,0,1-7.23-7.92,3.84,3.84,0,0,0-5.58-1.73c-2,1.19-3.08.51-4.51-.77-2.2-2-5.39-1.69-7.86-3.45-3.87-2.75-6.31-6.71-9.5-10-3.87-2.83-6.91-5.88-3.8-11.17.94-1.58-.56-2.25-1.73-2.88-1.67-.88-3.58-1.42-5-2.62A6.64,6.64,0,0,1,482.4,161.88Z"/><path id="thessaly" class="cls-1" d="M389.89,351.66a5.26,5.26,0,0,1,.82,1.47c.68,4.22,3.31,7,6.68,9.27,5,3.35,7.95,7.93,8.35,14a17.2,17.2,0,0,0,1.53,5.43,45.8,45.8,0,0,1,3.08,8.61c1.16,6.24,5.31,9.76,10.73,12.22a27.18,27.18,0,0,1,5.41,2.79c1.67,1.26,3.13,2.6,3.59,4.74a7,7,0,0,0,1.53,3.1q6.54,7.85,13.1,15.68c.74.88,1.71,1.55,2,2.8,1.1,5,3.56,9.51,6,14,.92,1.69.71,2.8-.73,4.14-1.89,1.74-3.82,3-6.48,3.18a14.54,14.54,0,0,0-3.36.85c-.4.12-1.08.49-1.05.65.78,4.54-2.93,2.57-4.75,3.3a23.36,23.36,0,0,0-3.24,1.25c-2.4,1.39-4.66,1.1-7.41-.27,2-1.67.46-5.34,4.09-5.8,1.05,1.93-.65,3.51-.14,5.6,3.13-1.38,6.46-2.14,8.42-5.29.08-.12.07-.37.15-.39,1.85-.56,3.27-1.44,3.37-3.65s-1.25-3.5-2.14-5.14a11.49,11.49,0,0,1-1.53-3.1c-1.35-6.28-5.11-9.72-11.24-10-2.71-.11-4.81-.53-5.69-3.49a3.24,3.24,0,0,0-3.7-2.37,37.28,37.28,0,0,1-3.91-.21c.37,2.56-2.14,4.55-.74,7.59-2.34.41-4.46.72-6.54,1.17-3.12.67-4.14,1.87-4.48,5-.4,3.61.7,7.71,3.42,12.79.27,0,.62.05.79-.09,3-2.63,3.81-2.42,4.77,1.26.32,1.25.17,2.65,1.09,3.71.44.51.91,1.58,1.63,1.09,2.33-1.57,2.6.46,3.32,1.72.5.88.91,1.82,1.39,2.71.95,1.75.91,3.15-.86,4.52s-1.79,1.62-1.33,4.36c1.88,0,3.09-1.47,4.61-2.21a11,11,0,0,1,5-1.29c-3.47,1.77-4.67,5-5.87,8.22-2.89.87-5.91,1.07-8.81,1.93-1.51.45-3.45.55-4.69-.39-3.95-3-8.9-2.24-13.21-3.79-1.08-.39-2.45-.33-3.28-1.1-4.15-3.84-9.11-3.6-14.26-3.37s-7.17-1.56-7.37-6.88c-.11-2.86-.35-4.74-3.9-4.58-2.34.1-3.78-1.51-4-3.83-.32-3.17-2.36-4.92-4.91-6.18-3.13-1.54-6.44-2.7-9.51-4.38-1.7-.93-3-.51-4.19.92s-2.68,2.68-3.89,4.13c-1.18,1.64-2.72,3.05-3.42,5-1.57,4.33-4.2,7.39-8.79,8.9-3.14,1-5.07,4.21-8.29,5.43-4.65,1.75-5.74,1.2-6.24-3.74-.55-5.4-7.82-9.08-12.47-6.29-.87.52-1.69,1.12-2.55,1.67-4.72,1.54-6.16.7-6.61-4.09-.43-4.58-4.22-7.79-4.86-12.32-.17-1.23-1.65-1.42-2.93-1-1.81.55-3.77.74-5.43,1.59-3.11,1.6-5.7,3.87-9.88,2.73-1.84-.5-3.83,2.24-5.56,3.81-1.41,1.28-2.77,3.61-5.1,2a5.73,5.73,0,0,1-2.35-6.91,68.25,68.25,0,0,1,3-6.31c2-4.33.49-7.54-4.13-8.26-4.8-.76-8.28-2.69-10.29-7.51-1.26-3-4.43-4.74-5.34-8.6-1.06-4.49-.85-8.82-.95-13.24,0-1.19.25-2.43-.88-3.16-2.68-1.73-2.91-4.5-3.34-7.23-.84-5.27,1.35-7.37,6.61-6.29.68.14,1.31.67,2.25.22.77-2.35-.16-4.71-.45-7.1-.82-6.82,3.43-10.6,10.07-9.21,3,.63,5.67-.68,8-2.55,1.24-1,2.25-2.27,3.45-3.33,3-2.49,6.49-2.52,10-2,3,.44,6.13.41,9,1.42,8.29,2.9,16.77,2.29,25.28,1.63,1.95-.16,3.15-1,2.72-3-.48-2.24-.28-4.65-1.78-6.67a2.68,2.68,0,0,1,.71-4.18c7.59-4.67,10.46-13.26,16.31-19.36,2.17-3.41,2.83-7.86,7.71-9.37a8.73,8.73,0,0,1,4.88-.31c1.56.36,2.46.89,1.67,2.63a2.72,2.72,0,0,0-.41,1.24c.18,2-1.16,4.8,1.53,5.79,2.26.82,3-1.68,4.05-3.13a9.37,9.37,0,0,1,4-3.27c3.38-1.38,6.66.29,6.39,3.9-.54,7.25,2.65,11.87,8.77,15.08,1.85,1,2.84,2.79,3.86,4.59,2.61,4.6,5.88,5.77,10.95,4.28,2.6-.77,5.15-1.85,7.88.06C386.08,352.7,388.08,350.28,389.89,351.66Z"/><path class="cls-1" d="M434.47,578.08c-.51-1.2.29-2.63-1.08-3.78-1.95-1.65-2.35-1.85-4.39-.26-.57.45-1.06,1-1.66,1.42-.93.64-1.58.75-2.43-.49a10.93,10.93,0,0,0-11.08-4c-1.53.4-1.94,1.59-2.54,3.46a11,11,0,0,1-.69-1.33c-1.54-4.41-1.53-4.42-6.17-3.76-1.15.17-2.28.47-3.42.69a3.53,3.53,0,0,1-3.42-1.51c-1-1.2.52-1.69,1-2.44,1.37-2.05,1.27-2.6-1.05-3.42a43.32,43.32,0,0,1-5.19-2.15c-2.86-1.44-4.81-3-4.27-6.63.22-1.44-.89-2.7-2.3-3.42-.67-.35-1.67-.72-2-.11-1.23,2.22-3.91,2.88-5.17,5-.61,1-1.08,2,0,3.15s.73,2.51-.45,3.34c-1.36,1-2.52.07-3.38-1-.71-.87-1.69-1.85-1.36-3.07.59-2.21-.81-3.56-1.86-5.08-1.49-2.14-3.21-4.09-4.63-6.31s-4.44-3-6.74-4.32c-1.21,1-.67,2-.44,2.94a2.1,2.1,0,0,1-.71,2.34c-1.7,1.34-3.22,2.52-.9,4.79.86.85-.5,2.11-.89,3.11s-1.51.25-2.3.05c-3.16-.8-6.47-.3-9.68-1.58-2.52-1-5.15.18-6.87,3.24-3.09-4.26-7.63-5.65-11.91-7.49-1.05-.45-2.31-1-3.31-.83a5.49,5.49,0,0,1-4.36-1c-2.11-1.22-4.54-.64-6.65.62-1.12.67-2.08,1.63-3.23,2.21s-2.68,1.59-3.68-.42c-.57-6.2,1.83-10.22,7.48-12.48,3.38-1.36,6.74-6.9,5-10-2.39-4.21-.52-8.09-.66-12.1.8-2.63.35-5.4,1.28-8.09s-2.82-5.32-5.66-4c-3.48,1.67-6.55,4.26-10.85,3.76-1.38-.17-1.42,1.51-1.8,2.59-1.51,4.25-2.76,4.81-6.59,2.85a3.9,3.9,0,0,0-2.88-.63c-6.19,1.82-10.53-1.62-14.85-5.15-4.7-5.05-5.08-9.66,2-13.05.75-.36,1.79-.71,1.8-1.69,0-1.29-1.27-1.44-2.15-1.81-1.33-.56-2.78-.77-4.17-1.22-4-1.28-7.25-3.07-6.88-8.11.17-2.18-1.43-3.35-3.11-4.35-1-.57-2-1.19-3-1.82-4.65-3-4.76-3.12-2.95-8.42,1-3.05,1.31-5.79-.87-8.59-1.58-2-1.76-4.15,1-5.84,2.09-1.27,3.41-3.57,5.49-4.95s3.82-2.81,6.26-.79c1.14.94,2.19.34,2.93-.77,2.29-3.44,6.16-3.49,9.59-4.41,2.37-.63,3.53.81,3.82,3,.36,2.77.76,5.44,3.39,7.2,1.05.7.83,2,.77,3.23-.25,5.08,1.29,6.06,6.25,4.06a31.35,31.35,0,0,0,2.79-2.06,6.88,6.88,0,0,1,2.75-1.25c3.7-.51,9.77,5.22,9.65,9.08-.13,4.12.46,4.57,4.4,3.28,2.5-.81,4.88-1.82,6.57-4a5.13,5.13,0,0,1,3.2-2.12c4.46-.71,6.71-3.74,8-7.64.77-2.3,2.56-3.83,3.73-5.81a10.15,10.15,0,0,1,1.09-1.36c4.77-5,4.77-5,11.07-2.28,2.26,1,4.69,1.54,6.81,2.84,2.43,1.49,4.53,3.27,4.57,6.42,0,2.93,1.5,3.84,4.22,3.31,3.21-.63,3.79,1,3.74,3.87-.14,7,1.06,8,8.14,7.49,4.38-.31,8.3-.09,12.17,2.89,3,2.28,7.18,2.81,11.1,3.12.7.05,1.66-.48,2.1,0,3.41,4,8.16,2.36,12.35,3.09A9.33,9.33,0,0,0,413,479c-1.33,2.35-3.09,3.27-5.77,2.23-2.13-.81-3.74-.3-4.15,2.24-.12.72-.23,1.7-1,1.72-2.17,0-3.53,1.87-5.58,2.22-1.61.27-3.1.88-4.35-.73a1.29,1.29,0,0,0-1.54-.54c-2.67,1.61-4.29-.29-6.11-1.67-2.79-2.11-2.84-2.15-6-.06-1.74,1.17-3.75,1.5-5.63,2.14a1.52,1.52,0,0,0-1.24,1.84c0,.83-.17,1.95,1.05,2a2.26,2.26,0,0,1,2.42,1.88c.43,1.46,1.88,1.71,3.22,1.73,3,0,6.1.47,8.8-1.49,1.45-1.05,2.58-.77,3.53.84a27.08,27.08,0,0,0,3.07,4.22c1.68,1.87,3.44,3.29,6.43,2.32s4.25,1.79,6,3.46c1.06.27,1.54-.59,2.15-1.15,1.27-1.15,2.73-1.43,3.88-.18,1.73,1.87,3.86,1.74,6,1.83,5.09.2,6.14,1,7.73,6,.67,2.07,1.2,4.2,2,6.22,1.19,3,3.06,3.69,5.75,2a6.55,6.55,0,0,1,3.17-1.2c2.37-.11,2.58-1.63,2-3.94a34,34,0,0,0,10.23,3.8,4.41,4.41,0,0,1,2.87,2.51c1,1.75,1.07,3.36-.88,4.49a5.91,5.91,0,0,0-3.19,4.82c3.93-1.58,5.08,3.34,8.18,2.85.37.75.23.94-.16,1-1.72.08-3.61.52-3.47,2.46s2.26,1.35,3.56,1.27a44.33,44.33,0,0,1,12.53,1.17c1.79.4,3.3.57,4.81-.91,1.72-1.68,2.75.24,3.88,1.16s1.83,1.94,0,3c-.56.33-.84,1.26-.39,1.44,2.4.95,1.49,4.27,4,5.21,1.83.68,2.51,2.77,3.47,4.36a13.3,13.3,0,0,0,5.88,5.62c2.23,1.57.45,2.31-.73,2.87-5.56,2.64-7.67,7.34-7.51,13.09.12,4.86-1.33,8.58-6,10.48-3.15,1.28-8.62-1.18-11.63-5-.61-.8-1-2.21-1.8-2.38-4.08-.84-6.39-2.67-6.83-7.27-.2-2.15-6.4-1.13-6.91,1.85-1,6.16-4.27,7.75-9.82,6.59C437.47,577.12,436.14,578.92,434.47,578.08Z"/><path class="cls-1" d="M194.23,301.73c.59-1.48,1.09-3,1.77-4.43,1.1-2.28,1.87-4.56,1.11-7.13-.24-.84-.53-2.2.09-2.47,3.08-1.33,4.38-4.37,6.65-6.42,1-.9,2.46,0,3.72.4,3.89,1.34,6.51.06,7.51-3.92a5.35,5.35,0,0,1,2.19-3.43c2.81-2.08,5.29-4.46,5-8.56-.11-1.53.57-3.13,1-4.67a11.52,11.52,0,0,0-2.84-11.29c-1-1.08-2-2.11-3-3.2-1.79-2-3-4.17-1.45-7,1-1.84.85-4,.71-6s.7-2.59,2.54-2.55,3.78-.16,5.67-.12a27.58,27.58,0,0,0,10.26-1.61A10.31,10.31,0,0,1,242,229a21.73,21.73,0,0,0,6.93.58,8.83,8.83,0,0,0,6.94-3.07c2.37-2.84,5.22-3.5,8.95-2.85,3.39.59,6.33,1.26,8.91,3.8,2.29,2.25,3.76,1.93,6.37-.37a6.23,6.23,0,0,1,3.31-2c.57-.07,1.33-.15,1.47-.74,1-4.29,4.2-3.05,7-2.8,1.9.25,3.84.49,4,3,.09,1.48,1.3,1.79,2.29,2.32,1.19.64,2.37,1.3,2.32,2.85-.05,1.76-1.48,2.39-2.82,2.94a23.06,23.06,0,0,1-8.75,1.5c2.46,4.08,1.47,9.3,6.25,12,1.8,1,1.2,2.82.42,4.27-1.39,2.59-1,4.1,2.19,4.4a8.21,8.21,0,0,1,2.52.64c1.82.82,4.24,0,5.67,1.75,1.65,2-.75,3.73-.74,5.7,0,1.61-.23,3.14.89,4.55a4.8,4.8,0,0,1,.77,5.24c-.84,2.07,3.57,9,6.52,10.44,2.27,1.11,4.28,2.28,5.53,4.63,1,1.93,3,1.41,4.69,1.18,1.9-.24,2.4.53,3.16,2.42,2,4.84,3.21,10.31,8.16,13.38.64.4,1.47.88,1.09,1.63-1.54,3-.23,7.62-5,8.9a2.79,2.79,0,0,0-2.11,2.55c-.24,4.67-3.44,8.07-5.08,12.13-3,3.85-6.06,7.52-8.27,12-1.71,3.48-5.88,5.41-8.94,8.05-1.55,1.34-1.74,2.13-.25,3.35,2.68,2.2,1.76,5.36,2,8.12.15,1.84-1.34,2.85-3.31,2.25a11,11,0,0,0-6.41.35,19,19,0,0,1-11.08-.27c-6.39-2-13.05-2.57-19.66-3.4-2.69-.35-4.77.86-6.87,2.19-1.83,1.82-3.3,4-5.88,5.06-3.05,1.27-5.34,1.77-8-1.35-3.38-4-8-4.54-13.13-2.89-7,2.25-8.14,1.36-9.75-5.89-.32-1.41-.39-3-1.24-4.15-2.17-2.84-1.79-5.58-.48-8.58,1.2-2.73.93-4.63-2.88-3.88a3.17,3.17,0,0,1-3.4-1.52c-1.94-3.31-3.73-7-2.53-10.73,2.11-6.5-.21-11.67-3.67-16.7a35.51,35.51,0,0,1-4.43-8c-1.48-4-2.42-4.3-6.07-2.15C197.79,303,196,304.68,194.23,301.73Z"/><path class="cls-1" d="M224.74,467c-2.83,3.18-2.83,3.18-6.26,1.17-.74-.43-1.48-1.2-2.25-1.23-3.45-.13-2.13-2.07-1.31-4.1-3.18.54-6.35-2.24-8.84,1.28a7.3,7.3,0,0,1-2.49-4.69c-.32-2.18-2.2-3-3.74-1.57-1.22,1.13-3.72,1.8-2.27,4.8,1.09,2.23-.69,4.21-2.82,5.2s-1.75,1.84-.14,2.67c2.37,1.22,4,3.23,6.19,4.86-2.73-.62-5.53-2-7.12,2.08-1.91-2.43-3.47-4-2.53-7.5.87-3.2-1-6.81-4-8.64-6.13-3.73-10.64-8.93-14.79-14.59a2.9,2.9,0,0,0-.9-.94c-3.31-1.76-4.1-4.66-3.6-8.08.2-1.4,0-2-1.64-2.23-3.17-.43-6.18-1.78-9.52-1.45-2.94.29-7-3.07-7.25-6.34a10.25,10.25,0,0,0-3.22-6.46,20.24,20.24,0,0,1-3.54-5.32c5.13-1.9,5.15-2,1.16-6.05-.11-.57.4-.6.69-.85,2.27-2,2.18-3.78-.57-4.13s-4.74-2.17-7.39-2.47c-2.15-.25-2.5-1.24-1.13-2.69,2.28-2.42,3.48-5.13,2.6-8.43-.4-1.48,1-1.07,1.39-1.63,1.15-1.53,1-4.67,4.38-3.31a.41.41,0,0,0,.34-.2c.56-3,3.28-4.25,5-6.27a2.17,2.17,0,0,0,.37-2.47c-1.93-2.68-1.21-5.76-1.57-8.82,2-.74,3.61.59,5.25,1.29s2.86,1.62,4.4.26a5.24,5.24,0,0,0,1.59-5.94,20.77,20.77,0,0,0-4.86-8.2c-2.83-2.75-3.1-6.11-3.83-9.46-.37-1.66.35-2.49,2-2.53.73,0,1.46-.12,2.18-.07a2.83,2.83,0,0,0,3.33-2.64,12.26,12.26,0,0,1,1.66-4c.51-.89,1.14-2.13,2.08-2.09,3.34.14,6.37-2.05,9.75-1.27,4.31,1,8-.51,11.59-2.63,2.85-1.7,3.59-4.79,3.33-7.58s.09-4.75,2.11-6.88c1.59-1.69,1.23-4.4,1-6.73-.26-3.05.42-5.51,3.56-6.72,2.54-.34,4.89-.6,7.11-2.49,2.52-2.14,4.36-1.29,5.48,2.09s3.33,6.35,5.23,9.44c3.07,5,6.43,10.22,3,16.59-1,1.82,1.72,9.85,3.38,11.24,1.09.92,2.12.64,3.23.14,3-1.31,3.85.79,3,2.66-2.05,4.37-1.94,8.25.66,12.27a9.85,9.85,0,0,1,.9,3.35c1.19,5.82,2.1,6.45,7.8,4.67,5.45-1.71,10.48-2.05,14.59,2.8-.65,1.35-2.06,1.07-3,1.64-4,2.38-5.22,5.08-4.5,9.83.17,1.16.62,2.25.79,3.4.55,3.68.14,4.06-3.57,3.43-4.76-.82-6.53.9-5.86,5.47.44,3,1,5.51,3.59,7.9,2.22,2,.49,6,.73,9.09.37,4.69-.05,9.68,4.37,13.06,1,.79,2.18,1.65,2.46,3,1.09,5.18,5.15,6.21,9.45,6.87,4.9.76,6.79,4.18,4.67,8.67-.87,1.84-1.8,3.66-2.74,5.46-.63,1.2-1.36,2.77-.66,3.73,3.41,4.7-.65,6.55-3.18,9a5.15,5.15,0,0,1-.7.53,18,18,0,0,1-11.94,3.07C231.66,459.66,226.74,460.54,224.74,467Z"/><path id="crete" class="cls-1" d="M747.09,939.11c-2.1,3.54-.1,6.54,1,9.49.69,1.79,1.84,3.27.19,5,.71,5-2.61,8.7-4.37,12.9a4,4,0,0,1-2.27,2.43c-1.87.78-3.67,1.75-5.5,2.64-2.62,1.28-5.15,2.17-7.45-.65a3.28,3.28,0,0,0-2.88-.76c-2.38.17-4.63.09-6.51-1.68a1.5,1.5,0,0,0-1.19-.4c-4.68,1.42-9.84.18-14.35,2.67-2.5,1.38-5.29,1.37-8.08,1.17-3.77-.28-7.57-.32-11.33-.69a21.45,21.45,0,0,0-11.8,2.36,7.5,7.5,0,0,1-5,.67,47.62,47.62,0,0,0-12.62-.43,17.16,17.16,0,0,0-7.47,2.11,16.58,16.58,0,0,1-10.88,2.37,6.18,6.18,0,0,0-5.36,1.2,1.93,1.93,0,0,1-2,.49c-2.22-.88-4.28-.33-6.36.45a2.55,2.55,0,0,1-1.26.29c-8.42-1.47-16.82.64-25.23.14a9.59,9.59,0,0,1-1.23-.25c.78-3.44.1-6.94.77-10.52.94-5.07-3.36-9.95-7.85-9.3a18.07,18.07,0,0,1-6.52-.13c-2.85-.65-5.9-1-7.91-3.83a6.8,6.8,0,0,0-6.45-3,6.65,6.65,0,0,1-6.19-2.52c-1.56-2.33-3.28-1.94-5.21-1.64-3.91.62-7.94,1.32-11.65-.15s-7.16-1.13-10.8-1c-2.49.06-5-1.18-7.51.51-1.36.9-2.83-.32-3.64-1.6-1.8-2.85-4.37-3.38-7.52-3.24-3.87.17-7.85.69-11.4-1.79-1.32-.92-3,0-4.1.65-1.65,1-3.3.83-5,1-4,.35-8,0-12,0-1.61,0-3.28.06-3.85-2-.26-1-1-1.28-1.94-1.51-1.69-.42-2.45-2-3.47-3.16-.38-.45-.65-1.29-.08-1.53,3.61-1.54,1.4-4.57,1.53-6.78a11.23,11.23,0,0,1,.91-4.52c1.15-2.3,3-4.46,1.17-7.24,1.65-5.13.15-10.79,2.7-15.76.05-.1.26-.12.47-.2.66,1.18.32,2.47.37,3.7.12,3.09,2,5.1,4.3,6.67,3.31,2.27,8.06,0,8.68-4,.22-1.43.48-3-.27-4.29-1.75-2.95,0-6.24-1.22-9.26-.56-1.43.67-2.73,1.75-3.76a1.72,1.72,0,0,1,2.37,0c.62.41,1.23.87.9,1.74-1.29,3.35.69,6.48.72,9.79,0,4,2.89,6.1,6.84,6.5,4.73.49,9.45,1.07,14.19,1.46,2.9.24,6,.65,7.27-3.08.58-1.68,2.35-.72,3.38-1.42.1-.25.33-.51.3-.75-.45-4.08.45-4.87,4.85-4.25,2.85.4,5.53,3.74,5.22,6.49s-2.73,4.13-6.35,3.5a14.23,14.23,0,0,0-5.19-.35c-1.47.28-1.88,1.55-.82,2.55a7.69,7.69,0,0,0,2.55,1.62,28.57,28.57,0,0,1,6.64,3.24c1.54,1.08,3.31.85,5,.16,1.06-.43,1.94-1.3,3.24-1.27,1.78,2.76,1.31,5.89,1.23,8.9-.08,2.43.82,3.35,3.19,4.24a13.9,13.9,0,0,0,10.49,0c1.74-.66,3.53-1.22,5.51-.48s3.53-1.07,5.4-1.24A34.65,34.65,0,0,0,584.51,923a12.79,12.79,0,0,1,8.89-1.39,69.91,69.91,0,0,1,8.5,1.85,4,4,0,0,0,3.67-.28,6.38,6.38,0,0,1,7-.1,3.58,3.58,0,0,0,4.36-.12c2.6-1.83,6.77.58,7.16,3.75.41,3.35,1.61,4.66,4.94,5a18.22,18.22,0,0,0,4.78-.13c2.6-.42,5.1-1.12,7.49.8a3.27,3.27,0,0,0,2.53.29c3.85-1.14,7.75-.3,11.63-.47a4.17,4.17,0,0,1,3.75,1.67c3.18,3.84,5.64,4.48,10.29,2.82,4.24-1.52,8.45-3.15,12.64-4.81,2-.79,3.87-1.18,5.85,0s4.53.54,6.67,1.14c.27,1.44-.73,2-1.46,2.63a3.44,3.44,0,0,0-1.23,3.53c1.46,4-.58,7.55-1.1,11.26-.33,2.34,1,4.15,1.45,6.23a1.26,1.26,0,0,0,1,.67c1.9-.06,3.23,1.19,4.81,1.87,2.32,1,3.9.18,5.62-1.84,2.92-3.41,5.76-7.05,11-7.05,2.56,0,4.67-1.42,6.73-2.85,3.8-2.64,5.52-2.48,8.91.73,2.56,2.42,7.2,1.49,9.22-2,1.32-2.29,3.28-4,4.85-6.08A2.34,2.34,0,0,1,747.09,939.11Z"/><path id="patras" class="cls-1" d="M287.66,676.74c-2.22-4.42-4.51-8.81-6.66-13.26-3.19-6.59-8.66-10.83-14.68-14.51a12,12,0,0,1-3.72-3A9.69,9.69,0,0,0,252,642c-1.65.35-1.86-.66-1.48-1.66a12.57,12.57,0,0,0,.56-6.38c-.71-6-4.26-9.29-9.71-11-2.5-.78-5-1.59-7.51-2.28-2.17-.59-2.93-1.84-3-4.12,0-3,1.39-5.59,2.11-8.8,4.09,2.2,6.82-.05,9.66-2.38,2.29-1.9,4-4.43,7.06-5.57,1.55-.58,4.31-2.24,1.7-5a1,1,0,0,1,0-1.2c.24-.37.43-.76.67-1.13,3.36-5.31,6.6-10.66,5.36-17.23,1.59-.33,2.09,1.24,3.78-.12,1.92-1.56,5-.42,7.16,1.45a14.26,14.26,0,0,0,6.91,3.43c7,1.35,11.74-.61,15.22-6.86a57,57,0,0,0,3.11-6.26c2-5.1,7-6.73,11-9.5a2.85,2.85,0,0,1,2.1,0c2.42.67,5,.28,7.33.79,3.16.69,6.93.87,8.46,4.87a5.92,5.92,0,0,0,5.95,3.69c3.09-.06,5,.94,5.79,4,.49,1.83,1.95,2.61,3.54,3.53,4.65,2.68,9.74,3.29,14.89,3.85a4.84,4.84,0,0,1,1.51.78c.52,3.35,2,7,1.78,9.85-.32,3.62-1.13,8-3.94,11.19a5.9,5.9,0,0,1-2.57,1.56c-6.06,1.27-7.62,5.82-8.34,11.08a5.14,5.14,0,0,0,.74,3.7c1.9,3,.95,4.79-2.39,5.72a7.18,7.18,0,0,0-4.31,2.73c-1.51,1.74-3,2.67-5,.43a3.27,3.27,0,0,0-5.3.17c-2.72,3.33-5.35,2.38-8.33.63-1.61-1-3.31-1.74-4.88-2.77-1.79-1.32-4.18-1.58-5.27-4.17s-3.19-1-4.1.3c-3.85,5.44-7.82,10.88-4.46,18.23,1.68,3.67.51,7.74.65,11.62.09,2.4.23,3.55,3.36,4.14,6.14,1.15,10.39,5.77,14.32,10.41.55.66,1.06,1.53.48,2.39a2.25,2.25,0,0,1-2.33.74c-3.43-.33-6.07,1.69-6.45,4.88-.6,5-2.86,6.4-8.06,6.78C295.54,678.73,291.57,678.47,287.66,676.74Z"/><path class="cls-1" d="M302.51,549.13c-2.69,2.16-5.94,3.84-6.35,7.67a2.21,2.21,0,0,1-2.52-.85c-1.79-2.2-4.18-2.6-6.69-2.19-5.26.87-10.52,1.75-14.29,6.19-1.49,1.75-3,1.43-3.8-.63a9.68,9.68,0,0,1-.29-2.12c-.56-3.86-.56-3.86-4.27-4.72-.54-.12-1.34,0-1.45-.68-.38-2.46-2.28-2.7-4.17-3.06-1.17-.21-1.61-1.07-1.75-2.19-.2-1.59-.57-3.16-.69-4.74-.18-2.48-1.92-3.82-3.59-5.21a1.49,1.49,0,0,0-2,0c-.71.64-.31,1.32,0,2,.64,1.14,1.36,2.24,2,3.4,1.85,3.59,1,6.17-2.28,8.35-1.93,1.27-4.16,2.15-5,4.92a3.23,3.23,0,0,1-4.77,1.65c-2.08-1.07-2.87-.52-3.22,1.61a2.07,2.07,0,0,1-1.83,1.91c-1.32-1.85-1.5-5.22-5.14-4.46.37-1.7.45-3.13,1.77-4.16,1-.79,1.95-1.92,1.07-3.38-.76-1.23-1.86-1.19-3-.54a1,1,0,0,1-.81,0,1.58,1.58,0,0,1-.94-1.35c-.07-.59.39-.74.8-.72,3,.14,2.12-1.31,1.79-3.31-.5-3.13-2.6-6-1.54-9.46.38-1.26-1-1.91-2.36-1.23s-2.11,2-3.63,2.37c-2-2-1.93-4.57-1.36-6.92,1.22-5-2.51-8.39-3.8-12.55-.38-1.23-1.87-1.25-3.06-1.18-2.84.17-4.27-1.3-4.82-4-.5-2.42-1.05-4.83-1.69-7.21a15.44,15.44,0,0,0-1.38-3.65c-1.16-2.07-2.35-2.21-4.21-.63a6,6,0,0,0-1.41,1.64c-.78,1.41-2.23,1.15-3.41,1.58-1.71.64-1.68-1.17-2.55-1.7-2.54-1.56-2.78-3.53-1.89-6.27.74-2.28,1.74-3.57,4.21-3.49.69,0,1.57.12,1.85-.73a1.7,1.7,0,0,0-1.16-2.09c-3.43-1.47-3.72-4.08-2.83-7.5,1.9,1,3.16,3.27,5.55,2.84a5.15,5.15,0,0,0,3.25-2.62c1.78-.25.76,2.55,2.65,2.22,1.13-.2,2.41.12,3.26-.87,2.51-2.91,5.36-1.85,8.23-.81,1.84.65,3.49,1.34,2.95,3.88a2,2,0,0,0,1.5,2.35c1.67.64,2.87,2,4.4,3.24.88-1.41,2.17-2.41,1.93-4.22s.84-1.58,1.89-1.19c1.59.58,2.42,2,3.47,3.22.59.65,1.29,1.4,2.2.71s.65-1.53.11-2.34c-.71-1.05-.81-2.34-1.89-3.33-2.14-2-1.62-4.64-.34-6.7,1-1.65,1.08-3,.23-4.37a27.72,27.72,0,0,0-7-7.64c-.33-.25-.83,0-1.12.38-1.09-1.83-.39-3.43,2.15-3.95a30.22,30.22,0,0,1,8.59-.71,15.55,15.55,0,0,0,10.3-2.4c2.52-.83,3.69-4.85,6.23-4.06,2.05.64,1.58,4.46,3.34,6.39,2,2.22.74,4.72,0,6.94-1.81,5.33-1.91,5.28,3,8.26a29.9,29.9,0,0,1,2.63,1.52c2.63,1.42,4.28,3.28,3.48,6.62-.52,2.17.85,3.45,2.72,4.36a48.74,48.74,0,0,0,8.19,2.77c1.15.33,2.25.89,2.35,2.23s-1.22,1.43-2,2c-.48.33.15,0-.39.19-5.54,2.13-7.6,6.23-1.73,12.4,4.57,3.5,9.14,6.94,15.45,4.5.92-.36,1.61.31,2.28.92,2.61,2.37,5.32,1.69,5.9-1.92.48-3,1.54-3.9,4.51-3.6,2.58.27,4.72-1.36,6.63-2.92,3-2.43,5.33-1.14,7.7.85.86.73,1.39,1.73.65,2.68-1.79,2.3-1,5-1.42,7.53-.19,4.17-2.81,8.15.5,12.58,2.18,2.93-1.46,9.82-5,10.7a9.93,9.93,0,0,0-7.78,8.28C305,548.67,303.74,548.52,302.51,549.13Z"/><path class="cls-1" d="M403.16,493.35c.72-3.35,3.26-4.27,5.58-5.3,4.24-1.87,8.53-3.63,12.81-5.42,1.23-.52,2-2.07,2.8-2.39,3.43-1.38,5.28-3.82,6.74-7a3.86,3.86,0,0,1,4.16-1.85c3.85.54,7.11-.92,10.25-2.92,2.11-1.35,4.22-2.15,6.1.45.55.76,1.56.68,2.37,1,1.84.66,3.45,1.32,2.85,4-.37,1.67,1,3.13,2.57,3.64,2,.66,2.51,2.18,3,3.9s1.15,3.3,1.51,5a11.34,11.34,0,0,0,6.78,8.42c3,1.43,5.38,4,8,6.12a12.1,12.1,0,0,0,10.15,2.52c3.18-.7,3.35-.73,4.5,2.24a8.41,8.41,0,0,0,4.73,4.82c3.33,1.5,6.66,2.85,10.42,3a18.72,18.72,0,0,1,4.66,1,5,5,0,0,0,3,.27c6.26-1.88,10.89-1.6,16.5,1a4.73,4.73,0,0,1,.76.65c-.4.64-.83,1.21-1.15,1.84-1.49,2.94-1.16,4.66,1.32,6.92,2.78,2.52,6.06,4.52,8.4,7.82a12.57,12.57,0,0,0-3.78,6.28c-.51,1.83-.91,3.74.13,5.5.65,1.09,1.24,1.93-.08,2.94a1.05,1.05,0,0,0,.06,1.57c1.86,1.92,2.28,4.27,2.29,6.81a5,5,0,0,0,1.36,2.69c2.07,2.92,3.43,5.94,2.21,9.72-.69,2.11,1.1,3.42,2.48,4.71,2.18,2,5.64,2.58,6.63,6a1.24,1.24,0,0,0,1.09.54c3.08-.81,5.54,1,8.27,1.74s5.61,1.21,8.49,0a19.64,19.64,0,0,1,4.7-.88c1.22-.19,2.11.27,1.86,1.64a20.09,20.09,0,0,0,.5,9.38c1.33,4.72-2.59,10.85-6.85,12.23-2.59.85-3,.68-4.28-1.84a25.48,25.48,0,0,0-1.34-2.24c-1-1.63-2.17-3.41-4.47-2.42-1.79.77-3.85,1.59-2.32,4.45.48.89-.8,1.38-1.71,1.1-2.09-.67-5.15-5.32-5.08-7.57.13-4-3.31-8.05-7.1-7.92-2.41.08-4.06,0-4-3a1.31,1.31,0,0,0-1-1.25c-1.76-.52-1-1.37-.26-2.14,1.74-1.75,1.78-3.53.21-5.41a2.93,2.93,0,0,1-.59-1.15c-.74-3.07-2.36-4.93-5.89-4a6.25,6.25,0,0,1,1.77-3.36c.73-.87,1.15-1.75.28-2.7s-1.54-.43-2.3.14c-.53.39-1,1.21-1.8.31a1.79,1.79,0,0,1-.4-1.59c.66-3.78.65-3.79-2.8-5.08-.66-.25-1.36-.42-2.14-.65-.12-1.29.35-2.49.14-3.8-.73-4.54-.64-4.4-5.18-4.83a32.08,32.08,0,0,0-6.93.19,15.09,15.09,0,0,1-7.73-.71,5.11,5.11,0,0,0-3-.52c-4.13,1.11-8.08.34-12-.78-1.5-.43-2.9.15-4.28.51a2.71,2.71,0,0,1-3.53-1.65c-.86-1.65-1.07-3.62-2.56-5-.77-.72.22-1.21.58-1.75,3.93-5.89,1.18-12.51-5.74-13.66-3-.5-5.89-1-5.7-5.1a1.1,1.1,0,0,0-.29-.8c-3.42-2.62-5-7.07-9.1-9a18.92,18.92,0,0,1-7.61-6.91,4.86,4.86,0,0,0-1-1.39c-4.6-3.31-9.17-6.68-13.9-9.8a9.42,9.42,0,0,0-8.33-1.47c-2.3.76-3.8-.12-5.3-1.84-2-2.33-6.19-3.23-9.22-2.31.06.26,0,.63.19.77.94.79,2.81.93,2.43,2.62-.44,2-2.36,1.8-3.91,2C410.6,492.61,407.15,493,403.16,493.35Z"/><path id="attica" class="cls-1" d="M433.52,602.05c0-1.17-.75-2-1.22-3-1.08-.62-1.43-1.84-2.21-2.71l.06.08c-.66-.87-1.12-1.86-1.81-2.7l.05.07c.46-1.59,1.91-1.56,3.13-1.89a21.68,21.68,0,0,0,8.14-3.76c2.15-1.69,2.34-2,.54-3.89a20.3,20.3,0,0,0-2-1.62c.1-1.32,1.22-1.09,1.95-1.2,2.53-.41,2.12-1.8,1.26-3.4,4.15-.14,6.5-1.8,6.44-6.44,0-2.19,4.55-4.87,6.69-4.42a2.64,2.64,0,0,1,2.19,3.58c-.76,2.89.38,4.28,3.2,4.18,2.55-.09,3.44,1.8,4.66,3.38,1.7,4.17,6,4.2,9.34,5.57,2.27.94,7.12-3.82,7.25-6.79.07-1.74.46-3.46.43-5.18-.16-8.46,6.05-12.73,13.19-13.93a5.09,5.09,0,0,1,4.87-.3c4.41,1.84,8.64,4.21,13.4,5.17a4,4,0,0,1,2.54,1.6c2.53,3.63,6.25,6.05,9.31,9.13a4.57,4.57,0,0,1-1.45,7.64c-6,2.77-6,2.77-4.39,9.15.61,2.38.93,4.86,2.38,7a3.29,3.29,0,0,1,.11,3.72c-1.32,2.13-1.31,4.34-.94,6.7.13.88,0,1.41,1,2,2.29,1.42,2.2,1.55-.24,3.14-.24.16-.45.36-.67.54a1.75,1.75,0,0,0,1.13,1.69c2.78,1.17,4.32,2.87,3,6.07-.52,1.24.56,1.74,1.27,2.46,2.11,2.17,2.68,5.2.86,7.44s-1.63,4.49-1.53,6.88c.17,3.66-1.78,5.25-5.17,4.07a18.22,18.22,0,0,0-2.89-1c-2.27-.39-3.22-1.69-3.18-3.93,0-1.41.33-3-1.84-3.31-1-.16-1-1.32-1.14-2.16-1-4.87-4.21-7.72-8.61-9.67-1.32-.59-1.75-.86-2.62.55-1,1.67-2.18.93-2.81-.55a138.74,138.74,0,0,0-7.31-13.73c-.74-1.32-1.71-2.19-3.09-1.7-2,.7-3.59-.35-4.75-1.23a11.1,11.1,0,0,0-5.5-2.18c-.5-2,1.26-2.57,2.06-3.63a3.74,3.74,0,0,0,.48-4.43c-.79-1.46-2-1.34-3.35-1.29a22.81,22.81,0,0,0-16.16,7.13c-1,1.11-1.76,1.65-2.94,1.38-4.23-1-8.39.29-12.58.24-3.11,0-5.29,2.16-7.8,3.37C434.55,605.08,434.88,603,433.52,602.05Z"/><path class="cls-1" d="M168.34,577.59c.76.09,1.51.74,2.12.24.77-.63.11-1.28-.35-1.81-2.18-2.48-2.75-5.72-4.06-8.61-.57-1.26-1-3.34-2.62-3-1.77.39-1.59,2.48-1.5,4.06.06.85.36,1.7.5,2.55.78,4.66.1,5.93-4.34,8.17a15.75,15.75,0,0,0-2.2-2c-1.83-1.13-1.64-2.39-1.3-4.39.85-5.17,5-9.08,5.16-14.41.05-1.51,1.21-2.22,2.35-2.92.66,0,.94.56,1.18,1.06,1,2,2.72,4.18,4.67,3.75,2.17-.48,4.72-2.16,5.38-4.6s2-5.08,1-7.9c-.74-2-.2-4-.1-6.05,0-.78.21-1.45,1.16-1.48a1.27,1.27,0,0,1,1.35.87c1.7,4.94,3.44,9.86,5,14.83a3.45,3.45,0,0,1-1.25,3.52c-.72.71-1.63,1.51-.92,2.62,1.14,1.81,1.45,4.18,3.47,5.4.69.42,1.36-.08,2-.36,2.95-1.25,2.95-1.23,4.19,1.83.32.8.52,1.86,1.13,2.3,3.86,2.76,4.82,7.52,7.69,10.94a7.14,7.14,0,0,1,1.55,4.44c.12,3.15-.49,3.19-3.72,4s-5.22-.21-7.05-2.6-4.49-3.14-7.19-3.77a5.1,5.1,0,0,0-4.53,1c-.79.65-.93,2.33-2.61,1.34s-4.43-.92-5-3.62C169.1,581.25,168.73,579.42,168.34,577.59Z"/><path class="cls-1" d="M131,423.94a9.91,9.91,0,0,1-5.38-1.87,8.31,8.31,0,0,0-3.53-1.62,9,9,0,0,1-5.33-2.7,3.67,3.67,0,0,0-2.67-1.33c-1.2,0-1.68-.34-1.68-1.76s-1.73-1.41-2.71-1.67c-2.61-.69-3.81-2.45-4.37-4.86a23.49,23.49,0,0,1-.94-4.69,10.68,10.68,0,0,0-6.27-9.74,10.59,10.59,0,0,1-5.15-6.13c-.59-1.49-1-2.95-3.13-3-1.46-.06-2.24-1.28-2.23-2.77a4.93,4.93,0,0,0-1.92-4.32c-2.7-2.34-.9-7.12,2.74-7.87a23.17,23.17,0,0,1,5.2-.33,16,16,0,0,0,9.56-2.45c1.46-1,2.64-1,3.82.32s2.78,1.53,4.14,2.32c3.37,2,3.48,5,.19,7.14a32.79,32.79,0,0,1-5.12,2.4c-1.66.72-3.68,1.7-3.24,3.57.53,2.26-.14,5.3,2.86,6.59,1.33.57,2.6,1.3,3.93,1.88,1.77.76,3.38,1.45.35,2.82-.91.41-.45,1.17-.26,1.86A104,104,0,0,1,112,408.11c.18,1.16.12,2.72,1.19,3.13,3.93,1.53,7.44,4.77,12,4,2.14-.35,2.92.15,3.46,1.94A29,29,0,0,0,131,423.94Z"/><path class="cls-1" d="M597,260.43c-4,2.71-9.15,2.25-12.2,6a6.34,6.34,0,0,1-3.36-2.85,10.16,10.16,0,0,0-7.91-4.55c-1.77-.13-1.86-1.5-2-2.86-.49-5.44,2.61-9.32,5.75-13.17.45-.55,1.2-.88,1.6-1.46,3.3-4.68,7.67-3.3,12-2.16.69.18,1.48.42,1.71,1.2.62,2.13,2.32,3.17,4.61,3.89-1.89,2-2.86,3.67-.25,5.2a1.44,1.44,0,0,1,.53,1.9C595.82,256.1,595.83,256.1,597,260.43Z"/><path class="cls-1" d="M217.66,635.28c-1.82-.58-3.2-1-4.53-1.46-3.08-1.16-5.41-.59-7.7,2.06-1.42,1.65-2.19,2.92-1.35,4.92a1.78,1.78,0,0,1-.47,2.34,2,2,0,0,1-2.8-.26c-3-4.62-8.73-6.66-11-12.12-1.14-2.69-3.48-5-5.7-7.09-2.56-2.35-1.84-5.17-1.16-7.53a12.78,12.78,0,0,1,4.34-5.9c1.29-1.06,2.4-1,3.17.57.85,1.69,1.65,3.41,2.43,5.13,1.4,3.08,2.75,4.12,6,3.87a9.06,9.06,0,0,1,9.15,4.73,24.27,24.27,0,0,0,9.19,9.52C217.37,634.17,217.39,634.55,217.66,635.28Z"/><path class="cls-2" d="M263.12,476.64c-1.89-1.09-3.79-2.15-5.64-3.29s-2.5-2.73-1.29-4.78a12.8,12.8,0,0,0,1.19-2.33c.85-2.52,1.52-5.1-.55-7.36-1.38-1.5-1.61-3.33-1.73-5.34-2.76.21-3.79,2.83-5.91,3.7a.64.64,0,0,1-.11-1.11l5.24-4.87c-2.69-3.12-2-6.31,0-9.53a30.24,30.24,0,0,0,2-3.89c1.6-3.57-.41-7.17-4.3-7.49-4.82-.41-8.83-1.69-10.1-7.16-.37-1.6-2-2.47-3.29-3.37a5.22,5.22,0,0,1-2.44-3.94c-.15-2.05-.2-4-1.5-5.79a2.33,2.33,0,0,1,0-2.5c1.29-2.5.13-5.17.52-7.73a2.4,2.4,0,0,0-1.34-2.55c-2.39-1.28-2.9-3.44-2.95-5.89a14.16,14.16,0,0,0-.35-2.58c-.58-3.08.49-4.71,3.5-5a11.36,11.36,0,0,1,5.8.78c1.24-2.31.2-4.26-.32-6.13-1.56-5.62-.27-8.45,6.77-12.07.13-.07.24-.15.47-.29-4.52-4.5-9.65-3.47-14.82-1.74-4.15,1.38-5.31.95-6.79-3.14a22,22,0,0,1-1.21-5.05c-.19-1.67-.54-3.18-1.95-4.17-1.93-1.36-1.43-2.87-.49-4.52,1.16-2.05,2.05-4.18,1.09-6.58-.32-.08-.64-.27-.86-.19-4,1.38-4.87,1-6.58-2.74-.95-2.1-.9-4.53-2.47-6.45-.74-.9.12-2,.69-2.78,2-2.64,1.71-5.45.73-8.27-1.13-3.29-2.24-6.6-4.72-9.22a18.05,18.05,0,0,1-3.92-7.19c-1.32-4.13-2.47-4.59-5.74-1.92-2.1,1.72-4.18,1.7-6.52,1.24l1-1.66a2.58,2.58,0,0,0,3.56.22,24.24,24.24,0,0,1,2-1.66c3.28-2.05,5.44-1.42,6.61,2.36a28.85,28.85,0,0,0,5,9.05A25.29,25.29,0,0,1,216,322.85c.22,1.27.49,2.8-.26,3.84-2.72,3.79-.24,7.21.66,10.66.65,2.49,1.62,2.72,4.53,2.18,2.62-.48,3.82.64,3.59,3.28s-2.55,4.67-2.08,6.94,2.68,3.94,3,6.52A14.28,14.28,0,0,0,227,362.1c.88,1.52,1.9,2.11,3.54,1.47a36.85,36.85,0,0,1,5.84-1.7c5.4-1.14,9.69.44,13,5.21a2.39,2.39,0,0,0,3,1c2.37-.67,4.71-1.5,6.28-3.62a6.21,6.21,0,0,1,2-2.22,1.24,1.24,0,0,1,.85.74c-1.94,2.57-3.93,5-7.3,5.9-2.09.54-3.84,1.24-6.12-.22-2.6-1.66-7.24,1.95-7.55,5.59a10.8,10.8,0,0,0,.37,3.88,20.13,20.13,0,0,1,.66,4.74c.19,3.92.18,4-3.68,2.43a5.94,5.94,0,0,0-4.25-.1c-.8.27-1.91.86-1.71,1.75.73,3.21-.58,7.07,3,9.42a3.55,3.55,0,0,1,1.65,4.48c-.82,2.54,1.39,5.34-.65,8-.38.51,1.23,2.26,1.34,3.49.35,3.63,1.45,6.7,4.83,8.61a2.27,2.27,0,0,1,.95,1.41c1,5.22,5,6.33,9.38,6.78a6.35,6.35,0,0,1,5.32,8.92,31.43,31.43,0,0,1-2.4,4.65c-2.33,3.36-1.77,6.2,1.34,8.94,1.62-.6,2.6-2.1,3.76-3.3a28.19,28.19,0,0,1,4.48-3.46c.75-.51,1.87-1,2.43-.52,2.89,2.7,4.25.21,6.26-1.34,2.57-2,6-2,9.06-2.91,1.48-.44,2.48.82,3,2a18.68,18.68,0,0,1,1.1,4.2c.2,1.15.12,2.43,1.33,3,2.37,1.22,2.48,3.21,2.36,5.55-.19,4,.85,4.58,5.12,3.29.9-.45,1,0,.85.75a5.29,5.29,0,0,1-2.34,1.08c-3.57.46-5.64-1.48-5-5,.26-1.54.59-3-1-3.85-2.4-1.33-2.71-3.53-3-5.88-.46-3.64-1.25-4.18-4.87-3.27-3.05.76-6.3,1.14-7.93,4.59-.66,1.38-2.08,1.47-3.3.33-1.77-1.67-3.29-.92-5,.23-2.6,1.7-4.3,4.31-6.79,6.11-1.28.92-1,2.46-.08,3.47,3.64,3.87,2.73,7.86.56,12-.92,1.74-.5,3,1.25,3.94s3.46,2.14,5.18,3.22C264.1,476.61,264.05,477.15,263.12,476.64Z"/><path class="cls-3" d="M520.71,294.54c.09-2.86.92-5.79-1-8.46a1,1,0,0,1,.62-1.38c.5-.19.85.2,1,.54.84,1.52,1.56,3.11,2.45,4.61,2,3.32,4,6.16,8.75,5.84,2.3-.15,5.36.39,6.14,3.76a2.31,2.31,0,0,0,2.14,1.92c2.58.07,3.84,1.95,5.07,3.7,3.25,4.65,6.34,9.4,10.61,13.26,1.25,1.13,2.39,2.72,1.09,4.56s-5.64,3.14-7.12,2.34a2.94,2.94,0,0,1-1.37-2.13,4.68,4.68,0,0,0-2.37-3.5,12.72,12.72,0,0,1-6.1-7.15c-2.23-5.55-6.05-8.73-12.1-9.12a18,18,0,0,1-2.12-.49c-5.69-1.17-5.82-1.32-5.77-7Z"/><path class="cls-3" d="M179.73,519.81c-2.38.52-2.9,2.8-4.32,4.19-.65-3,0-9.94,1.34-13.3a44.68,44.68,0,0,0,1.88-5.77c1.11-4.28,3.68-7.83,6.57-11.08,1.78-2,2.9-1.81,4.7.08a4.62,4.62,0,0,1,1.36,2.67c.33,3,.69,6,.75,9.06,0,1.81-1.57,3-2.4,4.55s-1.33,2.5,1.07,3.05c1.23.28,1,4.38-.21,5-.56.27-1.48-.09-1.68.85-.55,2.57-2.76,2.38-4.61,3C181.62,523.06,181,520.75,179.73,519.81Z"/><path class="cls-4" d="M323.47,329.73c1.6-4.11,4.44-7.71,4.93-12.29a2.88,2.88,0,0,1,2-2.61c2.8-.81,3.74-2.91,4.1-5.53a30.77,30.77,0,0,1,.91-3.53c-3.09-1.14-5.32-3-5.5-6.53a5,5,0,0,0-1.77-2.94,7.67,7.67,0,0,1-2-3.33c-.3-1.07.4-2.62-.87-3.15a8.69,8.69,0,0,0-3.43-.14c-1.54.06-2.91-.15-3.59-1.8a6.34,6.34,0,0,0-4.16-3.57,8.84,8.84,0,0,1-5-4.54,27.44,27.44,0,0,0-2.3-3.69,2.75,2.75,0,0,1-.69-2.82c1.26-2.5.22-4.38-1.14-6.4s-.35-4.21.31-6.28c.87-2.76.66-3.52-2-3.9-2.3-.33-4.47-1.17-6.82-1.32-2.51-.16-2.93-1.11-2.09-3.44.34-1,.79-1.88,1.08-2.84s.2-2.17-.93-2.61c-2.71-1.07-3.3-3.42-3.88-5.87a16.33,16.33,0,0,0-1.76-4.43c-.83-1.44-.21-2.63,1.56-2.65a22.6,22.6,0,0,0,7.21-1.43c1.12-.39,2.2-1,2.2-2.4a2.43,2.43,0,0,0-1.85-2.2,4,4,0,0,1-2.89-3.44c-.17-2-2.23-1.53-3.2-2.48l4.45-.21c-.29,2.56.56,4.2,3.05,5.53,3.07,1.64,2.8,4.18-.33,5.94-2.72,1.52-5.77,1.83-8.94,1.84.72,2.36,1.38,4.54,2,6.72.51,1.72,1.18,3.25,3.09,3.91,2.15.73,2.41,2.21,1.58,4.17-.49,1.17-1.38,2.27-1.06,3.81,3.75,1.73,8,2.08,11.76,3.35.5,1.37-.09,2.26-.51,3.17-1.35,3-1.78,5.83.57,8.55a2.93,2.93,0,0,1,.26,3.63c-.83,1.44-.36,2.5.5,3.92,2.14,3.55,4.31,6.85,8.46,8.35a3.87,3.87,0,0,1,2.22,2c.8,2.43,2.31,2.52,4.44,2.09,3.53-.71,3.63-.59,3.89,3.38a4,4,0,0,0,.78,2.43c1.84,2.09,3.54,4.13,3.64,7.19,0,1.3,1.49,2.07,2.76,2.54,2.1.77,3.25,1.84,1.72,4.16a3.65,3.65,0,0,0-.47,2.09c.13,2.74-1.29,4.39-3.67,5.33s-3,2.52-2.06,4.88c1.41-.3,2.56-1.27,4.13-1.05,3.58.51,4.25,1.33,3.57,4.89a2.65,2.65,0,0,0-.13.86c.21,1.5-.84,3.63,1,4.34s2.56-1.39,3.4-2.66a9.09,9.09,0,0,1,5.1-3.86,5.26,5.26,0,0,1,6.92,4.5,10.94,10.94,0,0,1,0,2.62c-.57,4.43,1.44,7.64,4.94,10,3.17,2.12,6,4.36,7.94,7.84,2.1,3.7,5.18,4.39,9.42,3.21,2.76-.77,5.37-1.86,8.38-.14,1.26.71,3.38-.1,5.11-.23,0,.36.07.71.1,1.07-2.64.26-5.2,1.53-7.94-.36-1.4-1-3.33.36-5,.8-5.46,1.48-9,.36-11.72-4.45a15.41,15.41,0,0,0-5.74-5.76c-5.06-3-7.67-7.35-7.11-13.36.17-1.88-.25-3.42-2.08-4.38s-3.42,0-4.89.83c-1.7.94-2.38,2.88-3.61,4.29-.88,1-1.72,2.5-3.57,1.77-1.68-.66-1.85-2.05-1.8-3.58.05-1.87-.26-3.78.75-5.49-4.65-2.06-8.62-.42-10.52,4.06a52,52,0,0,1-2.5,4.57C323.49,330.69,323,330.64,323.47,329.73Z"/><path class="cls-3" d="M438.93,650.6a88.5,88.5,0,0,1,11.59,7.4,3.42,3.42,0,0,0,4.74-.1c.52-.42.92-1.34,1.74-1a19.35,19.35,0,0,1,2.92,1.84.74.74,0,0,1,0,.71c-2.05,2.14-.09,2.12,1.3,2.58a21.27,21.27,0,0,1,8.65,4.85c2.22,2.22,2,3.65-.92,4.77-1.46.58-3,.92-4.53,1.37-.85-3.4-3-4.33-6.31-3.59-5.4,1.2-9.58-1.78-13.8-4.41a20.71,20.71,0,0,0-2.61-1.53C434.38,660.36,433.6,656.78,438.93,650.6Z"/><path class="cls-3" d="M414.33,802.86c2.49,2.74,3.15,6.49,5.66,8.89s5.18,4.21,7.75,6.34a3.1,3.1,0,0,1,1.23,2.55c-3.86.79-4.59,3.67-4.33,7.17a14.33,14.33,0,0,1-.14,2.61c-.13,1.21-.72,1.48-2,1.53-4.31.19-7-2.81-10-5-1.54-1.11-1.65-3.23-1.19-5.25.65-2.86,1-5.84-.18-8.6a7.45,7.45,0,0,1,1.16-8.09C412.78,804.36,413.05,803.47,414.33,802.86Z"/><path class="cls-5" d="M563.93,485.71a4.6,4.6,0,0,0,1.91-6,4.37,4.37,0,0,1,.18-2.56c.59-1.9,2-2.48,3.68-1.47s3.39,2.27,5,3.44a4,4,0,0,1,1.94,4.49c-.79,3.21.6,5.19,3.36,6.72a16,16,0,0,1,6.22,5.36c.84,1.35,2,2.66.14,4.16-1.13.92-4.65,1.45-5.38.29-1.57-2.5-2.89-1.76-4.43-.16-.58.61-1.16.75-1.76,0s-.8-1.61.22-2.16,2.59-.77,2.05-2.7c-.48-1.71-.72-3.37-3.07-3.59C569.93,491.16,567.58,487.58,563.93,485.71Z"/><path class="cls-6" d="M287.66,676.74c4.77,1.19,9.64,1.27,14.5,1.44,1.92.07,5.31-3.35,5.11-5.62-.29-3.4,2.25-4.81,4.07-6.75.85-.9,1.85-.45,2.79.09a1.37,1.37,0,0,0,1.94-.32c.46-.71-.05-1.42-.51-2a23.35,23.35,0,0,0-2.68-2.85c-2-1.68-4.16-3.19-6.17-4.87-1.73-1.44-3.5-2.5-5.91-2.09-1.83.31-2.69-.71-2.72-2.5,0-1.6-.08-3.21,0-4.8.15-4.1.09-8.15-1.67-12-1-2.16-.49-4.45.12-6.41,1.13-3.6,3.37-6.76,5.68-9.73,1.5-1.93,4-1.54,5.11.78s3.36,2.14,4.8,3.51c.14.72.06,1.19-.84.75-2.16-1-4.8-1.26-5.5-4.33-.26-1.12-1.51-.45-2.19,0-3.23,2.08-7.33,11-6,14.62,1.81,5,1.65,10,1.53,15-.06,2.54.58,3.82,3.34,3.62a4.28,4.28,0,0,1,2.46.81c4.33,2.9,8.67,5.81,12,10,.74.94,1.47,1.86.52,3.08a3.22,3.22,0,0,1-3,1.4c-3.31-.35-5.65,1.08-5.58,4.12s-1.88,4.43-3.31,6.34a2.82,2.82,0,0,1-2.65,1.28c-3.42-.85-6.91.79-10.33-.49a13.71,13.71,0,0,0-3.87-.3Z"/><path class="cls-6" d="M414.42,477.47a18.5,18.5,0,0,0-3.9.36c-2.65.81-4.83.46-6.6-1.8a3.22,3.22,0,0,0-2.7-1.2,24.67,24.67,0,0,1-15.81-5c-1.38-1.05-2.92-1-4.54-1.09-2.75-.08-5.43.78-8.22.23-3.2-.62-4.26-1.49-4.57-4.71a25.39,25.39,0,0,1-.09-4.36c.14-2-.78-2.47-2.6-2.38-4.41.22-4.5.18-5.35-4.37-.59-3.14-2.85-4.63-5.34-5.89-3.22-1.64-6.91-2.25-9.92-4.4-1-.7-1.94-.21-2.7.62l-4.71,5.15c-.71.17-1.1,0-.74-.79,1.68-2,3.39-3.95,5-6a2,2,0,0,1,3-.59c3.2,2,6.82,3.15,10.23,4.73s6.58,3.31,6.3,7.89c-.1,1.73.93,2.57,2.73,2.61s3.84-.9,5,.38-.22,3.27.1,5c.19,1,.28,2,.46,3,.36,2,1.41,3.11,3.56,3s4.45.29,6.5-.22a8.08,8.08,0,0,1,7.28,1.63A21.31,21.31,0,0,0,401,473.35a4.45,4.45,0,0,1,3.52,1.45c2.52,2.75,5.62,2.21,8.43,1.17a10.35,10.35,0,0,1,6.65-.32,2.29,2.29,0,0,1-1.88,1.71,3.21,3.21,0,0,0-3.34.15Z"/><path class="cls-7" d="M495.64,186.51c3.09,2.84,5,6.76,8.67,9.1a15.46,15.46,0,0,0,4.62,2.33c1.65.41,3.4.79,4.58,2.29.77,1,1.56.67,2.64.18,3.12-1.41,5.62-.66,7.25,2.45a14.43,14.43,0,0,0,5.38,6.13c3.79,2.18,3.57,5.92,3.27,9.07a10.1,10.1,0,0,1-4.77,7.92c-2.15,1.27-3.63,3.23-5.24,5.13-3,3.53-6.39,6.75-11.5,7.21a4.6,4.6,0,0,0-3.52,1.44l-6.24-.17a87.27,87.27,0,0,1,9.18-2.4c5-.76,8.45-3.74,11.43-7.37a20.81,20.81,0,0,1,4.62-4.56c4.54-3,5.14-7.36,4.41-12.26a3.06,3.06,0,0,0-1.43-2,23.45,23.45,0,0,1-7-7.64c-1.24-2.38-3-2.89-5.47-1.38-1.66,1-2.55.76-3.67-.47a5.1,5.1,0,0,0-2.85-1.88c-5-.89-8.58-4-11.54-7.92-1.14-1.51-2.38-2.93-3.58-4.39A1.33,1.33,0,0,1,495.64,186.51Z"/><path class="cls-8" d="M469.3,604c-2-.71-2.89,2.07-4.69.79.3-1.91,2.33-2.4,3.21-3.92s2.78-.83,3.85,0c3,2.29,2.22,9.09-1.3,10.67a20.77,20.77,0,0,0-2.86,1.75c-1.56,1-5.28.43-6.47-.91a1.64,1.64,0,0,1-.23-2,3.73,3.73,0,0,1,3.52-2.06C468.2,608.33,468.2,608.26,469.3,604Z"/><path class="cls-8" d="M471.74,629c3.08-.23,3.16,0,2.23,2.9-.62,1.89-1.86,3.48-2.06,5.62-.19,1.94-2.34,2-3.85,2-1.26,0-2-.86-1.4-2.43.52-1.34-.56-2.17-1.57-2.75a4.5,4.5,0,0,1-2.1-2.1c-.71-1.62-.33-2.5,1.38-2.67C466.82,629.28,469.28,629.16,471.74,629Z"/><path class="cls-9" d="M494.84,557.94c-.89,1.11-2.29,1.19-3.48,1.61-6,2.12-8.39,5.14-8.83,11.32-.17,2.3-.46,4.6-.76,6.89-.33,2.57-5.42,7.79-7.39,7-3.58-1.44-8.17-1.51-10-5.94a1.31,1.31,0,0,1,.75-.87c1.78,3.57,5.59,3.86,8.7,5.09,2.32.92,6.69-3.45,6.92-6.52.18-2.46.15-4.92.48-7.38.7-5.16,3.58-8.43,8.24-10.28,1-.4,1.59-.6.84-1.69A5.47,5.47,0,0,1,494.84,557.94Z"/><path class="cls-7" d="M465.1,578l-.75.87c-1.38-1.89-2.72-3.49-5.53-3.53-2.59,0-3.3-1.46-2.9-4.09.53-3.42-.42-4.14-3.73-2.92-2.18.81-3.94,1.83-3.82,4.56a5.73,5.73,0,0,1-.38,1.69c-.84,3.29-1,3.45-4.36,3.5-.73,0-1.45,0-2.18,0-2.31,1.13-4.64,1.56-7,.09a10.52,10.52,0,0,1,8.49-1.61c3.14.63,3.26.43,3.76-2.85.67-4.5,2.26-6.23,6.4-7,3.17-.59,5.07,1.12,4.42,4.34-.4,2-.1,3.48,2,3.2C462.77,573.74,464,575.64,465.1,578Z"/><path class="cls-6" d="M438.93,650.6a18,18,0,0,0-2.51,5.94c-.71,2.8.11,4.35,2.85,5.47a58.78,58.78,0,0,1,10.52,5.69c2,1.36,5.08,1.59,7.81,1.33.57,0,1.13-.25,1.7-.29,4-.32,4.54.1,5.13,4.32l-1.22.1c-.56-3.19-1.2-4.1-3.61-3.2-3.17,1.18-6-.22-8.94-.33-2.33-.08-3.64-2.59-5.82-3.53-2-.83-3.72-2.1-5.81-2.83-3.6-1.25-4.45-3.28-3.81-7.07.39-2.31,2-4.2,2-6.6Z"/><path class="cls-4" d="M302.51,549.13c.51-1,1.84-.84,2.16-2.67a10.91,10.91,0,0,1,8.36-9c3.49-1,4-1.7,4.15-5.53a7.3,7.3,0,0,1,.54-3,1.65,1.65,0,0,0-.14-2c-4-3.93-.59-8-.23-12a1.54,1.54,0,0,1,.74.9c-.9,2.26.74,4.86-1.06,7.08-.57.7.35,1.58.85,2.28s1.52,1.4,1.48,2c-.16,2.41-1.16,4.64-1.18,7.17,0,3.06-2.8,3.59-5.21,4.27a10.12,10.12,0,0,0-7,8.5c-.08,1,0,2-.76,2.85C304.6,549.06,303.5,549.26,302.51,549.13Z"/><path class="cls-10" d="M181.75,540.46a5.76,5.76,0,0,0,3.72-3.48c.89.55.95,1.13.75,1.66-.53,1.45-.9,2.55,1.3,3.07,2,.46,2.65,2,1.81,4.08-.75,1.86-1.3,3.8-2.71,5.33C183.11,548.49,186.15,543.05,181.75,540.46Z"/><path class="cls-11" d="M458,687.31c7.16-5.83,7.16-5.83,18-7.37-.4,1.7-1.84,1.77-3,1.9-1.68.21-3.55-.18-3.37,2.52,0,.33-.79,1-1.23,1C465.18,685.51,462.12,687,458,687.31Z"/><path class="cls-8" d="M465.2,454a15.91,15.91,0,0,0-5.22-2.24,13.41,13.41,0,0,0,4.19-4.45c.6-1,1.51-2.4,3.09-1.79a4.88,4.88,0,0,1,2.87,3.09c.19.56.1,1.43-.5,1.45C467.12,450.08,466.61,452.39,465.2,454Z"/><path class="cls-10" d="M456.67,655.44c-1.15-2.22-1.66-4.59-3.84-5.88-1.34-.8-.9-1.62.16-2.29a5.81,5.81,0,0,1,1.2-.52c1.68-.55,3.66-1.18,5,0s.58,3.23,0,4.86A7.13,7.13,0,0,1,456.67,655.44Z"/><path class="cls-12" d="M495.64,186.51l-.77.77c-.67-.55-1.32-1.13-2-1.64-3.46-2.47-4.47-5.63-2.52-9.47.82-1.64.24-2.41-1.22-3-.41-.16-.76-.48-1.17-.6-5.41-1.49-7-5.57-7.17-10.59l1.64-.12c.09,1.3.11,2.6.29,3.88a5.17,5.17,0,0,0,3.44,4.56,19.17,19.17,0,0,1,1.95.92c4.33,2.13,4.36,2.14,2.84,6.59a4.6,4.6,0,0,0,1.28,5.46C493.36,184.34,494.9,185,495.64,186.51Z"/><path class="cls-6" d="M249.08,456.13l.11,1.11a13.29,13.29,0,0,1-9.61,2.92,44.9,44.9,0,0,0-9.4.68c-1.87.24-3.55.9-2.9,3.41.06,1.75-.87,2.59-2.54,2.74,1-6.5,2.44-7.79,8.95-7.89a26.79,26.79,0,0,1,3.47,0A17.79,17.79,0,0,0,249.08,456.13Z"/><path class="cls-13" d="M187.63,552.91c1.79-.2,3.83.38,5-2.85.8,3.47.43,6,2,8C190.41,559.36,190.41,559.36,187.63,552.91Z"/><path class="cls-7" d="M351.45,599.83c2.27-3.21,2.19-7.33,4.17-10.67a1.86,1.86,0,0,0-.22-1.62c-2-2.7-1.22-5.76-1.21-8.73l2.53,1.73c-2.18,1.23-2.15,3.07-.85,4.74,1.82,2.35,1.39,4.47,0,6.74a12.45,12.45,0,0,0-1.19,4.12,6.61,6.61,0,0,1-2.42,4.43A1.26,1.26,0,0,1,351.45,599.83Z"/><path class="cls-14" d="M531.37,994.79c-3.1-.79-3.1-.79-5.65-3.1,1.19-1.66,2.8-2.76,4.74-1.79C532.71,991,531.15,993.06,531.37,994.79Z"/><path class="cls-15" d="M526,432.93a26.74,26.74,0,0,1-1.51-4.16c-.17-.89.32-2.58,1.3-2s3.29-.06,2.88,2.18C528.42,430.4,528.18,432,526,432.93Z"/><path class="cls-16" d="M214.51,517.74c-1.6,3.3-4.88,3.7-6.87,6C208.43,519,209.8,517.75,214.51,517.74Z"/><path class="cls-17" d="M431.69,690.21a5.5,5.5,0,0,1,3.26,1.95,1.85,1.85,0,0,1,0,2.7,1.73,1.73,0,0,1-2.32-.36c-.72-.68-1.35-1.47-2-2.21a1,1,0,0,1,0-1.52A3.92,3.92,0,0,1,431.69,690.21Z"/><path class="cls-18" d="M139.07,448.68c-4.07-1.13-5.5-3.44-6.34-7.28C135.64,443.46,137.9,445,139.07,448.68Z"/><path class="cls-19" d="M197.51,514.53c.8,0,1.66.45,1.59,1.14-.2,2.07-2.25,2-3.59,2.6-.9.44-1.34-.33-1.42-1.07C194,516,195.83,514.63,197.51,514.53Z"/><path class="cls-20" d="M471.15,660.6c-2.65.82-4.6.89-6.83-.09C467.73,658.06,467.73,658.06,471.15,660.6Z"/><path class="cls-21" d="M452.53,870.18c-2.34-1.6-3.65-2.87-4-5.47C451.33,865.44,452.64,866.74,452.53,870.18Z"/><path class="cls-1" d="M729.32,461.05c4.18-.4,7.32-.93,9-4.3a1.45,1.45,0,0,1,1-.72c4,0,5.83-3.51,8.55-5.5,2-1.45,1.61-3.16-.53-4.46a9.12,9.12,0,0,0-12.67,3.56,54.94,54.94,0,0,1-5.34,7.95c-1.84,2.44-3.05,2.56-6.1,1.67-4.91-1.42-9.32-4-13.87-6.17-1.76-.86-3.11-2.58-4.6-4-.29-.26-.63-.95-.52-1.09,1.87-2.3.66-5.11,1.32-7.59.18-.67,5.25-5.42,5.85-5.46a.66.66,0,0,1,.42.1c4.42,3.31,8.95.74,13-.45,3.2-.93,6.3-2.59,9.66-3.38,2.62-.61,2.92-2.65,2.53-4.79-.43-2.33.3-3.14,2.67-3.1,4.22.08,8.44-.09,12.66-.18,1.62,0,2.78.14,2.74,2.3,0,1.85,1.8,2,3.09,2.56,2.69,1.21,2.71,1.33,1.3,3.77-2.68,4.61-2.69,4.62,1.39,8.05a8.87,8.87,0,0,0,2.57,1.58,7,7,0,0,1,4.08,3.72c1.13,2.37,3.74,3.67,4.53,6.14s2.51,4.21,3.3,6.37a29.46,29.46,0,0,0,4.79,8.61c1.23,1.52-.23,3.22-2.34,3-5.42-.58-5.88-1.14-5.31-6.51a5.5,5.5,0,0,0-2.6-5.12c-1.64-1.09-3.93-.74-5.84.23a1.12,1.12,0,0,0-.48,1.8,8.27,8.27,0,0,0,2,2.25c3.37,2.07,4.93,5.68,7.39,8.51,1.35,1.56.88,3.09-1.13,3.65-4.32,1.2-8.61,2.33-13.23.82a52.37,52.37,0,0,1-10-4,18.34,18.34,0,0,0-9.71-2.07c-2.43.09-4.2-.65-5.41-2.81A17.83,17.83,0,0,0,729.32,461.05ZM926.05,836.44c-.23-.09-.41-.83-.31-1.18.82-2.8,1.67-6.3,4-7.47,2.74-1.39,3.39-3.47,4.65-5.64,1.06-1.8,2-3.44,1.91-5.6a5.88,5.88,0,0,1,1.75-3.89,5.74,5.74,0,0,0,1.71-3c.43-3.9,3.77-7.16,2.52-11.45-.09-.31.37-.76.52-1.16a1.59,1.59,0,0,0-.46-2c-1-.78-1.69,0-2.11.7a4.54,4.54,0,0,1-5.17,2.27c-2.92-.5-5.29.65-7.76,2.1-4.88,2.84-9.66,6-15.14,7.62a8.12,8.12,0,0,0-3.77,2.73c-1.8,2-3.17,4.7-5.86,5.67a5.66,5.66,0,0,0-3.23,3.24c-3.49,6.76-3.5,6.75-9.15,11.06-.18.14-.23.44-.35.66.69.53,1.66.92,1.55,2-.22,1.9,1,3,2.21,4,2.75,2.12,2.92,4.92,2.15,7.86s-1.84,6.12-2.94,9.12-.68,5.07,1.86,7.1c2.8,2.25,3.21,2.28,6.45.06a30.83,30.83,0,0,0,3-2.47c3.32-2.95,5.31-6.87,7.67-10.53,3.57-5.52,8.61-7.53,15.14-6C927.42,840.07,929.59,837.82,926.05,836.44ZM727.94,528.27c-2.93-4.59-7.11-5.5-12.1-4.33-2.69.63-5.42,1.11-8.11,1.7-2.9.64-5.15,4.31-3.86,7,1.44,3,3.15,6.11,6.72,7,3.4.86,4.77,3.13,5.12,6.25a5,5,0,0,0,1.5,3.44c1.67,1.57,2.06,5.46,1.32,7.45-1.21,3.2-3.1,5.53-6.56,6.38a13.79,13.79,0,0,0-3.24,1.23c-1.78,1-1.52,2.09-.57,4,1.05,2.11,2.94,3.37,4.38,4.94,1.77,1.93,3.22,4.53,6.1,5.39,1.75.53,3.17.84,3.44-1.61a4.25,4.25,0,0,1,3.58-3.86,16.88,16.88,0,0,0,2.48-.85c1.59-.67,2.54-1.45,2-3.62-.9-3.89-.22-5.59,3.09-7.17,1.83-.87,1.92-1.69,1.55-3.32a44.26,44.26,0,0,1-1.42-13.83c.17-2,.82-3.86-1.11-5.4-.57-.46-.81-1.43.06-1.82,2-1,1.63-2.84,2-4.48s1.54-3.17-.53-4.16c-1.86-.89-2,1.75-3.78,2.08A20.31,20.31,0,0,1,727.94,528.27ZM822.87,629.8c.25-.75,0-1-.67-1.17-1.24-.39-2.43-1-3.69-1.27-1.65-.37-2.15.31-1.69,2.29.18.78.23,1.43-.38,2a.79.79,0,0,1-.76,0c-2.65-2.89-6.82-3.17-9.68-5.62a9.39,9.39,0,0,0-6-2.21c-4.68-.11-9.12,1.49-13.61,2.62a2.11,2.11,0,0,0-1.27,1.09c-.7,1.79-2.29,2-3.82,2.47-2.75.87-3.33,1.86-3.17,4.83.26,4.71,1.21,5.19,5.38,2.86,2.31-1.29,5.11-2.3,7.44-1.62,2.91.85,5.93,2.48,7,5.91.42,1.32.93,2.52,2.6,2.4,2.24-.16,4.92,1.12,6.64-.85,4.85-5.59,11.51-6.58,18.64-8.12C823.87,633.94,822,632.51,822.87,629.8ZM654.33,362.9a5.62,5.62,0,0,1-.71-5.29c.84-1.83.22-4.87,3.45-5.22.31,0,.84-.57.82-.84-.22-3.68,2.29-5.4,4.88-7.14,1.38-.93,1-2.28.51-3.54s-1.42-.94-2.48-1c-2.71-.09-4.55,1-5.46,3.44-1.23,3.28-4,4.38-6.92,5.46-.67-1.1-1.31-2.05-1.87-3.05-2-3.58-3.76-4.71-7.81-3.07-1.13.46-2.65,1.29-3.75.42-3.18-2.53-6.11.25-9.15.17-.82,0-1.23.55-1.13,1.47.18,1.59-.31,3.58.48,4.69,2.12,3,1.33,5.62.27,8.56-.74,2,1.18,3.79,3.31,3.41,1.09-.2,2.06-.86,3.35-.44,2.85.91,7-.83,7.29-3.51.2-2,1.38-2.66,2.4-3.72,1.47-1.52,3.06-1.44,4.64-.1s2.13,3.33.54,4.93c-2,2-1,3.24.34,4.68.59.62,1.83.8,1.89,1.69.19,2.92,2.42,3.24,4.83,3.93C655.34,366.81,656.17,365.16,654.33,362.9Zm4.07,360.42c.23,1.5.29,3.65,1.91,4.65,1.81,1.12,2.28,2.86,2.93,4.63,1,2.62,1.88,3.21,4.18,1.73,4.06-2.62,8.48-5.24,9.63-10.47s1.91-10.26,1.34-15.52a8.15,8.15,0,0,0-2.34-5c-2.38-2.38-5.34-2.18-7.31.62a10.4,10.4,0,0,1-2.91,3.17c-4,2.48-7,6-10.18,9.46A17.74,17.74,0,0,1,658.4,723.32Zm-68.69-119c-1.2,1.15.19,2.79-.2,4.19a1,1,0,0,0,.23.81c1.25,1.38,1.54,3.24,3.74,4.26,2.46,1.14,4.34,3.67,6,6.09,2.06,2.93,4.57,5.55,6.89,8.29a1.26,1.26,0,0,0,.75.43c2.41.19,2.91,2.09,3.5,3.89s1.08,3.32,2.62,4.4c.65.44,1.28.8,1.87,0a15.63,15.63,0,0,0,3.13-5.19c.26-.95.16-1.92-.92-2-3.06-.34-2.08-1.86-1.33-3.62s1.07-3.59-1.1-4.83c-1.16-.67-1.26-1.64-.86-3,1.68-5.77,1.62-5.79-4.65-5.91-5-.1-6.22-.88-7-5.74-.51-3.16-4.21-3.15-5.08-5.79a4.81,4.81,0,0,0-1.2,0A18.34,18.34,0,0,0,589.71,604.33ZM817.05,760c0-2.83,1.65-3.77,3.69-4.72s3.63-2,6.07-.59c2.69,1.51,5.64,1.35,7.74-1.53,3.17-4.35,7.59-6.52,12.78-7.52a16.08,16.08,0,0,0,5.73-2c1.09-.69,1.39-1.84.16-2.35-2.23-.93-4.54-2.75-6.56-2.78-3.65-.06-7.74.09-11,2-5.73,3.3-11.91,6.22-15.19,12.6-.71,1.38-1.69,2.48-3.85,1.64-1.67-.65-4.3,1.66-4.55,3.46-.38,2.8.15,5.2,3.26,6.61C815.76,763.1,817,761.5,817.05,760Zm19.31,115.3a2,2,0,0,0-.31,1.11c.9,4.37.32,8.35-2.84,11.74a2.31,2.31,0,0,0-.34,1.24,10.4,10.4,0,0,1-4.27,7.64c-2.44,1.84-2.14,3.78.43,5.59,1.75,1.24,2.59,2.58,2.25,4.73a5.72,5.72,0,0,0,.14,3,5.5,5.5,0,0,1-1,6.05c-1.37,1.66-.57,2.7.75,3.52a18.22,18.22,0,0,0,3.39,1.26c.79-3.24,1.92-6.15,5.77-6.8,2.76-.46,3-1.3,1.41-3.53-.67-.91-2.24-1.64-1.76-2.81,1.49-3.61-1.1-5.72-2.85-7.91-2.63-3.29-3.15-4.88-.83-8.37,1.52-2.29,1.91-5.2,4.15-7.07.73-.61.43-1.61.28-2.48a12,12,0,0,1,1.21-8.43c.31-.52.28-1.1-.52-1.7C839.63,872.8,839,875.75,836.36,875.34Zm-90.11-232.1a8.58,8.58,0,0,1-6.81,3.35c-2.57-.16-5.15.31-7.71-.33-4.4-1.09-7.25,1.1-9.11,4.81a17.67,17.67,0,0,1-3.39,5c-1.2,1.16-2.39,2.52-1.3,4.15,1,1.43,2.4.17,3.59-.05,1.93-.37,4.24.67,5.78-1.15,2.82-3.32,6.65-3.83,10.59-4.16,1.9-.15,3.8-.41,5.26-1.75,3-2.74,6-5.49,8.84-8.37,1.07-1.07,2.41-2.16,2.25-4.47C750.93,640.06,748.33,640.84,746.25,643.24Zm-80-361.39c1,1,2.15,1.93,3.27,2.84,7.42,6,7.42,6,16.31,2.52a4.62,4.62,0,0,0,2.36-6.51,8.13,8.13,0,0,0-4-3.17c-5.63-2.29-11.15-3.27-16.33,1.11a20.57,20.57,0,0,1-2.67,1.57A9.27,9.27,0,0,0,666.23,281.85ZM641.6,647.06c-1.9-.75-3.61-2.6-6-1s-3.2-3-5.62-1.54a3.06,3.06,0,0,1-4.33-1.54c-.84-2.36-2.41-2.14-4.08-2.11-1.07,0-2.53-.64-3,.84-.4,1.15.34,2.28,1.06,3.17a5.26,5.26,0,0,0,2,1.58c3.92,1.55,6.23,5.05,9.32,7.6a19.13,19.13,0,0,0,8.74,4.25c.7.13,1.69.23,2-.47a36.52,36.52,0,0,1,3.41-6.39A5.93,5.93,0,0,0,641.6,647.06Zm.07,62c-.21-.38-.53-.76-1-.52-2.26,1-5.51,2.33-5.53,4.42,0,2.56-1.5,3-2.72,4.18-1.39,1.33-2.6,5.91-1.61,6.82,2,1.83,4,3.85,7.2,3.37,3.87-.58,8.42-5.24,7.91-9.14a17.39,17.39,0,0,1,.91-7.51C644.8,710.57,642.81,711.07,641.67,709ZM562,767.52a48.12,48.12,0,0,0,5.24-.16c5.37-.69,6.35-1.87,6.28-7.2,0-.44,0-.88,0-1.31-.12-3.56-.75-4.08-3.79-2.24-2.38,1.45-4.28,1.37-6.33-.32-.52-.43-1.07-1-2.1-.25a3.5,3.5,0,0,0,3.27,3.13,2.85,2.85,0,0,1,2.29,3.62c-.41,1.51-2.12,1.26-3.41,1.19-1.51-.07-3.15-.49-3.62-2-.86-2.68-3.27-2.74-5.22-4.09-1.47,3.44-1.13,6.83-2.42,10.9C556,767.34,559,767.58,562,767.52Zm-9.12-125.41c0,.64-.8,1.12-1.56,1.32-2.83.73-3.22,3-3.33,5.41a53.7,53.7,0,0,1-.38,7.81c-.17.89-.18,1.86.8,2.23s1.63-.43,2.16-1.08c2.36-2.94,4.67-5.91,7-8.87a8.22,8.22,0,0,0,1.49-3.58c.53-2.7-.88-4.38-3.88-4.6C553.76,640,552.9,640.08,552.91,642.11ZM658.19,759.74a10.94,10.94,0,0,1-7-6.12,1.34,1.34,0,0,0-1.4-.82c-2.2.19-4.82,5-3.38,6.56,2.51,2.75,4.77,5.79,7.87,7.94,2,1.41,3.83.78,4.15-1.53.21-1.52-.65-3.22.91-4.25A1.55,1.55,0,0,0,658.19,759.74Zm62.64-24.54c-1-.92-4.74.63-4.33,1.67,1.23,3.1-1.42,3-2.79,3.83-2.51,1.46-5.16,2.67-7.75,4-.54.29-1.58.43-.72,1.41,1.78,2,0,3.49-1.3,3.81-1.57.39-3.21,1.63-5,.76a2.06,2.06,0,0,0-2.7.68c-.52.62-1.39,1.29-.76,2.23.43.66,1.24.59,2,.48a40.85,40.85,0,0,0,9.95-3.08,4.39,4.39,0,0,0,2.08-2.17c3-5.63,8.61-7.77,14-10.78C723,736.74,721.74,736.09,720.83,735.2Zm92.38-14.58c2.53.51,2.84,1.35,1.4,3.58-1.31,2-1.42,4.3-2.05,6.48s.71,2.75,1.86,3.26,2.9,1.28,3.6-.84c.5-1.54,1.56-1.45,2.77-1.2.55.12,1.22.42,1.6-.15,1.2-1.79,1.14-3.91.89-5.86-.22-1.66-1.55-.45-2.42-.36s-.83-1-1.34-1.41c-2.86-2.24-3.75-7-9-6.47C811,719.18,811.36,720.25,813.21,720.62ZM482.62,452.38A16.52,16.52,0,0,0,484,454c1,1.48,3.86,2.13,2.35,4.87-.07.12.2.51.4.68,2.82,2.55,6.41,2.44,9.23-.37.75-.75,2-1.32,1.75-2.82-.35-.19-.71-.53-1.09-.56-2.09-.13-4.37.28-5.29-2.48-.12-.36-1-.45-1.55-.68a22.44,22.44,0,0,1-7.08-5c-.67-.69-1.19-1.7-3-1.54C480.82,448.49,481.66,450.46,482.62,452.38ZM562.92,666,561,667.72c-1.29,1.14-2.71,2.15-3.43,3.83-.86,2,1.79,1.55,1.87,2.85,0,.14.13.29.09.41-.7,2.26,1.48,4.9-1.2,7-1,.8-1,2.58-1.09,4.4,3.4-1,5.68-2.71,6.55-5.86.47-1.7.76-3.43,2.49-4.34,1.52-.8,1-1.82.36-2.84a6.77,6.77,0,0,0-2.76-2c-1.26-.64-1.64-1.49-1-2.8a12.72,12.72,0,0,0,.64-2Zm89.88,7.3c4.72,1.22,7.65-3.12,11.77-3.84a1.24,1.24,0,0,0,.39-2.14c-1.46-1.12-2.84-2.41-4.81-2.79s-1.32,2.38-2.86,2.5c-1.21-.76-1.58-2.09-2.37-3.1s-1.58-.39-2.27,0-1.86,1.13-1.08,1.95c2.33,2.44,0,4.53-.39,7.12C652,673.17,652.39,673.22,652.8,673.33Zm-67.61,49.06a9.32,9.32,0,0,1,2.27,7.11c-.22,2.15,1.26,4.09,2.35,6a1.18,1.18,0,0,0,1.79.52c4-2.2,4.66-5.11,2.09-8.92-2.06-3.07-4.65-5.31-8.48-6A.88.88,0,0,0,585.19,722.39Zm29-46.31c.83-.43,1.77-1.39,1.24-2-2.06-2.28-.9-4.73-.87-7.17a5.92,5.92,0,0,0-1.83-3.85,1.92,1.92,0,0,0-2-.58c-1,.28-.72,1.13-.63,1.8a10.07,10.07,0,0,1-1.76,7.8c-.88,1.17-3.08,2.93.31,4.15.62.23-.66,1.57.39,2.57ZM663.35,801c.34,3-2.23,4.73-5.59,5.61,1.72.53,2.8,1,3.93,1.21,3.58.69,5.56-.67,6.27-4.24a6.92,6.92,0,0,0-.46-4.69c-2-3.82-5-6.46-9.6-7.06C662.71,793.14,663,797.39,663.35,801ZM572,707.12c1.27-1.4.67-5.82-.54-5.9-1.88-.12-4-1.18-5.76.44a8.43,8.43,0,0,0-2.71,5.67c-.09,1,.8,1.24,1.84,1.32a12.78,12.78,0,0,1,5.6,1.73C571.17,709.24,571.09,708.09,572,707.12ZM817.71,920.73c-4.06,1.31-9,1-11.34,5.74-.43.88-1.5,1.45-.43,2.55a1.94,1.94,0,0,0,2.71.25c3.22-1.88,6.11-4.41,9.93-5.14a1.15,1.15,0,0,0,1-1.65C819.26,921.63,819.11,920.27,817.71,920.73Zm42-121c-1.85-.54-.78-2.67-1.65-3.66-1.16-1.32-.88-3.71-2.7-4.26-1.46-.44-2.36,1.47-3.75,1.88a2.08,2.08,0,0,1-.41.11c-2.09.19-1.77,1.68-1.32,2.86.54,1.43,1.41,1.76,3,.79,2.32-1.4,2.71-1.08,3.09,1.56.24,1.67.63,3.24,2.59,3.48s4.13.36,4.89-2.48A18.07,18.07,0,0,1,859.7,799.71ZM755.24,779.87a4.15,4.15,0,0,1-3.86-1.43,3.51,3.51,0,0,0-4.67-.66c.5,3.47,1.84,6.66,3.26,8.14a2.9,2.9,0,0,0,2.74.82,1.58,1.58,0,0,0,1.4-1.86c-.17-1.82,1.07-3.27,1.14-5ZM508.88,450.68c3-3.15,3.77-7.78,6.82-10.95a.77.77,0,0,0,.13-.41c.16-.88.21-1.72-.79-2.22a1.42,1.42,0,0,0-2.13.71,12.73,12.73,0,0,1-1.38,2.2c-3.12,3.66-3.18,9-7.88,12.74A5.7,5.7,0,0,0,508.88,450.68ZM904.22,782c.1,0,.2.49.24.76.06.44-.64,1.14.36,1.25.63.06,1.33-.43,1.32-.9,0-2.27.68-4.53,0-6.78-.18-.63-.48-1.6-1.4-1.15-1.45.71-2.5.1-3.55-.7s-1.87-.31-2.46.65-1,1.74-1.68,2.95C900.34,778,901.23,781.67,904.22,782Zm-106.4-78.77a1.87,1.87,0,0,0,1.36,2.37c2.84.51,1.26,5.93,5.49,4.79.31-.09,0,.94-.15,1.47-.27,1.29.72,1.52,1.53,1.32,1.58-.38,2.11-1.4,1.17-2.91-1.12-1.78-3.11-3.56-3.12-5.36,0-2.78-1.61-2.61-3.45-3.05C799.84,702.32,798.35,701.92,797.82,703.18Zm-175.06-298a5.55,5.55,0,0,0,.7-2.47c.09-1.37-1-1.95-2-2.58a1,1,0,0,0-1.52.18c-1.15,1.92-3.19,3.49-2.35,6.2.38,1.23.51,2.53,1,4.89C620.36,408.74,621.64,407,622.76,405.18Zm53.37,124.74c-.12.59,3,1.29,3.39.65a8.11,8.11,0,0,0,1.22-4.9c-.07-1.47-1.34-2.41-3-2.68a5.42,5.42,0,0,0-4.32,1.25C674.18,526.21,676.65,527.32,676.13,529.92Zm-48.2,240.57c3.31-1.13,6.21-3.74,9.41-8.59C632.13,761.23,629,764.2,627.93,770.49ZM577.3,746.32a3.13,3.13,0,0,0-4.2.92c-1.34,1.54-.24,3,.4,4.36a1.92,1.92,0,0,0,3.44.32,14,14,0,0,0,2.56-4.84A15.88,15.88,0,0,1,577.3,746.32ZM777.86,680c-2.87-1.51-4.22-.69-4.25,2.53a23.27,23.27,0,0,1-.18,3c-.5,3.19-.53,3.18,2.48,5.13a5,5,0,0,0-.23-3.39c-1.37-3.65-.56-4.87,3.66-5.32A3,3,0,0,0,777.86,680Zm-20.92,91.76c1.91,2.46,2.34,4.83,3.43,6.91,1.88,0,3.11-1.92,5.88-.88C763.44,774.38,761.14,772.17,756.94,771.78Zm82.64,6a3.17,3.17,0,0,0-2.36-3.21c-1.82-.11-4.25,2-4.15,3.75.11,1.89,1.67,1.65,2.65,1.8C837.74,780.21,839.23,779.78,839.58,777.8Zm-141.8,23.71c-1.85-.83-2.58.86-3.75,1.51a1,1,0,0,0-.31,1.51,3,3,0,0,0,3,1.41,43.34,43.34,0,0,0,5-1.07A7.33,7.33,0,0,0,697.78,801.51Zm-86.67-27.36a3,3,0,0,0,2.1,1.42,2.05,2.05,0,0,0,1.94-.61c-2.32-3.65-6.22-5-9.93-6.63C605.83,771.77,609.62,771.66,611.11,774.15Zm261.78,46.92a1.32,1.32,0,0,0-.77,1.42,1.15,1.15,0,0,0,1.24,1c1.16,0,2.32,0,3.48,0,1.52-.06,3.9.28,3.84-1.64s-2.63-.9-3.66-1.45A8,8,0,0,0,872.89,821.07ZM625.08,729c1.48-2.22,1.95-4.67,2.61-7.71C622.18,723.36,621.57,725.36,625.08,729Zm14.09-361.58c1.33,0,2-.59,1.47-1.87s-.85-2.63-2.51-2.65c-2,0-2.67,1.4-3,3.15A6.82,6.82,0,0,0,639.17,367.43ZM592,650.61c.8,0,1.18-.69,1.27-1.46s.21-1.46-.53-1.91a1.65,1.65,0,0,0-2,.22c-.88.7-1.73,1.45-3.42,2.87C589.49,650.48,590.74,650.64,592,650.61Zm-9.38,101.5a1.15,1.15,0,0,0-1.21,1c-.16,1.14,2.1,3.81,3.13,3.64a1.51,1.51,0,0,0,1.21-1.56A4.14,4.14,0,0,0,582.6,752.11Zm83.56-8.65c-.89-.12-3.28,2-3.32,3,0,.69.44,1,1.09,1a2.64,2.64,0,0,0,3.08-2.76C666.86,744.23,667,743.56,666.16,743.46ZM685,740.58c.8,0,1.93.12,1.84-1.08a1.88,1.88,0,0,0-1.8-1.55,3.56,3.56,0,0,0-3,1.61C683,740.75,684.08,740.51,685,740.58Zm17.42-27.67c.78-.34.5-1.29.06-1.84-1.32-1.66-2.36-.3-3.94.34C699.89,712.63,701,713.55,702.43,712.91Zm52.82,67c.5-.23,1-.44,1.49-.69s1.06-.57.43-1.19a.75.75,0,0,0-1.11,0,2,2,0,0,0-.82,1.84Z"/><path class="cls-1" d="M414.37,477.51c1.05-1.3,2.17-1.38,3.34-.15Z"/><path class="cls-1" d="M414.75,574.31a8.3,8.3,0,0,1-1.25.07c-.13,0-.23-.28-.34-.44a7.19,7.19,0,0,1,1.12-.16C414.4,573.78,414.53,574.05,414.75,574.31Z"/><path class="cls-12" d="M351.45,599.83l.85.74a25.48,25.48,0,0,1-6.95,3.49c-1.76.67-2.61,1.63-2.51,3.51a7,7,0,0,1-.41,3.41,6.15,6.15,0,0,0,.42,5.77c1.48,2.9.95,4-2.09,5.34-1.85.81-3.86,1.3-5.13,3.06-.68.13-1.05,0-.76-.81,1-2.05,3.1-2.48,4.92-3.33,2.85-1.33,3.12-1.73,1.4-4.45a5.06,5.06,0,0,1-.45-4.92c.4-1.07,1.22-2.06,1-3.28-.58-3.42,1.22-5,4.2-6A46.48,46.48,0,0,0,351.45,599.83Z"/><path class="cls-7" d="M334.87,624.34l.76.81c-2.54,2.28-3.27,2.4-5.45.91-2.63-1.8-3.52-2-5.46.25-2.35,2.75-4.52,2.37-7.17.82-2.1-1.23-4.55-1.87-6.3-3.69l.84-.75a53.19,53.19,0,0,0,6.83,3.64,3.68,3.68,0,0,0,4.65-.77c3.32-3,3.91-3,8-.24C333.13,626.39,333.78,624.71,334.87,624.34Z"/><path class="cls-22" d="M430.09,596.3c1.38.37,1.51,1.78,2.21,2.71C430.8,598.74,430.42,597.54,430.09,596.3Z"/><path class="cls-22" d="M428.34,593.68a2.93,2.93,0,0,1,1.81,2.7A3.11,3.11,0,0,1,428.34,593.68Z"/><path class="cls-4" d="M323.47,329.73l.72.87a6.4,6.4,0,0,1-2.08,2.74,14.46,14.46,0,0,0-4.68,7.11,7.13,7.13,0,0,1-3.26,4.45,15.41,15.41,0,0,0-3.24,2.17c-1.52,1.54-2.82,3.29-4.37,5.14,3.07,1.84,2,5.71,2.78,8.94a2.93,2.93,0,0,1-3.78,3.42c-3.18-1-6,0-8.94.63a13.44,13.44,0,0,1-6.84-.11,124.44,124.44,0,0,0-17.84-3.6c-3.62-.49-7.24-.71-10.49,1.5l-.85-.74c4.27-4,9.3-2.1,14.06-1.62a78.78,78.78,0,0,1,14.44,3,13.92,13.92,0,0,0,8.14.18,15.69,15.69,0,0,1,8.15-.61c1.79.4,2.46-.48,2.41-2.07-.09-3.46.34-7.17-4.76-8.91,3.73-2.6,6-5.8,9.38-7.79,1.41-.83,2.82-1.8,3.25-3.39C317,336.3,320.52,333.24,323.47,329.73Z"/><path class="cls-7" d="M336.63,447.81l.74.79a25.13,25.13,0,0,0-4.71,8.25,6.13,6.13,0,0,1-4.85,4.44,10.59,10.59,0,0,0-5.82,3.54c-2.2,2.48-5.31,3.47-8.51,3.89-2.48.34-3.08-.32-3.15-2.85,0-1.15,0-2.32,0-3.47a2.94,2.94,0,0,0-1.26-2.66,51.59,51.59,0,0,1-6.32-3.76c-.93-.68-2,0-2.82.55-1.2.8-2.38,1.64-3.57,2.46l-.85-.75c1.14-.88,2.26-1.8,3.44-2.62,2-1.39,4-1.52,5.94.19a9.59,9.59,0,0,0,2.55,1.59c3.64,1.65,4.76,3.59,4.47,7.42-.22,2.77,0,3,2.65,2.3s5.26-1.67,7.08-3.89a7.85,7.85,0,0,1,4.69-2.93c3.13-.54,4.71-2.56,5.71-5.28S334.29,449.7,336.63,447.81Z"/><path class="cls-12" d="M318.09,515.9l-.74-.9c.24-2.28-.53-4.66.76-6.84.59-1,1.31-2.22-.08-3s-2.54-2.63-4.58-1.94a7.91,7.91,0,0,0-2.3,1.21c-2.49,1.93-5.15,3.23-8.42,2.86-1.53-.18-2.1.71-2,2.1.18,2.66-1.78,3.87-3.56,5.07-1.37.93-3,1.57-3.58-1a1.63,1.63,0,0,0-2.26-1.38c-6.41,2-11.22-1.24-15.86-4.95-.11-.67,0-1.08.82-.76l4.35,2.85c2.9,1.88,5.89,3,9.42,1.77,1.48-.49,3.16-.78,4.32.89.47.68.75,1.67,1.89,1.4a4.48,4.48,0,0,0,2.36-1.81,2.24,2.24,0,0,0,.4-1.21c.06-1.45,0-3,1.12-4.07,1.31-1.22,2.75.11,4.14,0a8.48,8.48,0,0,0,3.66-1.24c1.13-.62,2.14-1.46,3.26-2.11a6,6,0,0,1,8.41,1.93c.28.45.55,1.25.35,1.62C318.32,509.36,319.33,512.85,318.09,515.9Z"/><path class="cls-7" d="M276.28,506.32l-.82.76c-2.48-1.36-2.84-4-3.44-6.3-.51-2,.62-3.67,2.14-4.95a26.66,26.66,0,0,1,2.59-1.58c1-.68,3-.72,2.66-2.35-.26-1.36-2.07-1.55-3.28-1.78a27.21,27.21,0,0,1-6.56-2.25c-3.06-1.45-3.75-2.31-3.13-5.72.56-3.07-1.57-4.08-3.32-5.51l.89-.74c2.79,1.11,4.07,3.15,3.58,6.13-.43,2.63.78,3.94,3.12,4.88a31,31,0,0,0,5.7,1.9,8.58,8.58,0,0,1,2,.68c1.15.53,2.67.8,2.89,2.32.27,1.89-1.49,2.22-2.68,2.93-.37.22-.77.39-1.15.59-4.85,2.59-5.4,4.56-2.53,9.27A19.39,19.39,0,0,0,276.28,506.32Z"/></svg>