<svg xmlns="http://www.w3.org/2000/svg" width="1080" height="1080" viewBox="0 0 1080 1080"><title>thesalia_vector</title><path d="M386.35,262.59c3.46-2.17,7.12-4.44,10.74-6.76,2.86-1.84,3.84-6.9,1.43-8.94-.8-.67-3.2-.4-4.25.33-8,5.59-16,11.35-23.87,17.17-5.84,4.31-5.83,9,.35,13.82-2.4,5.59-4.5,11.54-7.43,17.05-3.25,6.09-2.57,12.16-1.41,18.4a56.45,56.45,0,0,0,1.73,6.77c1.41,4.38.93,10,7.05,11.23-4.24.44-8.48,1.07-12.74,1.21-1.54,0-4.23-.81-4.5-1.77-1.78-6.47-6.81-8.54-12.4-10.12a11.83,11.83,0,0,1-2.15-1.26c3.82-5.54,4-12.11-1.21-15.45-6.28-4-10.86.84-13.56,8-1.18-3.48-1.95-5.77-2.77-8.21l-6.11,1.15-1-1c1-1.31,1.78-3.11,3.12-3.84,4-2.19,4.17-6.14,5.12-9.77.12-.46.12-1.38,0-1.42-5.77-1.53-3.58-8-6.91-11.18-1.43-1.38-1.89-4.14-2.1-6.34-.31-3.25-1.14-4.67-4.9-4.17-8,1.07-13.71-5.16-12.64-13.12.13-1,.37-2.28-.12-2.92-3.53-4.66-3.37-9.37-.19-13.74-4.17-2.42-7.91-4.4-11.41-6.74a6.43,6.43,0,0,1-2.27-3.7c-.58-2.6-.69-4.81-4.21-5.72-2.83-.73-2.76-6.72-.23-8.65s5-3.71,7.77-5.71a35.69,35.69,0,0,0-2.09-3.7c-2.87-3.88-1.76-6.88,1.55-9.95,3.68-3.41,8-6,10-11.37,1.05-2.81,5.63-4.27,8.52-6.45,3.14-2.37,6.09-2.89,9.55-.36.83.61,3.26,0,4.29-.8,5.22-4.26,11.07-4.17,16.39-1.4,9,4.69,18.48,3.46,27.89,3.54,1.19,0,2.55-1.3,3.54-2.28,1.73-1.72,3.25-3.67,4.69-5.33.83.19,1.22.17,1.45.35,2.18,1.78,3.68,5.9,7.08,3.82,1.54-1,1.65-4.58,2-7.06a66.55,66.55,0,0,0,.87-11.93c-.3-5.37,2-7.11,7-6.82,11.3.64,22.62,1.3,33.93,1.44,2.31,0,5.8-1.61,6.77-3.5,3.67-7.14,6.54-7.89,12.27-2.09.42-.15,1-.18,1.31-.49,6.39-6.85,13.79-4.72,21.11-2.25a5,5,0,0,1,2.86,3.18c1.3,8.06,1.2,8.07,8.56,9.49-1.63,18.56,13.13,23.41,25.34,31l4.07-5c3.08.95,5.22,2.16,5.41,6.06.09,1.72,2.39,3.69,4.13,4.9,4.29,3,4.68,6.87,1,10.63-1.48,1.51-2.18,3.76-3.46,5.51A43.3,43.3,0,0,1,508,209.8a65.42,65.42,0,0,1-4.79,5.3,10.3,10.3,0,0,1-4.47,2.16c-3,.62-5.13,1.22-6.85,4.57-1.34,2.62-5.31,4.12-8.37,5.55s-4.82,3-4.89,6.62c-.07,3.39.95,5.41,4.45,6a2.71,2.71,0,0,1,1.85,1.51c1.61,5.91,6.69,7.86,11.33,10.45a4.88,4.88,0,0,1,2,3.49c.05.8-1.32,2.14-2.31,2.47-4.74,1.55-6.78,8.59-2.71,11.76,3.37,2.63,7.86,3.82,13.1,6.22-.37,2.3-.83,6.36-1.82,10.28-.27,1.08-2.63,2.72-3.16,2.44a21.27,21.27,0,0,1-5.17-4.23c-.72-.74-.78-2.7-1.39-2.82-1.55-.3-3.73-.48-4.78.37-3.34,2.74-10.2-.92-11,5.84a11,11,0,0,0,1.78,6.52c5.35,8.46,14.91,10.38,23.16,14.23,3.14,1.47,5.72,2.7,4.66,6.81a3.09,3.09,0,0,0,.15,2c3.36,6.74.41,12.1-3.5,17.43-3.3,4.5-3.74,4.43-7,0-8-10.85-16.18-21.64-24.62-32.19-1.53-1.9-4.64-2.64-7.12-3.65-4-1.62-8.21-2.72-12.06-4.6-4.14-2-8.6-1.17-10.26,1.88s-.45,7.67-.45,11.6c0,.22.43.6.69.63,6.31.63,6.36,6.35,8.64,10.35a11.34,11.34,0,0,0,4.09,4c4.18,2.41,8.66,4.3,12.81,6.75,2.18,1.29,3.83,3.45,5.88,5,2.24,1.7,4.68,3.15,8.13,5.44-2.65,1.05-5.14,3-7.27,2.67-5.5-.86-10.84-2.8-16.27-4.18a135.89,135.89,0,0,0-14.39-3.27c-2.83-.4-4.28-1-4.19-4.12,0-1.62,0-3.73-.9-4.8-5.65-6.48-5.73-14.08-5-21.93.33-3.41-1.14-5.17-4.35-6.77-9.24-4.58-18.12-9.85-27.26-14.65-3.13-1.65-6.62-2.58-9.84-4.08a5.7,5.7,0,0,1-2.39-2.68C390.26,272,388.52,267.71,386.35,262.59Z" fill="#a3a3a3"/><path d="M413.42,597.17c2.3,2.11,9,.44,7.95,7.54-3.7.81-7.51,1.33-11.07,2.57-1.55.53-2.58,2.54-3.85,3.88a34.53,34.53,0,0,0,4.75,2.54c1,.36,2.31,0,3.47,0,7.66-.19,11.06,5.7,7.47,12.7-.59,1.14-1.05,3-.51,4,3,5,2.4,10.24.75,15.28-3.51,10.79-3.64,10.68,6.72,15.06,5.94,2.5,11.76,5.27,19.08,8.57-2.53,1.2-4.34,2.54-6.33,2.91-6.77,1.22-8.42,3.12-5.89,8.3-1.94.15-3.78,0-5.38.52-1.76.61-4.1,1.52-4.76,3-1.74,3.75-4.16,3.67-6.79,1.79-3.06-2.2-5.77-4.91-8.95-7.68,1.75-2.35,3.26-4.28,4.65-6.28,2-2.92,1.65-5.46-2.22-5.51-5.64-.06-9.93-1.76-13-6.75-.61-1-3-1.66-4.33-1.38-4.36.94-7.3-.79-9.89-4-1.58-2-3.71-4.22-6.13-1.81-1.21,1.21-1.43,3.91-1.3,5.87.76,11.79,9.14,20.34,13.24,30.71,1.92,4.85,2.83,10.1,4.34,15.13a5.48,5.48,0,0,0,1.95,3.13c6.35,3.55,9.05,9.28,8.76,16.06-.35,8,4.15,14.24,6.56,21.24.86,2.51,2.25,4.83,3.14,7.34,1.18,3.34.7,6.25-3,7.76-4.26,1.74-6.81,11.85-3,14.44,6.1,4.15,9.39,10,12.69,16.1a29.55,29.55,0,0,0,3.29,4.17c-6.77,5.57-11.52,5.69-15-3.3-.64-1.68-3.68-2.43-5.61-3.61-.55,1.56-1.18,3.09-1.62,4.68a14.61,14.61,0,0,0,0,3.05l-6-1.49c-.28-.65-.44-.86-.39-1,3.71-6.88.9-12.14-4-17-1.09-1.09-1.51-2.88-2.17-4.38-.32-.74-.35-2.18-.73-2.26-7.4-1.58-6.38-8.4-8-13.28-1.17-3.45-2.59-5.07-6.28-4.63-2.47.29-5,.13-7.49.21-3.59.12-6,1.42-6.26,5.54-.07,1.25-1.23,2.47-2,3.62-.64.94-2.18,1.89-2.06,2.63.89,5.23-3.74,8.27-4.7,12.46-.9,3.93.62,8.38.78,12.61a95,95,0,0,1-.37,11.57c0,.22-3,.8-4,.19a67.07,67.07,0,0,1-9.79-7.29,9.61,9.61,0,0,1-3.21-9.16,52.57,52.57,0,0,0-.78-19.58c-1.87-7.12-6-13.63-8.95-20.51-1.37-3.26-3.48-4.36-6.9-4.44-5.88-.13-6-1.14-4.31-6.85.59-2-.83-4.92-2.09-6.95-.67-1.09-3.08-1.87-4.49-1.62-13.12,2.3-13.24,2.38-12.88,15.85.07,2.72,1.77,5.36,2.28,8.11.28,1.53.19,3.62-.66,4.76-2.28,3-5.05,5.72-8.07,9-1.68-2-3.23-3.61-4.58-5.41-2.15-2.85-4.21-5-8.45-5-5.06,0-10.16-9.08-8.61-14.24a26.4,26.4,0,0,1,1.2-3c-7.43-9.84-16.32-18.53-13.49-31.94.68-3.26,3.29-6.36,5.63-9,3.45-3.86,7.21-7.18,6.68-13.17-.27-3,1.85-4.71,5.07-5,5.46-.49,10.9-1.33,16.37-1.77,2.86-.24,4.69-.66,4.43-4.32-.1-1.37,1.48-3.36,2.84-4.24,2.19-1.4,4.82-2.11,8.82-3.75-3.41-3.16-6.18-5.68-8.91-8.26-1.55-1.47-3.6-2.77-4.41-4.59-2.12-4.77-6.5-5.84-9.31-3.15-.25-6.7-.92-14.39-.59-22,.09-2.27,3-4.42,4.07-5.92,7.41,2.54,13.7,6.43,19.87,6.25,4.75-.13,9.4-1.83,14.18.28.22.1.87-.44,1.15-.82,1.25-1.68,2.14-3.78,3.72-5s3.88-1.67,6.58-2.74L327.85,608c.8-5.31,3.92-9.19,9.14-11.48,3.09-1.35,4.28-3.68,4.21-7.13a59,59,0,0,1,.93-11.42,4.86,4.86,0,0,1,3.12-3.22,16.19,16.19,0,0,1,12.6,2.93c6.59,4.65,14,8.12,20.9,12.33a16,16,0,0,1,4.81,4.87c2.66,4.07,6.48,5.59,11,5.63,1.11,0,2.79-.68,3.19-1.53a3.86,3.86,0,0,0-.84-3.43,67.2,67.2,0,0,0-5.95-5c3.73-5.34,7.57-6.94,13.06-5.51,3,.8,6.45.15,10.91.15C414.47,588.93,414,592.62,413.42,597.17Z" fill="#a3a3a3"/><path d="M503.46,173.87c-1.7,2.37-2.75,3.82-4.22,5.85-8-4.58-16.58-8.26-20.13-17.79a10.52,10.52,0,0,1,.12-6c1-3.79-.54-6.26-4.58-6.88-1.56-.24-3.9-.87-4.34-1.94-.93-2.31-.7-5,2.29-6.21,2.78-1.12,5.6-2.17,8.43-3.16.76-.27,1.73,0,2.46-.28,5.19-2.24,10.19-5.09,15.57-6.67,3.49-1,7.53-.38,11.3-.18,3.16.16,4.41-.92,4.58-4.2.41-7.81,1.08-7.92,9.06-6.31,1.93.39,4.52-1.25,6.48-2.48,3.84-2.4,6.12-1.7,8.14,2.28.66,1.31,3,2.95,4.11,2.63,4.63-1.36,10.41.69,13.72-5.12,1.51-2.64,7.19-.56,8,2.66.44,1.77.46,3.71,1.2,5.34,3.07,6.78,5.54,11.22,12.67,10.39,2.81-.32,5,0,5.21,4.06.08,1.68,3.1,3.5,5.12,4.63.58.32,2.62-1.33,3.56-2.44,2.79-3.26,9.71-4.81,14.2-2.49,8,4.13,15.87,8.47,23.66,12.93a6.84,6.84,0,0,1,2.54,3.85c1.65,5.56,5.76,7.69,11.21,5.37,4.13-1.77,8.12-3.86,12.24-5.66,1.48-.64,3.35-1.54,4.69-1.13,3.29,1,5.34.56,6.66-2.88.25-.64,2.3-1,3.42-.81,4.05.6,8.06,1.48,12.48,2.33,2.89-1.72,6.19-4.12,9.85-5.63,1.4-.58,3.94.44,5.45,1.48,5.58,3.85,11.67,3.11,16.33-1.86,1.13-1.21,3.45-1.79,5.23-1.8,4.33,0,7.51-1.14,8.32-5.92a4.39,4.39,0,0,1,.73-1.85c2.77-3.78,5.24-7.51.41-11.61-.37-.32-.3-1.68,0-2.27,2.19-3.62,2.3-6.83-.43-10.45-2.1-2.81-2.41-6.87-6.9-7.86-1-.22-1.9-2.86-2.15-4.49-.7-4.61,5-10.11,9.65-9.84,11.8.68,21.78,6.47,32.33,10.9,7.94,3.33,12.61,7.44,12.12,17-.32,6.12,2.15,12.34,2.71,18.58.28,3-1,6.22-1.71,10.38-9-5.66-12.66,1.75-17.87,5.18a60.06,60.06,0,0,1-9.46,5.23c-6.18,7.6-2.88,16.78-3.34,25.51a1.66,1.66,0,0,0,.54,1.34c5.36,3,4.66,7.7,2,11.53-2.26,3.23-3,8-7.79,9.3a6,6,0,0,0-3.19,2.13c-4,5.77-7.89,11.59-11.63,17.53-2.54,4-6,4.69-8.42.4-4.45-8-10.55-11.15-19.74-10.9-8.42.22-16.89-2.11-25.33-2-9.49.09-16.59-5.32-24.71-8.48a14,14,0,0,0-7.35-.65c-4.4.86-14.61-2.73-17.11-6.6-2.35-3.64-5.72-4.21-7.78-.5-3,5.38-7.76,7.2-13,9a12.46,12.46,0,0,0-5.27,3.55c-3.34,4-7.3,5.26-12.37,4.53-3.5-.51-7.19.1-10.64-.58-1.79-.35-3.65-2.14-4.77-3.77-6.47-9.33-6.39-9.38-17.07-5.66-5.74,2-8.08,5.4-8.71,11.37a6.63,6.63,0,0,1-3.11,4.31c-6.52,3.67-13.2,7.06-19.9,10.39a8.21,8.21,0,0,1-4.63.89A147.93,147.93,0,0,1,499,228.06c-1.52-.41-2.61-2.4-3.89-3.67,1.48-1.21,2.93-3.4,4.45-3.45,4-.12,6.73-1.09,7.32-5.5a3.44,3.44,0,0,1,1.45-1.89c3.24-2.33,6.51-3.91,7.67-8.85.65-2.76,4.29-5.33,4.83-9.18.42-2.94.23-5.13-2.84-6.54s-4.43-3.71-5.53-7.3C511.52,178.53,506.77,176.55,503.46,173.87Z" fill="#a3a3a3"/><path d="M409.88,458.12l-13.09,7.16c-1.28-6-5.1-5.16-9.28-4.71-4.86.53-10,1.07-13-4.67-.53-1-2.81-1.58-4.29-1.6a102.9,102.9,0,0,0-11,.62c-3.62.34-5.67-.47-5.44-4.78.16-3.05.69-6.2-3.94-7.89-2.29-.83-2.91-5.68-4.84-8.3a8.51,8.51,0,0,0-5-3c-3.43-.56-7.41.82-8.83-4.23-.28-1-2.34-1.52-4-2.51-1.91,3.24-3.38,6.23-5.32,8.87a42.85,42.85,0,0,1-6.4,7c-2.25,1.94-2.34,4.29.33,5.9.85.52,2,.68,2.64,1.36a22.12,22.12,0,0,1,2.29,3.44c-1.22.73-2.86,2.37-3.59,2-5.4-2.49-9.69.94-14.3,2.36-2.67.82-3.57.63-5.07-2.32-3.09-6.05-2.65-14.72-11.22-17.1-1.57-.44-3.35-.1-5-.16-1.06,0-2.4.21-3.09-.33a3.18,3.18,0,0,1-.81-2.86c1.64-4.57-.36-6.41-4.66-7a34.5,34.5,0,0,1-5.81-1.44c-3.46-1.1-5.64-.92-7.1,3.36-.7,2-4.78,4.67-6.69,4.24-5.11-1.17-7.64,1.64-10.66,4.45-.87.8-2.25,1-3.4,1.54-.09-1.34-.48-2.75-.17-4,.27-1,1.48-1.78,2.07-2.77,1.55-2.58,4.89-6.24,4.13-7.66-2.29-4.28-4.6-9.59-10.84-9.82-3.12-.12-4.8-1.21-5-4.66a5.74,5.74,0,0,0-2.79-3.83c-4.49-2.45-4.8-6.71-5.21-10.91-.37-3.78-.17-7.63-.65-11.39a6.82,6.82,0,0,0-2.44-4.38c-2.46-1.67-4.5-3.44-2.84-6.4,2-3.51,4.43-1.4,6.65.12a6.73,6.73,0,0,0,1.37.53c3.38-2,3.72-4.46,2.22-8-1.35-3.17-3.26-6.74,1.07-9.66,1-.64.93-2.71,1.43-4.39a40.32,40.32,0,0,1,4.79,1.5c3.75,1.69,6.17.08,7.68-3.16,1.41-3,2.83-6,6.84-5.07,4.25,1,10-1.79,12.11,5,.27.88,2.94,2,3.8,1.56,7.16-3.5,14.28-1.54,21.48-.47,2.45.36,5-.07,7.51-.14-.12-3.44,0-6.91-.47-10.31-.16-1.3-1.47-2.46-1.7-2.83,7.36-8.34,14.27-16.34,21.41-24.13,1.75-1.91,4.27-3.1,5.92-4.26l5.48,7.65a64.72,64.72,0,0,1,6.25-6.15c1.62-1.24,3.81-1.74,5.74-2.57.85,2.46,2.46,5,2.34,7.37s-2,4.77-3.24,7.51a38.48,38.48,0,0,0,5.4,2.17c5.57,1.29,9.59,4,11.28,9.88a5,5,0,0,0,3.91,2.66c6.56-.25,13.1-1,20.2-1.6.32,9.18,7.81,13.27,13.59,18.49,2.94,2.66,4.16,5.4,3.52,9.16-1.47,8.54,3.23,15.5,6.52,22.59,1.09,2.35,5.43,3.41,8.46,4.59a12.62,12.62,0,0,1,7.42,6.76c1.93,4.16,5.57,7.05,8.5,10.41,6.93,7.93,14.65,15.91,17.35,26.75,1.45,5.85-.85,9.33-6.79,11.16-1.4.43-3.55.63-4,1.59-3.73,7.62-11,3.52-16.44,5-.73.2-3-1.92-2.89-2.6a29.38,29.38,0,0,1,3-7.61c.16-.3,2.43.63,3.74.82,1.57.23,4,1,4.57.26,1.29-1.57,2.73-4.27,2.19-5.84a48.11,48.11,0,0,0-5.88-11c-.86-1.28-2.91-1.89-4.53-2.52-3.5-1.35-7.18-2.28-10.58-3.81-3-1.34-4.66-.64-4.87,2.43-.25,3.73-2.16,4.49-5.5,4.67-1.64.09-4.68,2.44-4.52,2.9,1.16,3.44-1.77,8.95,3.91,10.05,3.07.6,4.17,2,5,4.56a7.36,7.36,0,0,0,2,2.58c1.39,1.31,3,2.38,4.3,3.76C405.3,452.5,407.24,455,409.88,458.12Z" fill="#ec2024"/><path d="M296.48,460.69c1.83-.56,3.65-1.24,5.53-1.66,4.39-1,8.13-4.18,13.54-1.82,2,.88,7.9-2.38,8.8-4.9a6.56,6.56,0,0,0-4.86-8.53c2.86-4.74,5.74-9.5,9-14.89,1.19,4.3,3.75,5.36,7.66,5.06,5.1-.4,8.14,2.33,9.15,7.59.47,2.46.19,4.88,3.7,5.59.8.16,1.45,3.42,1.36,5.21-.23,4.76,1.57,6.81,6.43,6.11a73.12,73.12,0,0,1,8-.6c3.56-.13,6.3.1,9.46,3.36,2.58,2.67,8.52,2.45,13,2.74,2.74.17,4.89-.5,6.5,2.82.63,1.3,4.05,1.24,7.09,2-7.2,3.58-14,7.53-21.25,10.27-2.87,1.09-6.74-.62-10.17-.9-2-.16-4,0-6,0l-.23,2.35a21.37,21.37,0,0,0,4.51,1.25c4.76.25,9.91-.5,11.25,6.1a2.52,2.52,0,0,0,1.68,1.62c4.55.56,9.13.92,13.69,1.4a19.18,19.18,0,0,1,3.77.73c2.93.94,5.77,2.65,8.73,2.84,4.11.27,6.07,2,6.61,5.84a29.15,29.15,0,0,0,.92,3.88c1.08,3.91,3.85,5.11,6.38,2.21s4.57-2.38,7.34-1.11c1.8.82,3.83,1.12,5.66,1.9,6.59,2.81,7.11,3.73,5.82,10.79-.54,3,.17,5,3.24,5.61,12.19,2.4,20.76,9.58,27.08,20,1,1.62,2.82,2.73,4.68,4.46-4.71,5.39-6.28,11.61-6.6,18.7-.11,2.47-5,5-8.1,6.8-.7.39-3.22-2.49-4.92-3.85q-4.08-3.25-8.18-6.49l-1.26.94c.35-1.85.7-3.71,1-5.53-5.1-2.07-12.72.9-13.74,5.93-.71,3.51-2.48,4.09-5.32,4.5-4.4.63-8.75,1.63-13.14,2.3-1.4.22-3.61.46-4.21-.29-2.91-3.68-6.5-1.73-9.93-1.94-2.66-.17-5.23-1.66-7.88-2.48a33.38,33.38,0,0,0-5.53-1.38c-3.87-.46-7.29-1.06-7.32-6.2a5.38,5.38,0,0,0-2.25-3.52c-3.31-2.37-6.84-4.44-10.92-7a41.65,41.65,0,0,1-1.72,5.2c-.66,1.37-1.57,3.2-2.76,3.58s-3.26-.47-4.17-1.47c-1.39-1.54-2-3.77-3.16-5.55-2.41-3.64-5-7.17-7.48-10.74l-1.81.26c-.91,1.94-2.44,3.85-2.58,5.85-.25,3.56-2.09,4.65-5.13,4.69-11.75.18-23.54.79-34.35-5.34-2.9-1.64-6-2.78-9.3-.18-.79.63-2.5.09-4,.09.42-3.26.15-6.62,1.41-9.25,1-2.05,3.71-3.48,5.94-4.67,6.4-3.43,7.78-10.16,5.14-16.9-1.36-3.49-.74-8.9,1.13-12.24,2.52-4.52,2.2-9.32-2.91-11.19a54.81,54.81,0,0,0-5.64-1.43c-2.24,7.29-2.23,7.2-10,6.41a4.08,4.08,0,0,0-3.11,2c-.72,1.35-.67,3.1-1.17,5.89L278,499H263.82c-4.59,0-5.41-3.48-5.69-6.79-.26-3.13-1-6.82,4.09-7.67,1.18-.19,2.39-2.85,2.68-4.52.12-.74-1.92-2.08-3.19-2.74a9.71,9.71,0,0,0-3.86-.9c-4.5-.25-6.58-2.39-6.06-7,.41-3.69-1.66-5.39-5.08-6.1-2.4-.5-4.71-1.42-7.5-2.29l6.71-14-5-3.77a75.31,75.31,0,0,1,5.6-6.14c1.16-1.05,2.91-2.17,4.32-2.08,7.28.48,10.52-1.14,13.52-7.76,1.94.38,4,.88,6.07,1.15,3,.4,4.48,1.36,3.5,4.9-.92,3.37,4.78,7.82,8,6.62s8.31,1,9.26,4.18c.8,2.74,1.57,5.48,2.44,8.2S295.4,457.52,296.48,460.69Z" fill="#a3a3a3"/><path d="M290.74,346.83c-10.53-.56-19.11-4.84-27.94.55-.56-5.88-3.83-6.64-7.88-6.51a23.45,23.45,0,0,1-5.43-.71c-5.36-1.09-9.16.82-11.11,5.91-1.23,3.21-3.18,3.35-5.89,2.06a62.93,62.93,0,0,0-9.14-4c-3.38-1-7-1.25-10.46-1.83l-1,1.66c-1.81-4-3.66-8.06-5.36-12.14-.25-.61-.08-1.94.34-2.19,3.3-2,1.54-4.62,1.12-7.12-.58-3.47-1.59-6.06-6.12-4.63a4.19,4.19,0,0,1-3.71-1.81c-.59-1.6-.82-4.49.12-5.3,4.47-3.88,2.95-7.34.23-11.23a54.15,54.15,0,0,1-5-8.61c-2.45-5.41-6-9-12.33-9-2.7,0-3.36-1.49-2.76-4,.46-1.93.47-4,.89-5.91,1-4.56,4.62-7,9.21-6.18a9,9,0,0,0,10.36-6,15.7,15.7,0,0,1,3.49-5.54c3.39-3.36,5-14.49,2.38-18.5q-1.94-2.91-4-5.73c-2.11-2.88-3.87-5.57-1.92-9.52.81-1.64-.11-4.13-.29-7a83.09,83.09,0,0,0,9.73-.08c3.36-.41,6.62-1.7,10-2.19,2.13-.3,4.63-.43,6.51.39,4.85,2.13,8.81,1.4,12.9-1.87,3.58-2.87,6.83-7.45,12.53-5a22.38,22.38,0,0,1,5.51,3.53c2.83,2.42,5.27,2.84,8.83.86,3.78-2.11,5.3-8.09,11-6.66,1.59.4,3,1.53,4.49,2.32-.82,1.25-1.37,2.84-2.49,3.71-6.49,5-8.5,9.09-3.51,14.51s6.85,15.15,17.55,15.17c-3.09,4.77-2.43,8.44-.06,12.3.88,1.44-.09,3.9.47,5.68,1.07,3.4,1.81,7.57,4.2,9.72,3.09,2.77,6.75,6.27,12,4.92a1.88,1.88,0,0,1,1.59.9c1.41,4.63,2.63,9.32,4,13.95a6.13,6.13,0,0,0,1.83,3.08c3.52,2.61,4,5.47.41,8-3.23,2.32-5.45,4.6-4.85,8.91.15,1.08-.75,2.53-1.55,3.49-5.54,6.65-11,13.38-16.88,19.74-1.93,2.08-5,3.16-7.49,4.71Z" fill="#a3a3a3"/><path d="M121.19,400.26c-9.16-3.08-11.48-9.64-10-18.62.41-2.45-1.94-5.36-3-8,5.17,3.4,9.17.15,14.24-2.79,6.57-3.81,3.84-10,5.36-13.34,3.72-1.36,6.53-2,8.77-3.42.87-.57,1.12-3.39.53-4.67-2.69-5.82-5.78-11.46-9-17.65,2.72-1,4.24-1.2,5.42-2,2.06-1.34,4.51-2.64,5.73-4.61,2.52-4.08,7.89-5.83,12.74-5.21,3.6.46,7.47-1.37,11.24-2,5.4-1,4.53-5.07,4.9-8.88.25-2.6,1.68-5.07,2.32-7.66A49.7,49.7,0,0,0,171,296c.26-2.1.13-4.43,1-6.23,3-6.1,12.84-6.35,16.51-.5a118.54,118.54,0,0,1,7.44,13c.75,1.61.58,4.9-.54,5.9-4.34,3.89-1.09,7.2,0,10.81,1.06,3.45,3.27,3.47,6.21,2.88a3.55,3.55,0,0,1,2.88,1.78c.37.86,0,2.81-.72,3.25-2.61,1.63-1.93,3.38-.92,5.51,2,4.21,3.95,8.45,5.76,12.74,1.07,2.54,2.48,2.95,5.07,2a11.55,11.55,0,0,1,6.56-.62c5,1.45,5.24,3.68,1.75,7.74a6.29,6.29,0,0,0-1.17,4.4,78.45,78.45,0,0,0,1.9,8.66c-4.86-1.91-9-1.08-10.91,3.27-1.74,4,1,6.89,3.55,10.25,2.23,2.93,2.87,8.07,2.25,11.92-.78,4.85.21,8.41,3.52,11.49,2.68,2.49,5.79,4.48,5.38,8.91-.08.8,1.33,2.16,2.33,2.54a28.63,28.63,0,0,0,5.37,1c6.29,1.07,8.52,6.75,4.71,11.7-2.52,3.25-6.73,6.1-3.16,10.88-4.81,5.4-11,4.65-16.91,4.7-10.13.08-12.8,2.74-13.61,13-.11,1.42-1.62,3.92-2.33,3.87-2.51-.2-5-1.24-7.41-2.07-.28-.1-.28-.92-.47-1.38-2.93-7.37-6-7.89-11.08-2-.6.69-1.4,1.81-2,1.75-4.95-.43-10.67.3-14.66-2a58.37,58.37,0,0,1-23.92-24.68c-.77-1.54-3-2.65-4.73-3.33-3.18-1.23-6.57-1.91-9.83-3a7.14,7.14,0,0,1-5.23-6.56,9.56,9.56,0,0,0-2.29-4.79C116.35,407.22,116.24,406.67,121.19,400.26Z" fill="#a3a3a3"/><path d="M467,898.65c.8,3.45,1.21,7.05,2.53,10.28a8.1,8.1,0,0,0,4.59,4.22c2.33.66,4.68-.34,4.05-3.79-.61-3.27-1.26-6.54-1.61-9.84a13,13,0,0,1,.42-5.76c.56-1.49,2.22-2.56,3.39-3.82,1.69,1.65,4.26,3,4.87,5,1.05,3.42.7,7.26,1.33,10.85.24,1.35,1.51,3.51,2.43,3.58,7.11.5,14.26.66,21.4.74,2.89,0,4.24-1.59,4.79-4.59.81-4.49,2.89-5.32,7.12-3.75,6.81,2.52,10.13,3.28,4.61,15.76,2.53.61,6,.44,7.43,2.06,1.63,1.79,1.78,5.19,2,7.93.32,3.51,1.43,5,5.33,4.44,6.73-1.05,13.61-1.17,20.27-2.49,4.42-.88,8.53-3.28,12.85-4.79a17.67,17.67,0,0,1,6.52-1.36c6.63.39,13.22,1.31,19.85,1.74,1.69.11,3.44-1.22,5.17-1.22,4.44,0,8.45,1.09,11.21,5.16,3.19,4.69,7.92,6.19,13.46,6,6-.23,12-.23,18-.2,1.26,0,3,.15,3.7,1,3.52,4.16,7.56,3.09,11.81,1.73a80.56,80.56,0,0,1,10.56-3c4.75-.82,9.6-1.08,15.57-1.7-1.89,6.64-3.31,11.71-4.78,16.77-2.22,7.62-.38,10.79,7.59,12.92,6.64-10.55,27-17.28,33.64-11.22l16.1-12.58,1.18.7-2.58,10.49c1.55,1.75,4,3.35,3.84,4.54a67,67,0,0,1-3.45,11.68c-.41,1.18-1.53,2.1-2.19,3.23-1.27,2.18-1.93,5.56-3.78,6.41a37.66,37.66,0,0,1-12.82,3.15c-2.72.19-5.59-2.29-8.38-2.27-5.54,0-11.08,1-16.62,1.55-3.28.32-6.58.78-9.87.82-19.44.23-38.89.33-58.34.55-4.66.05-9.32.55-14,.48-3.4,0-5.51,1-5.71,4.59-.16,3-2,3.52-4.44,3.26-6.25-.65-12.43-1.74-18.64.91-2.48,1.06-4.61-.27-4-3.67a29.83,29.83,0,0,0,.21-3c.74-9.78-.86-14.43-12.35-14.32-3.14,0-6.32-2.3-9.43-3.66-.88-.38-1.52-1.54-2.4-1.72-9.91-2-19.12-7.06-29.69-6.34a60.64,60.64,0,0,1-14.92-.81c-7.19-1.33-14.14-4.27-21.35-5s-14.89-.17-22.28.5c-8.44.76-15-5.2-13.82-13.46,1.49-10.54,3.05-21.08,4.85-31.57.43-2.52,1.91-4.87,2.91-7.3Z" fill="#a3a3a3"/><path d="M266.23,672c.21.28-.41-.31-.73-1-5.08-11.44-13.21-20.09-23.64-26.92-3.48-2.27-6.22-5-11.1.57-1.07-5.89-2.54-10.31-2.52-14.72,0-5.28-1.86-8.14-6.94-9a7.77,7.77,0,0,1-1.39-.56c-13.84-5.35-13.84-5.35-8.29-20.2,4.93,3,7.51-.57,10.66-3.7,7.13-7.09,12.93-14.65,12.95-25.36,0-3.61,2.29-4.58,5.46-3.27,4.15,1.72,8.21,3.65,12.36,5.36,6.35,2.61,9.16,2,13.77-2.82,3.1-3.25,6.51-6.3,9.14-9.9,4.89-6.69,11.16-9.85,19.43-9.69,4.49.09,8.71.14,11.19,4.72a2.27,2.27,0,0,0,1,1.07c5.73,2,9.72,6.39,14.37,9.94,2.86,2.18,7.31,2.76,11.12,3.1s5.57,1.62,5.42,5.42c-.1,2.49-.25,5-.17,7.49.19,6.4-1.25,11.82-8,14.31-5.09,1.88-3.86,7.7-6.68,11.09-.42.52,1.73,3.17,2.49,4.49l-7.63,6.31c-2.94-3.82-6.34-2.87-9.81.06a2.8,2.8,0,0,1-2.2.72c-5.63-2.27-12.71-1.77-16.38-8.74-3.38,2.37-6.73,4.49-9.78,7a4.55,4.55,0,0,0-1.28,3.79,49.82,49.82,0,0,1-.46,23.69c-.36,1.44.61,3.21,1,4.82,1.81-.58,4.08-.68,5.34-1.85,2.22-2.08,3.8-1.72,4.35.81.87,4,3.2,5.8,6.95,6.72,1.32.32,2.34,1.84,3.69,3-3.87,3.25-11.54,2-9.27,10.2Z" fill="#a3a3a3"/><path d="M236,444.32l5.34,4.21-6.87,14.37c3.76,1.28,7.26,2.18,10.45,3.71,1.45.7,3.39,2.78,3.24,4-.78,6.49,2.62,8.59,8.22,9.05a16.06,16.06,0,0,1,4.64,1.38c-5.14.21-6.55,3.77-6.27,7.52.3,4.16.57,10.51,3.06,11.87,4.87,2.66,11.28,2.52,17.06,3.54l.45-1.2,2.14,3.91c5.09.53,6.78-2.8,7.59-6.88,10.87.65,11.32.46,13.55-5.66,3.25,1.68,3.95,3.18,1.67,5.18s-2.52,4.28-2,7.08c.28,1.54-.38,3.24-.35,4.86a22.66,22.66,0,0,0,.64,4.31,48.78,48.78,0,0,1,1.17,4.81c.58,5.34-2.89,7.53-7.23,9-3.62,1.27-5.47,3.41-5.32,7.76.23,6.82-4.69,11.52-12.24,12.66-3.45.52-7,.6-10.37,1.35a59.14,59.14,0,0,0-10.23,3.27c-3.63,1.53-12.63-1.29-14.28-4.48-1.19-2.32-3-4.31-4.6-6.45-2.42,2.07-6,3.7-7,6.31-1.74,4.67-4.8,5.78-9,6.14-7.48.62-10.3-3-11.13-10.61-.45-4.08-2.88-7.78-.49-12.1.31-.55-1.94-3.62-2.92-3.57-4.29.19-4.41-2.65-4.76-5.49s-.16-5.8-1.12-8.36-2.63-6.32-4.83-7.07c-5-1.73-6.51-5.3-7.45-9.61s-3.14-6-7.79-4.85c-5.68,1.44-5.66,1.18-5.48-5,0-1.58-.94-3.16-1.08-4.78-.19-2.15.24-4.37-.07-6.49a58.71,58.71,0,0,0-1.89-7.32c-.58-2.05-1.22-4.08-1.84-6.12,2.17.16,4.44-.05,6.47.55,2.69.79,5.1,2.59,7.8,3.26a22.42,22.42,0,0,0,8.16.49c4.94-.66,9.06.23,12.66,3.91a5,5,0,0,0,4.55.87c1.85-.82,4.55-2.71,4.53-4.11a21.12,21.12,0,0,0-2.6-8.82c-3.39-6.83.11-12.91,7.58-13.25,6-.28,11.93-1.17,17.9-1.79Z" fill="#a3a3a3"/><path d="M387.55,483.73c1-1.37,1.74-3.17,3.08-4,5.73-3.69,11.75-6.91,17.43-10.67,3.28-2.17,5.78-5.61,9.17-7.47,7.44-4.09,15.44-6,23.92-3.23.16.05.39.05.47.16,2.94,4.21,7.35,8.07,8.51,12.74,2.86,11.47,13.07,20.94,24.75,21.57a10.67,10.67,0,0,1,6.67,3.35c4.29,4.85,9.17,8.08,15.78,8.25,1,0,2.22.51,2.95.1,8.88-4.95,16.4,1.89,25.38,2-.75,2.37-.81,4.32-1.8,5.34-3.61,3.69-1.26,5.69,1.7,7.81,6.12,4.39,6,4.38,3,11.6-.65,1.57-1.18,3.64-.71,5.15,2.31,7.47,6.39,14.69,7.2,22.28,1.22,11.36,10.79,10.43,17.31,13.6,3.35,1.63,8.06.91,12.1.54,4.39-.4,5.29.38,4.77,4.76-.32,2.61.4,5.33.47,8a9.28,9.28,0,0,1-.61,3.74c-1.22,2.91-2.63,5.75-4,8.57-2.08,4.13-5.92,5-9.14,1.74-2.64-2.7-5.49-3.37-9.14-3.92-3.08-.47-6.36-3.16-8.44-5.76-2.41-3-3.77-6.47-8.66-6-2.27.21-5.72-6.7-4.85-9.15,1.15-3.24,1.48-5-2.69-7.3-4-2.18-6-7.54-5.27-13l-7.25-2.68c2.19-4.67.43-7.74-4.27-7.8-5.5-.07-11.06-.3-16.47.41-6.42.84-11.3-2.19-15.19-6-6.59-6.54-13.39-13.33-18-21.23-4.53-7.74-10.79-13.43-17-19.19-5.51-5.08-12.09-9-18.29-13.33a4.56,4.56,0,0,0-3.34-.41c-4,1.05-7.19.75-8.69-4-.12-.4-3.82-.56-4.4.24-4.17,5.71-10.11,3.47-15.28,4.58Z" fill="#a3a3a3"/><path d="M513.91,578.57c-6.37,1.3-6.51,1.65-5.68,8,.87,6.6,1.07,13.31,2.37,19.81.85,4.25,3.25,8.19,4.75,12.34.86,2.37,2,4.94,1.81,7.33a27.87,27.87,0,0,1-2.6,10c-.88,1.79-3.54,3.9-5.31,3.82-4.23-.19-9.27.64-10.34-6.31-.56-3.62-3.69-7-6.16-10.08-.87-1.09-3.33-.77-4.87-1.49-1.87-.87-4-1.83-5.17-3.37-1.49-1.91-2.09-4.5-3.21-6.73-1.8-3.58-3.54-7.47-10.08-2.32.35-5.15.73-8.42.73-11.68,0-1.75-.09-4.31-1.15-5-1.66-1.14-4.17-1-7.47-1.68,1.06,2.64,1.48,3.67,1.89,4.7,2.49,6.23,1.34,9.25-4.68,12.25-1.19.6-2.36,1.24-3.58,1.78-2.15,1-4,2.8-6.64.22-2.33-2.29-3.55-4.22-1.64-7.23.24-.37.11-1,.22-2.24-7.22-.21-14.31-3.88-20.87.5l-8.11-7.41a35.44,35.44,0,0,1,.09-6.44c.35-2.22,1.49-4.31,2.28-6.46l1.64.14c-.83-2.43-1.66-4.85-2.68-7.81,4.55-.52,8.81-.79,13-1.6,1.33-.27,3.46-2,3.39-3-.27-4.22,2.39-5.81,6.06-7.84-1.68,5.77,1.92,6.67,5.74,7.76a8.46,8.46,0,0,1,4.43,3.22c2.08,3.18,4.17,6.44,8.45,5.47,6.47-1.47,11.37-6.32,11.37-11,0-5.26.53-10,4-14.49,2.27-2.95,4.68-3.82,7.65-2.82a177.44,177.44,0,0,1,19.58,7.41C511.12,560.05,515.31,569.2,513.91,578.57Z" fill="#a3a3a3"/><path d="M740.73,438.93c-9-2.07-9.91-1.58-13.91,4.4a70,70,0,0,1-6.68,7.94,3,3,0,0,1-2.2.85,30.41,30.41,0,0,1-22.88-13.27c-.52-.73-.29-2.24,0-3.26.65-2,1.72-4,2.41-6,1.22-3.62,3.3-5.55,7.4-6.24,7.18-1.21,14.23-3.27,21.31-5.07a6.93,6.93,0,0,0,3.43-1.77c1.16-1.35,1.59-4.31,2.72-4.52,5.51-1,11.18-1.95,16.74-1.69,1.89.09,3.32,4.18,5.5,5.64,3.31,2.21,2.34,4.41,1.26,7.21-.42,1.1-.08,3.38.72,3.93,9.55,6.48,12.5,17.57,18.66,26.38,1.46,2.09,4.15,4.26,1.45,6.89-1.57,1.53-4,2.16-6.32,2.76a15.52,15.52,0,0,1-16.21,5.51c-7.54-1.84-15-3.85-22.53-5.84-2.8-.75-4.73-5.3-2.91-8.36,2.49-4.19,5.71-7.95,8.66-11.85C738.2,441.49,739.22,440.56,740.73,438.93Z" fill="#a3a3a3"/><path d="M886.87,835.24c2.74-5.65,4.48-10.89,7.58-15.14,3.28-4.5,7.27-9.07,12-11.8,9-5.2,18.75-9.1,28-13.46,6.24,6.58,6.12,14.44,3.44,22.59-2.09,6.32-6,10.79-9.47,15.87-.64.93-.48,2.74-.12,4,1.78,6.21-.75,9.32-6.84,7.86-3.2-.77-5.36,0-7.19,2.7-3.14,4.69-6.36,9.34-9.8,13.82a15.57,15.57,0,0,1-5.11,4.42c-5.51,2.77-10.84-1.19-10.2-7.44a63.17,63.17,0,0,1,1.28-8.36C891.89,844.25,893,838.41,886.87,835.24Z" fill="#a3a3a3"/><path d="M713.37,575.79c-4.36-3.59-8.56-6.74-12.38-10.29s-2.11-9.26,2.87-10.91c3.42-1.14,9.75-.94,7.68-6.59-2-5.44-3.72-12-9.74-15-5.39-2.7-8.62-9.17-6.09-14.08a7.37,7.37,0,0,1,4.62-3.2c4.16-.88,8.45-1.1,12.68-1.67,3.59-.49,12.82,4.62,13.78,8.29a106.09,106.09,0,0,1,2.42,14.09c.62,5.06,2,10.41,1,15.2-1.22,5.8-4.58,11.16-7,16.69a1,1,0,0,1-.83.48C717,567.7,715.45,572,713.37,575.79Z" fill="#a3a3a3"/><path d="M613.13,329.88c8.79-5.15,18.58-4.63,26.74,1.56.94.71,3.14.58,4.31,0s1.59-2.46,2.6-3.5c1.47-1.52,4.12-4.26,4.63-3.93a15.41,15.41,0,0,1,5.37,5.85c.44.87-1.64,3-2.57,4.56-3,5-6.68,9.87-5.39,16.31.6,3,1.47,5.94-2.39,7.55s-5.9-.39-7.72-3.37a12,12,0,0,0-4.63-4.47c-.31,2.09-.63,4.19-1.08,7.17l-10.53-4.11a9.54,9.54,0,0,0-2.29-.78c-7.69-.73-7.25-.66-6.25-8.18C614.53,340,613.49,335.3,613.13,329.88Z" fill="#a3a3a3"/><path d="M155.37,534.81c1.57,4.89,3.21,9.76,4.67,14.69a10.46,10.46,0,0,1,0,3.39c-.13,2.46-.28,4.92-.48,8.61,4.62-2.56,6.45-1.43,8.19,1.49,3.06,5.15,6.71,9.93,10,15,2.49,3.85,1.53,5.78-3,6.17-1.95.17-4.44.76-5.82-.15-4.05-2.67-7.6-4.45-12.74-2.22-2.81,1.23-7.45-4.16-8.19-7.63-.91-4.22-2.46-8.29-3.73-12.43l-1.78.23c-.62,2.49-.8,5.23-2,7.39-.9,1.61-3.11,3.37-4.8,3.44-2.32.08-4.72-1.06-4.69-4.55,0-3.94.41-7.42,3.5-10.42,1.67-1.62,2.63-4.06,3.64-6.25,1.11-2.39,1.79-3,4.26-.95,1.48,1.25,4.5,1.27,6.64.86,1-.18,1.75-2.73,2.09-4.31.89-4.17,1.5-8.41,2.22-12.62Z" fill="#a3a3a3"/><path d="M822.23,631.6c-4.91,1.91-9.64,3.65-14.28,5.62-1.12.48-2,1.67-2.88,2.6-3.55,3.66-10.33,3.08-13-1.14-3.08-4.83-7.34-5.53-12.59-3.17-2.24,1-6.53,1.25-7.76-.1a7,7,0,0,1,1.71-11c5.58-3,10.36-7.19,17.61-7.21,5.56,0,10.42,0,14.82,3.71a5,5,0,0,0,3.6,1c10.19-1.74,10.18-1.79,12.41,8C821.92,630.21,822,630.52,822.23,631.6Z" fill="#a3a3a3"/><path d="M103,402.88l3.68,10.2c-7.32-3.08-14.1-4.89-19.54-8.63-3.15-2.17-4.85-7.27-5.93-11.39-1.15-4.41-1.61-7.46-7-9.7-4.66-1.93-7.69-8.11-11.06-12.7-1.26-1.73-1.26-4.33-2.15-6.4-1.32-3.09.24-7.17,3.54-7.58,3-.36,6.08.54,9,.13,2.44-.33,4.73-1.77,6.91-2.64,2.42,1.23,4.81,2.54,7.27,3.69,2.63,1.23,2.79,4.81.09,6.74-1.61,1.15-3.51,1.9-5.23,2.89-4.77,2.74-4.88,8.34.09,10.83,3.56,1.78,5,3.69,3.59,7.68-.49,1.42.3,3.35.72,5,.28,1.08,1.52,2.19,1.33,3.08-.9,4.12,1.16,6.29,4.61,7.52,2.86,1,5.83,1.72,8.75,2.56Z" fill="#a3a3a3"/><path d="M644.19,717.84c.33-8.35,2-10.48,9.38-13.19,1.13-.42,2-1.53,3-2.3,2-1.59,4-3.28,6.18-4.73s4-.86,5.14,1.68c1.45,3.35,3.21,6.59,4.38,10a10.13,10.13,0,0,1,.06,5.62c-.92,3.35-2.9,6.46-3.48,9.84-1.05,6.14-5,8.81-10.42,9.85-1.45.28-3.84.11-4.5-.79-3.39-4.71-6.39-9.7-9.46-14.64A2.69,2.69,0,0,1,644.19,717.84Z" fill="#a3a3a3"/><path d="M589.34,237.6c-1.41,3.54,1.12,7.75-4.1,9.57-5.65,2-11,5.93-17,.52-1.93-1.74-5.41-2-6.88-4-4.15-5.46-3.18-11.62,2-18,6.34-7.83,16.16-8.49,22.23-.6C588,228.36,588.15,233.39,589.34,237.6Z" fill="#a3a3a3"/><path d="M509.73,268.23c1.21,1.27,2.41,2.56,3.65,3.8,1.58,1.6,3,4.16,4.84,4.57,9.85,2.2,16.29,8.21,21.19,16.66,1.88,3.25,5,5.8,7.43,8.71,2.89,3.4,3,7.44.31,9.64-2.86,2.35-8.17,1.72-10.63-1.16-3.71-4.33-8.44-7.78-10.45-13.52-2.06-5.91-7.34-6.58-12.6-6.68-4.44-.09-5.58-1.82-4.91-6.3.72-4.79.17-9.77.17-14.67Z" fill="#a3a3a3"/><path d="M840.87,863.57c.19,2,.81,4.17.49,6.14-1.38,8.46-.45,17.45-5.88,25-2.87,4-2.38,7.62,1.87,10.69,2.67,1.92,4.17,10.7,2.63,13.65-.36.69-1,1.77-1.54,1.75-3.73-.15-4,2.67-4.92,5.16a23.15,23.15,0,0,1-2.11,3.7c-.9-.95-1.75-2-2.73-2.83-1.83-1.6-3.73-3.11-6-5,5.93-4.74,2-9.16-.22-13.31s-3-7.31,1.84-10.28c1.69-1,2.58-3.69,3.4-5.77,2.34-5.91,3.15-12.21,6-18.17a88.94,88.94,0,0,1,5.77-10.92Z" fill="#a3a3a3"/><path d="M572.74,599.63l17-6.66c.66,6.62,6.3,8.21,10.37,11.23,2.76,2,4.32,4.06,4.27,7.74a11.6,11.6,0,0,0,2.4,7.25c3.59,4.09,2.33,8,.56,12-1.51,3.42-4.45,3.22-6.74.23-2.77-3.63-6-6.94-9-10.39-2.46-2.82-4.8-5.77-7.42-8.44-2.81-2.88-6-5.41-8.79-8.29C574.34,603.21,573.81,601.55,572.74,599.63Z" fill="#a3a3a3"/><path d="M813.14,767c-3.67-2.78-8.43-4.15-6.89-9.58.54-1.9,2.33-3.56,3.84-5,1.15-1.13,3-1.53,4.11-2.7,6.12-6.8,14.46-9.85,22.34-13.75,5.57-2.76,10.23-.35,14.91,2,2,1,1.26,5.77-1.1,6.45a59,59,0,0,0-20.63,10.71c-1.33,1.06-3.83,1.07-5.74.91-5.37-.43-8.52,1.66-9.38,7.09A25,25,0,0,1,813.14,767Z" fill="#a3a3a3"/><path d="M168.6,604.38c1.64,10.65,8.77,14.16,17.86,15.23.88.1,2.4,1,2.38,1.41-.25,5.51,4.27,6.86,7.58,9.74l-5.78-1.71c-5.28-1.59-8.21.93-7.63,6.39.13,1.16,0,2.95-.74,3.43a3.66,3.66,0,0,1-3.53-.3c-5.35-5.62-11.23-11-15.5-17.33C158.58,614.27,160.31,610,168.6,604.38Z" fill="#a3a3a3"/><path d="M410.82,835.18c-7.53,1.21-12-1.22-15.39-6.12-.28-.4-.92-.79-.9-1.15.55-7.92-3.85-15.91.26-23.72a4.69,4.69,0,0,1,3.32-2.21c1.12,0,3.14,1.19,3.28,2.08,1,6.37,5.64,9.34,10.5,12.29,1.82,1.1,3.46,2.51,5.21,3.81C416.07,826,406.37,827.39,410.82,835.18Z" fill="#a3a3a3"/><path d="M639.4,703.22c0,5.36.3,10.48-.11,15.54-.28,3.55-11,9.74-14.18,8.36-2.74-1.19-4.15-.63-5.62,1.9-.76,1.3-2.81,2.84-4,2.65-1.36-.22-2.88-2.06-3.55-3.54-2-4.51-.63-8.2,3.53-10.42,3.74-2,6.92-3.91,9.18-8.32S632.39,703,639.4,703.22Z" fill="#a3a3a3"/><path d="M449.49,671.84l4.56-5.52c-4-6.37-12.09.14-15.44-4.7-3.87-5.6-11.12-2.73-15.16-8.25l2.2-6.21c3.12,1.66,5.65,3.21,8.35,4.32a5,5,0,0,0,4-.12c.64-.42.61-2.54.23-3.68-1.88-5.65,2.33-6.36,7.12-8.06a90,90,0,0,1,2.74,8.83c.33,1.56-.29,3.32-.49,5l5.55-2.16c5.39,1.92,5.84,2.81,4.28,9a8.85,8.85,0,0,0,0,3.44C458.43,669.91,456.88,671.71,449.49,671.84Z" fill="#a3a3a3"/><path d="M568.87,744.31c-1.59,7-3,13.54-4.68,20a4.75,4.75,0,0,1-3.1,2.54c-5.79,1.39-11.64,2.58-17.51,3.63-1.05.19-3.28-.58-3.28-.88.07-4.54-.21-9.25.94-13.56.76-2.89,9.14-4.29,12.23-2.82,4,1.93,6.34.58,6.47-3.82C560.16,741.88,562.11,740.77,568.87,744.31Z" fill="#a3a3a3"/><path d="M750.56,634.8c-3.9,5.3-7.72,10.66-11.77,15.85-.68.88-2.3,1.06-3.52,1.48-5,1.71-9.87,3.77-15,4.93-2.79.63-5.92-.28-8.9-.5.62-2.88.52-6.21,2-8.57,3.58-5.73,8.67-8.66,16-7.07,2.08.45,4.73-1.6,7.07-2.61,4.26-1.83,8.48-3.74,12.72-5.61Z" fill="#a3a3a3"/><path d="M170,506.39l4.77.47.84,7.17c-4.56-2.19-9.19-4-11.76,1.6-3.56.37-5.1-6.57-9.11-.36-.32-5.5-1.8-9.71,1.67-13.85,1.35-1.61.83-4.78,1.18-7.24,1.2-8.21,1.56-8.66,9.73-12.05,3.05,3.63,2.4,7.71,2,12C168.86,498.06,169.66,502.06,170,506.39Z" fill="#a3a3a3"/><path d="M551.69,479.91c.57-4,1-7.08,1.45-10.17.54-4.09,3-5.57,6.53-3.67,4.88,2.62,10.52,4.61,8.94,12.32-.25,1.22,2.5,3.63,4.34,4.6,3.32,1.76,5.09,3.72,4.47,7.78s-3.88,3.62-6.39,4.16c-6,1.28-7.69-.2-8.68-6.39a6.47,6.47,0,0,0-2.55-3.74C557.11,482.89,554.15,481.36,551.69,479.91Z" fill="#a3a3a3"/><path d="M671,277c-2.45-1.4-5-2.72-7.32-4.26a12.33,12.33,0,0,1-2.82-2.81c-2-2.63-4-5.33-5.94-8,4.26-1.25,8.49-3.33,12.8-3.51s9.06.19,13,3.79c3.6,3.28,1.48,6.16,1.12,9.43s-2.52,3.48-4.86,3.83l-5.41.79Z" fill="#a3a3a3"/><path d="M690.41,756.39c-1.5-1.09-4.88-2.38-4.94-3.82-.12-2.86,1.71-5.39,5.42-6,1.81-.27,3.45-1.94,5.06-3.13,1.3-1,2.38-2.21,3.66-3.2,3.6-2.78,7.3-5.43,10.87-8.24,2.61-2.07,9.95-.13,10.44,3.17.17,1.12-1.75,2.95-3.12,3.82-2.35,1.49-5.28,2.12-7.49,3.76-5.48,4.08-8.85,10.89-16.22,12.59C693.13,755.6,692.19,755.9,690.41,756.39Z" fill="#a3a3a3"/><path d="M607.2,640.86c5-6.73,5.6-6.5,12.17-3.18,5.86,3,12.22,5,18.86,7.56l-7,13.31Z" fill="#a3a3a3"/><path d="M801.55,713.87c5.29-.67,10.48-.59,13.92,5a3.86,3.86,0,0,0,1.82,1.44c4.93,1.83,6.36,4.89,4.39,9.63a3.94,3.94,0,0,1-.37.92c-2,2.76-12.09,3.61-14.4,1.17a4,4,0,0,1-.83-1.71C804.57,724.94,803.1,719.54,801.55,713.87Z" fill="#a3a3a3"/><path d="M550.38,639.87c0,6.14-4.45,8.85-7.41,12.22-1.82,2.07-4.27,3.58-6.44,5.34-.57-2.77-1.3-5.52-1.7-8.31-.68-4.81-.68-9.12,3.36-13.19,3.21-3.22,6-2.43,8.8-1C548.55,635.74,549.28,638.18,550.38,639.87Z" fill="#a3a3a3"/><path d="M751.55,776.61c-.88-2.82-1.33-4.26-1.81-5.78,6.06-.55,10.62,1.81,12.45,6.68.31.81-1,3.13-1.84,3.3-4.22.85-8.82.28-10.28,6.22-.54,2.2-8,1.6-9-.94a23.07,23.07,0,0,1-1.73-9.42c0-.69,4.07-1.62,6.31-1.76C747.26,774.81,749,775.81,751.55,776.61Z" fill="#a3a3a3"/><path d="M463.42,434.84c2.16-.31,3.84-1.12,4.77-.59q8.43,4.81,16.5,10.25c.9.61,1.65,3.27,1.18,3.76-2.06,2.16-4.34,4.61-7,5.53-2,.68-5.14-.26-7.08-1.52-1.53-1-2.06-3.56-2.95-5.48C467.1,443.08,465.44,439.33,463.42,434.84Z" fill="#a3a3a3"/><path d="M633.92,755.69c1.29-1.82,2.24-4.5,4-5.19,1.49-.59,4.21.66,5.81,1.86a42.74,42.74,0,0,1,6.71,6.67c.87,1,1.79,2.75,1.51,3.86a61,61,0,0,1-3.16,8c-2.37-1.28-5.13-2.13-7-3.93-3-2.92-8.17-4.74-6.69-10.67Z" fill="#a3a3a3"/><path d="M550.34,661.41l8.13,9c-3.31,5.53-3.59,13.81-12.68,15.46-.25-.39-.9-.93-.87-1.43.41-6.78.68-13.58,1.62-20.29C546.72,662.79,549.64,661.87,550.34,661.41Z" fill="#a3a3a3"/><path d="M646,808.11c6.86-5.13,7.17-6.05,3.84-11.86a4.59,4.59,0,0,0-1.29.45c-1.33,1-2.6,2.12-3.9,3.19-.53-.73-1.6-1.58-1.48-2.18.45-2.16.69-5,2.14-6.19,2.24-1.89,5.45-2.75,7.73.61,2.47,3.62,5,7.22,7.25,11s-.31,6.28-3.26,6.58C653.4,810.07,649.64,808.72,646,808.11Z" fill="#a3a3a3"/><path d="M455.57,620.8c3,1.06,6.18,1.19,7.21,2.74,1.72,2.59.6,5.49-1.94,7.87-1.94,1.8-1.45,6.24-5.67,5.57-1.87-.29-4.62-1-5.21-2.25-1.45-3.19-3-7.13-2.3-10.22C448.1,622.7,452.92,622,455.57,620.8Z" fill="#a3a3a3"/><path d="M503.37,424.71c1.74,4.18,3.36,7.18,4.16,10.39.36,1.43-.71,4.59-1.49,4.71-5.32.85-10.4,2.14-15,5.13-.21.14-.83-.34-1.76-.77,3.49-6.3,6.78-12.54,10.45-18.55C500.32,424.72,502.62,424.87,503.37,424.71Z" fill="#a3a3a3"/><path d="M563.44,702.67c.26,4.31-2.36,8.13-5.53,7.49s-8.31,1.44-9-4.38c-.57-5.11,3.92-9.75,9.46-10S563,699.81,563.44,702.67Z" fill="#a3a3a3"/><path d="M658.62,663.9c-3.31,2.84-6.39,6.05-10,8.42-3.18,2.09-8.41-1.7-8.2-5.53.45-7.89,1.55-8.67,9.39-6.62,2.69.7,5.36,1.46,8,2.2Z" fill="#a3a3a3"/><path d="M598.51,677.59c-5.32-3.34-4.18-7-1.86-11.11,1.11-2,1-4.65,1.47-7.25,4.92-1,6.17-.16,6.71,4.85a10,10,0,0,0,.44,1.93C607.85,674.38,607.08,675.67,598.51,677.59Z" fill="#a3a3a3"/><path d="M578.9,736.67c-2.13-3.34-4.64-6.2-5.84-9.54-.75-2.09,0-6.78.9-7,3-.82,7.17-2,8.37,3.16a13.43,13.43,0,0,0,.86,2.34C586.12,732.17,586,732.4,578.9,736.67Z" fill="#a3a3a3"/><path d="M818.25,922.75c-1.22,2.67-1.65,4.81-2.93,6.15-2.28,2.38-5.18,4.17-7.64,6.4-2.66,2.42-5.5,1.64-7.52-.19-.7-.64.45-4,1.42-5.68C804.8,923.77,810.47,923.16,818.25,922.75Z" fill="#a3a3a3"/><path d="M843.64,791.68c3.67-.74,7.42-2.52,8.44-1.52,3.44,3.38,6.07,7.65,8.62,11.81.36.61-1.13,3.21-2.23,3.61s-3-.42-4.28-1.23a34.2,34.2,0,0,1-7-5.5C845.68,797.15,845.06,794.66,843.64,791.68Z" fill="#a3a3a3"/><path d="M440.91,684.81c7.56-4,13.31-12,23.65-8.69C457.36,685,446.8,690.25,440.91,684.81Z" fill="#a3a3a3"/><path d="M905.46,779.51a21.92,21.92,0,0,1-2,4.47c-.36.53-2.41.54-3.21,0a48.5,48.5,0,0,1-5.41-4.34,13.72,13.72,0,0,1-1.63-1.55c2-2.55,3.73-5.8,6.39-7.29s5.55-.16,5.65,3.81C905.25,775.81,905.34,777,905.46,779.51Z" fill="#a3a3a3"/><path d="M769.31,643.62c-1.25,5.2-2,9.15-3.27,13-.22.67-2.38,1.29-3.41,1-2.43-.63-4-8.44-2.35-10.5a35,35,0,0,0,2.63-4c.79-1.37,1.45-2.81,2.17-4.22,1.41,1.52,2.86,3,4.2,4.59C769.52,643.8,769.31,644.48,769.31,643.62Z" fill="#a3a3a3"/><path d="M771.16,689.67c-4.42-.91-8.55-10-5.57-13a6.84,6.84,0,0,1,5.92-1.38c1.91.7,3.21,3.1,3.94,3.86Z" fill="#a3a3a3"/><path d="M666.77,524.66c-.43-1.76-.77-3.45-1.27-5.09s-1.22-3.36-1.84-5c2.66-.21,5.6-1.25,7.91-.45,3.17,1.11,4.66,4.17,3.26,7.72C673.63,524.83,670.75,525.73,666.77,524.66Z" fill="#a3a3a3"/><path d="M790.91,700.65c2.82-.72,6.79-2.95,8.21-1.85,3.06,2.35,4.81,6.41,7.3,10.08-8.95,3.58-10.91-3.87-15.38-6.55C791,701.77,791,701.21,790.91,700.65Z" fill="#a3a3a3"/><path d="M460.52,439.91c-2.68,1.74-5.22,4.52-8.09,4.92-2.26.32-4.94-2.28-7.43-3.59,2.73-2.48,5.18-5.44,8.32-7.17,1-.57,3.81,2.06,5.8,3.22Z" fill="#a3a3a3"/><path d="M617,771.78c-.51-8.62.15-10,6.5-12,1.44-.45,3.3.4,5,.65-.37,1.43-.35,3.16-1.17,4.26C622.81,770.68,622.32,770.92,617,771.78Z" fill="#a3a3a3"/><path d="M591.78,768.24c2.55-1.84,5.78-3.37,7.7-.31,2,3.23,10.44,1.64,6.77,8.92C600.59,777.53,594.86,774.18,591.78,768.24Z" fill="#a3a3a3"/><path d="M698.09,806.57c-4.07,3.72-9.55,5-11.33,2.35-1.66-2.45-2.26-5.3.53-7.58S694.1,801.19,698.09,806.57Z" fill="#a3a3a3"/><path d="M609.44,401c-5-3.26-2.76-7.3-2.3-10.74.14-1.05,2.55-2.35,4-2.54,3.72-.48,5.72,2.26,4,5.55C613.67,396.08,611.39,398.44,609.44,401Z" fill="#a3a3a3"/><path d="M838,773.52c-1.24,8-3.33,9.78-8.65,7.55a3.78,3.78,0,0,1-1.16-6.26C830.42,772.74,834.42,772.15,838,773.52Z" fill="#a3a3a3"/><path d="M521.08,419.59,514.65,424c-1.5-2.34-3.35-4.56-4.25-7.11-.24-.68,3.24-3.68,3.7-3.4C516.35,414.79,518.14,416.87,521.08,419.59Z" fill="#a3a3a3"/><path d="M873.3,828.84c-2.25-2.22-5-3.71-4.95-5.08.23-5.18,5.14-2.59,7.87-3.68.56-.22,2.25,2.39,3.42,3.69Z" fill="#a3a3a3"/><path d="M518.86,641.38c-3.68-6.81.7-11.31,2.84-16.5C524.29,628.64,523,636.53,518.86,641.38Z" fill="#a3a3a3"/><path d="M431.61,864.59c5.34.35,8.25,2.67,8.55,7.37.06.93-1.67,2.87-2.47,2.81C435.47,874.63,431.48,867.47,431.61,864.59Z" fill="#a3a3a3"/><path d="M697.15,705c.36,3.85,1.59,7.93-3.54,8.41-1.34.12-4.33-2.91-4.21-4.29C689.77,704.9,693.12,704.29,697.15,705Z" fill="#a3a3a3"/><path d="M582.6,649,574,646c2.46-3.44,4.72-6.43,8.29-4.67,1.48.73,1.51,4.39,2.2,6.72Z" fill="#a3a3a3"/><path d="M638,922.65c-3.08,2-4.74,4-6.36,4-1.44,0-2.83-2.28-4.24-3.54,1.43-1.1,2.76-2.9,4.3-3.11S634.88,921.22,638,922.65Z" fill="#a3a3a3"/><path d="M680.87,740.5H671.6l-.55-1.29c2.19-1.49,4.23-3.5,6.64-4.19.87-.25,2.65,2.66,4,4.13C681.43,739.6,681.15,740.05,680.87,740.5Z" fill="#a3a3a3"/><path d="M785.23,681.09l11.24,3.8.3,1.31c-1.72.48-3.86,1.84-5.08,1.26C789.2,686.28,784.75,686.7,785.23,681.09Z" fill="#a3a3a3"/><path d="M659.57,740.3a45.29,45.29,0,0,1-1.43,7.58c-.11.35-3.18-.31-4.88-.5,1.06-2.62,2.11-5.25,3.17-7.87Z" fill="#a3a3a3"/><path d="M422.89,693.15c-1.66.55-3.73,2-4.89,1.44-2-.9-3.36-3.05-5-4.67l1.07-1.75,8.54,3Z" fill="#a3a3a3"/><path d="M733.25,521.77a73.27,73.27,0,0,1,6.92,3.63c.25.16-.69,2.19-1.09,3.36l-7.34-4.28Z" fill="#a3a3a3"/><path d="M573.33,758.34l-2.84-5.88c1.37-.43,3.12-1.61,4-1.15,3.63,1.84,1.33,4.19.64,6.35Z" fill="#a3a3a3"/><path d="M281.16,763.71c-4.82-.82-6.51-2.67-5.86-6,.15-.8,1.82-1.29,2.79-1.93Z" fill="#a3a3a3"/><path d="M524.63,415.22c-1.51-.72-1.79-.81-1.79-.85q.63-4,1.28-7.92l2.64.54C526.07,409.67,525.37,412.36,524.63,415.22Z" fill="#a3a3a3"/><path d="M756.85,726.45c.41-5.63,3.24-5.35,6-4.59.59.16.79,1.71,1.17,2.62Z" fill="#a3a3a3"/><path d="M832.93,734.22a63.12,63.12,0,0,1-6.23-1.74,19.63,19.63,0,0,1,.66-3.2l6.36,1.61C833.46,732,833.2,733.11,832.93,734.22Z" fill="#a3a3a3"/><path d="M817.22,663.18c-1.75,4.19-3.54,5.64-6.25,3.58-.88-.67-1-2.35-1.44-3.58Z" fill="#a3a3a3"/><path d="M631.87,668.85l4.57,4.26L632.57,678c-.89-3.47-1.5-5.84-2.1-8.22Z" fill="#a3a3a3"/><path d="M444,632.72l-4.64,3.3-2.22-3.39a17.16,17.16,0,0,1,3.94-2.3C441.62,630.17,442.61,631.54,444,632.72Z" fill="#a3a3a3"/><path d="M533.81,755.53c-5-3.76-4.66-5.88.43-8.29C534.09,750.06,534,752.16,533.81,755.53Z" fill="#a3a3a3"/><path d="M885.37,821c.82-1.81,1.63-3.63,2.44-5.44.86.52,2.52,1.33,2.46,1.52a49.5,49.5,0,0,1-2.45,5.22Z" fill="#a3a3a3"/><path d="M109.76,432.91l6.43,3.8-1.4,2.29q-3.09-2-6.17-3.91Z" fill="#a3a3a3"/><path d="M530.62,595.45l2.1-4.51c.87.54,2.56,1.36,2.49,1.57a30.59,30.59,0,0,1-2.17,4.22Z" fill="#a3a3a3"/></svg>