<svg id="Layer_1" data-name="Layer 1" xmlns="http://www.w3.org/2000/svg" viewBox="0 0 20 34.6"><defs><style>.cls-1{fill:#008c74;fill-rule:evenodd;}.cls-2{fill:none;stroke:#000;stroke-opacity:0.24;}.cls-3{isolation:isolate;}.cls-4{font-size:3.26px;font-family:Arial-BoldMT, Arial;font-weight:700;letter-spacing:-0.04em;}.cls-4,.cls-5{fill:#fff;}</style></defs><path id="b" class="cls-1" d="M10,34.6Q13.62,24,15.43,20C17.25,16.14,20,14.29,20,10A10,10,0,0,0,0,10c0,4.37,2.53,6.14,4.44,10A149.26,149.26,0,0,1,10,34.6Z" transform="translate(0 0)"/><path class="cls-2" d="M10,33.06q3.27-9.55,5-13.23a20.81,20.81,0,0,1,1.54-2.71l1.22-1.84A9,9,0,0,0,19.5,10a9.5,9.5,0,0,0-19,0,9.29,9.29,0,0,0,1.7,5.37c.23.37,1.22,1.89,1.48,2.3a23.88,23.88,0,0,1,1.21,2.15A136.72,136.72,0,0,1,10,33.06Z" transform="translate(0 0)"/><g class="cls-3"><g class="cls-3"><text class="cls-4" transform="translate(6.2 18.24)">Base</text></g></g><path class="cls-5" d="M11.12,9.3v2.16h2.57V9.3ZM13.23,11H11.58V9.77h.6v.61h.45V9.77h.6Z" transform="translate(0 0)"/><path class="cls-5" d="M15.94,13.7V6.16L10,3.83,4.06,6.16V13.7H3.15v.48h13.7V13.7ZM4.52,7.58V6.49L10,4.34l5.48,2.15V13.7h-.76V6.84H5.28V13.7H4.52Zm8.11,5.49v-.61h.6v1.22H11.58V12.46h.6v.61ZM11.12,12V13.7h-.48V12H8.07V13.7H5.77V8.08h8.46V13.7h-.54V12ZM9.59,13.07v-.61h.6v1.22H8.53V12.46h.6v.61Zm4.64-5.46H5.77V7.34h8.46Z" transform="translate(0 0)"/></svg>