<svg id="Layer_1" data-name="Layer 1" xmlns="http://www.w3.org/2000/svg" viewBox="0 0 20 34.6"><defs><style>.cls-1{fill:#403dbf;fill-rule:evenodd;}.cls-2{fill:none;stroke:#000;stroke-opacity:0.24;}.cls-3{fill:#fcfcfc;}</style></defs><path id="b" class="cls-1" d="M10,34.6Q13.62,24,15.43,20C17.25,16.14,20,14.29,20,10A10,10,0,0,0,0,10c0,4.37,2.53,6.14,4.44,10A149.26,149.26,0,0,1,10,34.6Z" transform="translate(0 0)"/><path class="cls-2" d="M10,33.06q3.27-9.55,5-13.23a20.81,20.81,0,0,1,1.54-2.71l1.22-1.84A9,9,0,0,0,19.5,10a9.5,9.5,0,0,0-19,0,9.29,9.29,0,0,0,1.7,5.37c.23.37,1.22,1.89,1.48,2.3a23.88,23.88,0,0,1,1.21,2.15A136.72,136.72,0,0,1,10,33.06Z" transform="translate(0 0)"/><path class="cls-3" d="M16.33,6.69a.55.55,0,0,0-.18,0l-.7.19-.72-1.75a1.58,1.58,0,0,0-1.35-.9H6.61a1.58,1.58,0,0,0-1.35.9L4.54,6.9l-.69-.19-.18,0a.56.56,0,0,0-.57.59v.41a.74.74,0,0,0,.74.73h.08l-.12.29a5.44,5.44,0,0,0-.35,1.74v3.49a.74.74,0,0,0,.74.73h.95a.74.74,0,0,0,.74-.73v-.87h8.23v.87a.74.74,0,0,0,.74.73h1a.74.74,0,0,0,.74-.73V10.45a5.44,5.44,0,0,0-.35-1.74l-.12-.29h.09a.74.74,0,0,0,.74-.73V7.28A.56.56,0,0,0,16.33,6.69ZM5.07,8,6.16,5.37A.94.94,0,0,1,7,4.83H13a.94.94,0,0,1,.81.54L14.92,8a.36.36,0,0,1-.36.54H5.43A.36.36,0,0,1,5.07,8Zm2.44,3.35a.3.3,0,0,1-.3.3H5.14a.31.31,0,0,1-.3-.3v-1a.3.3,0,0,1,.3-.29H7.21a.29.29,0,0,1,.3.29Zm7.62,0a.31.31,0,0,1-.3.3H12.76a.3.3,0,0,1-.3-.3v-1a.29.29,0,0,1,.3-.29h2.07a.3.3,0,0,1,.3.29Z" transform="translate(0 0)"/></svg>